<svg width="163" height="60" viewBox="0 0 163 60" fill="none" xmlns="http://www.w3.org/2000/svg">
<rect width="163" height="60" rx="30" fill="black"/>
<g clip-path="url(#clip0_27_722)">
<path d="M33.025 10.025C32.9219 10.0437 32.8156 10.0625 32.725 10.125C32.3594 10.3718 32.2781 10.8843 32.525 11.25L34.25 13.825C31.5844 15.2375 29.5969 17.5843 28.95 20.4H51.05C50.4031 17.5843 48.4156 15.2375 45.75 13.825L47.475 11.25C47.7219 10.8843 47.6406 10.3718 47.275 10.125C46.9062 9.87809 46.3969 9.98434 46.15 10.35L44.25 13.15C42.9313 12.6687 41.5 12.4 40 12.4C38.5 12.4 37.0688 12.6687 35.75 13.15L33.85 10.35C33.6656 10.075 33.3313 9.96559 33.025 10.025ZM35.6 16.4C36.2625 16.4 36.8 16.9375 36.8 17.6C36.8 18.2656 36.2625 18.8 35.6 18.8C34.9344 18.8 34.4 18.2656 34.4 17.6C34.4 16.9375 34.9344 16.4 35.6 16.4ZM44.4 16.4C45.0656 16.4 45.6 16.9375 45.6 17.6C45.6 18.2656 45.0656 18.8 44.4 18.8C43.7375 18.8 43.2 18.2656 43.2 17.6C43.2 16.9375 43.7375 16.4 44.4 16.4ZM26.4 22C25.075 22 24 23.075 24 24.4V35.6C24 36.925 25.075 38 26.4 38C26.6813 38 26.95 37.9406 27.2 37.85V22.15C26.95 22.0593 26.6813 22 26.4 22ZM28.8 22V39.6C28.8 40.9218 29.8781 42 31.2 42H48.8C50.1219 42 51.2 40.9218 51.2 39.6V22H28.8ZM53.6 22C53.3188 22 53.05 22.0593 52.8 22.15V37.85C53.05 37.9375 53.3188 38 53.6 38C54.925 38 56 36.925 56 35.6V24.4C56 23.075 54.925 22 53.6 22ZM32 43.6V46.8C32 48.5656 33.4344 50 35.2 50C36.9656 50 38.4 48.5656 38.4 46.8V43.6H32ZM41.6 43.6V46.8C41.6 48.5656 43.0344 50 44.8 50C46.5656 50 48 48.5656 48 46.8V43.6H41.6Z" fill="white"/>
</g>
<path d="M80.5998 25.1C81.9065 25.1 82.8732 25.3867 83.4998 25.96C84.1265 26.5333 84.4398 27.4467 84.4398 28.7V36H83.1598L82.8198 34.48H82.7398C82.4332 34.8667 82.1132 35.1933 81.7798 35.46C81.4598 35.7133 81.0865 35.9 80.6598 36.02C80.2465 36.14 79.7398 36.2 79.1398 36.2C78.4998 36.2 77.9198 36.0867 77.3998 35.86C76.8932 35.6333 76.4932 35.2867 76.1998 34.82C75.9065 34.34 75.7598 33.74 75.7598 33.02C75.7598 31.9533 76.1798 31.1333 77.0198 30.56C77.8598 29.9733 79.1532 29.6533 80.8998 29.6L82.7198 29.54V28.9C82.7198 28.0067 82.5265 27.3867 82.1398 27.04C81.7532 26.6933 81.2065 26.52 80.4998 26.52C79.9398 26.52 79.4065 26.6067 78.8998 26.78C78.3932 26.94 77.9198 27.1267 77.4798 27.34L76.9398 26.02C77.4065 25.7667 77.9598 25.5533 78.5998 25.38C79.2398 25.1933 79.9065 25.1 80.5998 25.1ZM81.1198 30.82C79.7865 30.8733 78.8598 31.0867 78.3398 31.46C77.8332 31.8333 77.5798 32.36 77.5798 33.04C77.5798 33.64 77.7598 34.08 78.1198 34.36C78.4932 34.64 78.9665 34.78 79.5398 34.78C80.4465 34.78 81.1998 34.5333 81.7998 34.04C82.3998 33.5333 82.6998 32.76 82.6998 31.72V30.76L81.1198 30.82ZM92.9108 25.08C94.1908 25.08 95.1574 25.3933 95.8108 26.02C96.4641 26.6333 96.7908 27.6333 96.7908 29.02V36H95.0508V29.14C95.0508 28.2733 94.8574 27.6267 94.4708 27.2C94.0841 26.7733 93.4774 26.56 92.6508 26.56C91.4641 26.56 90.6441 26.8933 90.1908 27.56C89.7374 28.2267 89.5108 29.1867 89.5108 30.44V36H87.7508V25.28H89.1708L89.4308 26.74H89.5308C89.7708 26.3667 90.0641 26.06 90.4108 25.82C90.7708 25.5667 91.1641 25.38 91.5908 25.26C92.0174 25.14 92.4574 25.08 92.9108 25.08ZM103.914 36.2C102.581 36.2 101.514 35.74 100.714 34.82C99.9141 33.8867 99.5141 32.5 99.5141 30.66C99.5141 28.82 99.9141 27.4333 100.714 26.5C101.527 25.5533 102.601 25.08 103.934 25.08C104.494 25.08 104.981 25.1533 105.394 25.3C105.807 25.4333 106.167 25.62 106.474 25.86C106.781 26.1 107.041 26.3667 107.254 26.66H107.374C107.361 26.4867 107.334 26.2333 107.294 25.9C107.267 25.5533 107.254 25.28 107.254 25.08V20.8H109.014V36H107.594L107.334 34.56H107.254C107.041 34.8667 106.781 35.1467 106.474 35.4C106.167 35.64 105.801 35.8333 105.374 35.98C104.961 36.1267 104.474 36.2 103.914 36.2ZM104.194 34.74C105.327 34.74 106.121 34.4333 106.574 33.82C107.041 33.1933 107.274 32.2533 107.274 31V30.68C107.274 29.3467 107.054 28.3267 106.614 27.62C106.174 26.9 105.361 26.54 104.174 26.54C103.227 26.54 102.514 26.92 102.034 27.68C101.567 28.4267 101.334 29.4333 101.334 30.7C101.334 31.98 101.567 32.9733 102.034 33.68C102.514 34.3867 103.234 34.74 104.194 34.74ZM117.419 25.08C117.619 25.08 117.832 25.0933 118.059 25.12C118.299 25.1333 118.505 25.16 118.679 25.2L118.459 26.82C118.285 26.78 118.092 26.7467 117.879 26.72C117.679 26.6933 117.485 26.68 117.299 26.68C116.885 26.68 116.492 26.7667 116.119 26.94C115.745 27.1133 115.412 27.36 115.119 27.68C114.825 27.9867 114.592 28.36 114.419 28.8C114.259 29.24 114.179 29.7333 114.179 30.28V36H112.419V25.28H113.859L114.059 27.24H114.139C114.365 26.84 114.639 26.48 114.959 26.16C115.279 25.8267 115.645 25.5667 116.059 25.38C116.472 25.18 116.925 25.08 117.419 25.08ZM129.61 30.62C129.61 31.5133 129.49 32.3067 129.25 33C129.023 33.68 128.69 34.26 128.25 34.74C127.823 35.22 127.297 35.5867 126.67 35.84C126.057 36.08 125.37 36.2 124.61 36.2C123.903 36.2 123.25 36.08 122.65 35.84C122.05 35.5867 121.53 35.22 121.09 34.74C120.65 34.26 120.303 33.68 120.05 33C119.81 32.3067 119.69 31.5133 119.69 30.62C119.69 29.4333 119.89 28.4333 120.29 27.62C120.69 26.7933 121.263 26.1667 122.01 25.74C122.757 25.3 123.643 25.08 124.67 25.08C125.643 25.08 126.497 25.3 127.23 25.74C127.977 26.1667 128.557 26.7933 128.97 27.62C129.397 28.4333 129.61 29.4333 129.61 30.62ZM121.51 30.62C121.51 31.46 121.617 32.1933 121.83 32.82C122.057 33.4333 122.403 33.9067 122.87 34.24C123.337 34.5733 123.93 34.74 124.65 34.74C125.37 34.74 125.963 34.5733 126.43 34.24C126.897 33.9067 127.237 33.4333 127.45 32.82C127.677 32.1933 127.79 31.46 127.79 30.62C127.79 29.7667 127.677 29.04 127.45 28.44C127.223 27.84 126.877 27.38 126.41 27.06C125.957 26.7267 125.363 26.56 124.63 26.56C123.537 26.56 122.743 26.92 122.25 27.64C121.757 28.36 121.51 29.3533 121.51 30.62ZM134.159 25.28V36H132.399V25.28H134.159ZM133.299 21.26C133.566 21.26 133.799 21.3533 133.999 21.54C134.213 21.7133 134.319 21.9933 134.319 22.38C134.319 22.7533 134.213 23.0333 133.999 23.22C133.799 23.4067 133.566 23.5 133.299 23.5C133.006 23.5 132.759 23.4067 132.559 23.22C132.359 23.0333 132.259 22.7533 132.259 22.38C132.259 21.9933 132.359 21.7133 132.559 21.54C132.759 21.3533 133.006 21.26 133.299 21.26ZM141.355 36.2C140.022 36.2 138.955 35.74 138.155 34.82C137.355 33.8867 136.955 32.5 136.955 30.66C136.955 28.82 137.355 27.4333 138.155 26.5C138.969 25.5533 140.042 25.08 141.375 25.08C141.935 25.08 142.422 25.1533 142.835 25.3C143.249 25.4333 143.609 25.62 143.915 25.86C144.222 26.1 144.482 26.3667 144.695 26.66H144.815C144.802 26.4867 144.775 26.2333 144.735 25.9C144.709 25.5533 144.695 25.28 144.695 25.08V20.8H146.455V36H145.035L144.775 34.56H144.695C144.482 34.8667 144.222 35.1467 143.915 35.4C143.609 35.64 143.242 35.8333 142.815 35.98C142.402 36.1267 141.915 36.2 141.355 36.2ZM141.635 34.74C142.769 34.74 143.562 34.4333 144.015 33.82C144.482 33.1933 144.715 32.2533 144.715 31V30.68C144.715 29.3467 144.495 28.3267 144.055 27.62C143.615 26.9 142.802 26.54 141.615 26.54C140.669 26.54 139.955 26.92 139.475 27.68C139.009 28.4267 138.775 29.4333 138.775 30.7C138.775 31.98 139.009 32.9733 139.475 33.68C139.955 34.3867 140.675 34.74 141.635 34.74Z" fill="white"/>
<defs>
<clipPath id="clip0_27_722">
<rect width="40" height="40" fill="white" transform="translate(20 10)"/>
</clipPath>
</defs>
</svg>
