<svg width="250" height="250" viewBox="0 0 250 250" fill="none" xmlns="http://www.w3.org/2000/svg">
<g clip-path="url(#clip0_27_565)">
<path d="M250 0H0V250H250V0Z" fill="white"/>
<path d="M28.7376 121.404C31.3747 131.726 41.0418 167.446 74.0234 192.617C126.05 232.323 207.609 224.04 218.403 198.414C223.41 186.526 209.698 179.192 206.129 145.961C202.782 114.797 213.52 108.936 209.293 90.1983C200.986 53.3741 148.992 29.7067 107.703 26.4285C94.7792 25.4024 52.6302 22.056 33.9947 47.133C16.4441 70.7498 23.9499 102.663 28.7376 121.404Z" fill="#F4F7FA"/>
<mask id="mask0_27_565" style="mask-type:luminance" maskUnits="userSpaceOnUse" x="133" y="79" width="78" height="109">
<path d="M137.305 182.567L155.868 187.641C155.868 187.641 161.966 179.074 159.253 171.11C153.72 154.861 168.337 151.149 174.226 148.678C183.108 144.952 189.31 137.794 179.532 131.268C169.754 124.741 185.122 111.023 200.334 107.073C215.22 103.207 216.937 74.5149 183.951 79.924C164.251 83.1543 161.92 102.467 158.424 111.94C154.928 121.413 140.276 118.271 141.976 131.475C143.427 142.753 149.425 152.327 141.405 157.616C133.384 162.906 130.618 170.538 137.305 182.567Z" fill="white"/>
</mask>
<g mask="url(#mask0_27_565)">
<path d="M137.305 182.567L155.868 187.641C155.868 187.641 161.966 179.074 159.253 171.11C153.72 154.861 168.337 151.149 174.226 148.678C183.108 144.952 188.355 138.434 180.868 131.23C172.397 123.079 185.122 111.023 200.334 107.073C215.22 103.207 216.937 74.5149 183.951 79.924C164.251 83.1543 161.92 102.467 158.424 111.94C154.928 121.413 140.276 118.271 141.976 131.475C143.427 142.753 149.425 152.327 141.405 157.616C133.384 162.905 130.618 170.538 137.305 182.567Z" fill="url(#paint0_linear_27_565)"/>
</g>
<mask id="mask1_27_565" style="mask-type:luminance" maskUnits="userSpaceOnUse" x="133" y="79" width="78" height="109">
<path d="M137.305 182.567L155.868 187.641C155.868 187.641 161.966 179.074 159.253 171.11C153.72 154.861 168.337 151.149 174.226 148.678C183.108 144.952 189.31 137.794 179.532 131.268C169.754 124.741 185.122 111.023 200.334 107.073C215.22 103.207 216.937 74.5149 183.951 79.924C164.251 83.1543 161.92 102.467 158.424 111.94C154.928 121.413 140.276 118.271 141.976 131.475C143.427 142.753 149.425 152.327 141.405 157.616C133.384 162.906 130.618 170.538 137.305 182.567Z" fill="white"/>
</mask>
<g mask="url(#mask1_27_565)">
<g opacity="0.5">
<path d="M144.869 186.486L145.273 186.521C145.295 186.27 147.537 161.177 157.261 136.972C166.219 114.673 183.544 88.5858 215.212 90.9424L215.242 90.5373C201.145 89.4882 188.67 93.8904 178.163 103.622C169.769 111.395 162.609 122.568 156.881 136.828C147.137 161.089 144.89 186.235 144.869 186.486Z" fill="#BEB8F2"/>
<path d="M173.947 107.878L174.35 107.935C176.276 94.5517 186.233 77.5137 186.333 77.3431L185.983 77.137C185.882 77.3083 175.885 94.4155 173.947 107.878Z" fill="#BEB8F2"/>
<path d="M181.126 101.586C196.565 96.9722 207.812 104.285 207.924 104.359L208.149 104.021C208.036 103.945 196.638 96.5265 181.01 101.196L181.126 101.586Z" fill="#BEB8F2"/>
<path d="M151.766 153.143C161.198 135.864 187.566 138.202 187.821 138.246L187.916 137.851C187.67 137.784 160.925 135.516 151.41 152.948L151.766 153.143Z" fill="#BEB8F2"/>
<path d="M153.785 145.281L154.191 145.306C154.966 132.768 144.329 121.088 144.221 120.972L143.923 121.247C144.029 121.363 154.55 132.918 153.785 145.281Z" fill="#BEB8F2"/>
<path d="M145.713 182.58C148.244 175.543 160.068 172.655 160.187 172.627L160.093 172.231C159.598 172.349 147.936 175.198 145.331 182.442L145.713 182.58Z" fill="#BEB8F2"/>
<path d="M146.164 176.63L146.569 176.67C147.145 170.785 140.359 162.199 138.129 159.378C137.814 158.979 137.542 158.635 137.505 158.564L137.141 158.745C137.191 158.845 137.371 159.075 137.81 159.63C140.015 162.42 146.725 170.909 146.164 176.63Z" fill="#BEB8F2"/>
</g>
</g>
<path d="M156.554 110.477C159.545 113.64 158.931 117.818 158.012 120.771C157.61 120.886 157.408 121.055 157.029 121.261C153.612 123.117 151.759 123.181 148.102 124.48C147.315 124.759 144.755 124.877 143.706 124.857L141.751 124.791C141.751 124.791 135.81 116.721 140.002 112.854C144.193 108.987 139.523 100.607 137.595 95.863C136.412 92.9496 136.804 91.2382 136.541 90.0979C133.757 78.027 129.148 75.5622 130.654 71.0808C132.316 66.1337 138.409 67.7214 140.502 62.4353C142.865 56.4663 136.683 50.4342 140.181 45.2853C140.781 44.4025 141.421 43.5118 142.619 42.7429C145.577 40.845 148.759 41.9588 150.287 38.6196C153.357 31.9074 160.454 27.8161 166.763 32.0647C172.99 36.2579 170.87 48.6812 159.911 61.2651C153.137 71.103 153.675 73.3277 156.041 78.4489C157.698 82.036 164.568 90.6637 160.294 96.0794C156.02 101.495 153.134 106.861 156.554 110.477Z" fill="url(#paint1_linear_27_565)"/>
<mask id="mask2_27_565" style="mask-type:luminance" maskUnits="userSpaceOnUse" x="136" y="30" width="35" height="96">
<path d="M156.565 124.455L142.152 125.032C142.152 125.032 135.81 116.721 140.002 112.854C144.193 108.987 139.523 100.607 137.595 95.863C132.366 82.9903 148.178 79.8539 142.892 62.793C141.486 58.2554 137.162 50.0617 140.181 45.2852C143.621 39.8434 148.322 42.914 150.286 38.6195C153.357 31.9075 160.454 27.8161 166.763 32.0647C172.99 36.2579 170.87 48.6811 159.911 61.2651C153.137 71.103 153.675 73.3277 156.041 78.4488C157.698 82.036 164.568 90.6637 160.294 96.0794C156.019 101.495 153.134 106.861 156.554 110.477C161.758 115.98 156.565 124.455 156.565 124.455Z" fill="white"/>
</mask>
<g mask="url(#mask2_27_565)">
<g opacity="0.5">
<path d="M150.09 124.072L149.808 124.117C149.544 122.561 149.299 120.988 149.079 119.442C147.451 107.995 147.037 96.804 147.849 86.1805C148.536 77.179 150.111 68.4577 152.529 60.2592C154.473 53.6659 156.971 47.3732 159.954 41.5561C162.05 37.4667 164.363 33.6527 166.827 30.2201C167.256 29.6219 167.731 29.0319 168.19 28.4612C168.802 27.7009 169.434 26.9148 169.964 26.103L170.208 26.2378C169.671 27.0606 169.034 27.8522 168.418 28.6176C167.961 29.1854 167.489 29.7726 167.064 30.3648C164.607 33.7865 162.302 37.5891 160.212 41.6669C157.237 47.4697 154.745 53.7474 152.804 60.3255C150.391 68.5071 148.82 77.211 148.134 86.1952C147.324 96.8007 147.737 107.973 149.362 119.403C149.582 120.947 149.826 122.518 150.09 124.072Z" fill="#FCFDFE"/>
<path d="M150.306 70.405L150.023 70.3672C151.968 59.1043 141.908 42.1298 141.806 41.9597L142.057 41.8281C142.159 41.9991 152.266 59.0519 150.306 70.405Z" fill="#FCFDFE"/>
<path d="M147.836 102.311L147.551 102.304C147.909 94.52 160.542 85.0421 160.669 84.9473L160.846 85.1532C160.72 85.2473 148.189 94.6488 147.836 102.311Z" fill="#FCFDFE"/>
<path d="M148.044 106.737L147.761 106.777C147.023 101.752 143.116 95.3073 136.758 88.6302C136.438 88.2944 136.438 88.2944 136.43 88.2448L136.713 88.2017L136.572 88.2232L136.695 88.1545C136.713 88.1792 136.834 88.306 136.974 88.4529C143.367 95.1682 147.299 101.662 148.044 106.737Z" fill="#FCFDFE"/>
<path d="M149.652 121.225L149.37 121.188C150.302 115.644 158.057 111.382 158.135 111.339L158.276 111.568C158.199 111.609 150.563 115.808 149.652 121.225Z" fill="#FCFDFE"/>
<path d="M149.681 124.209C147.336 120.287 143.69 116.88 138.534 113.793L138.692 113.569C143.887 116.681 147.564 120.118 149.931 124.077L149.681 124.209Z" fill="#FCFDFE"/>
<path d="M158.515 45.1187L158.236 45.0662C159.693 38.8546 159.676 32.0383 159.67 29.7985C159.669 29.2563 159.669 29.0654 159.681 28.9988L159.963 29.0404C159.954 29.0914 159.955 29.4013 159.956 29.7937C159.962 32.0408 159.979 38.8787 158.515 45.1187Z" fill="#FCFDFE"/>
<path d="M154.542 54.917L154.293 54.7903C157.441 49.5698 169.796 46.2394 170.32 46.1001L170.395 46.3549C170.267 46.3887 157.632 49.794 154.542 54.917Z" fill="#FCFDFE"/>
</g>
</g>
<path d="M156.558 152.184C155.569 152.176 156.122 147.012 152.527 140.912C151.628 139.387 147.305 130.735 140.057 131.333C138.651 131.449 137.244 131.565 135.837 131.681C134.259 128.676 133.328 125.552 137.436 123.843C143.817 121.19 142.519 110.17 140.186 106.493C137.298 101.942 130.805 91.2147 140.6 86.9663C148.755 83.4294 154.783 82.7197 154.01 72.3341C153.237 61.9485 158.351 54.8083 168.346 54.2512C178.865 53.6651 185.683 39.5504 194.812 42.9244C210.719 48.8038 200.24 73.1292 183 81.8533C165.759 90.5774 176.966 95.5095 178.574 103.893C178.68 104.68 178.782 105.908 178.628 107.38C177.678 116.443 168.643 119.055 162.907 127.062C155.085 137.983 158.224 152.198 156.558 152.184Z" fill="url(#paint2_linear_27_565)"/>
<mask id="mask3_27_565" style="mask-type:luminance" maskUnits="userSpaceOnUse" x="134" y="42" width="69" height="93">
<path d="M159.695 131.549L136.939 134.065C135.236 131.172 132.847 125.752 137.436 123.843C143.817 121.19 142.519 110.17 140.186 106.493C137.298 101.942 130.805 91.2146 140.6 86.9661C148.755 83.4293 154.783 82.7197 154.01 72.3341C153.237 61.9484 158.351 54.8082 168.346 54.2512C178.865 53.665 185.683 39.5503 194.812 42.9245C210.719 48.8037 200.24 73.1291 182.999 81.8533C165.759 90.5774 176.966 95.5094 178.574 103.893C180.77 115.34 163.931 114.827 160.17 119.869C157.221 123.822 158.505 128.645 159.695 131.549Z" fill="white"/>
</mask>
<g mask="url(#mask3_27_565)">
<g opacity="0.5">
<path d="M148.561 129.356L148.066 129.32C150.886 95.174 171.254 62.4865 201.224 44.0137L201.495 44.4059C171.652 62.8009 151.369 95.3521 148.561 129.356Z" fill="#FCFDFE"/>
<path d="M151.788 110.864L151.295 110.921C149.573 97.5592 136.108 88.535 135.973 88.4455L136.257 88.0615C136.395 88.1521 150.039 97.2919 151.788 110.864Z" fill="#FCFDFE"/>
<path d="M149.261 123.088L148.799 122.917C154.079 110.213 179.946 105.533 180.207 105.487L180.298 105.947C180.04 105.993 154.441 110.626 149.261 123.088Z" fill="#FCFDFE"/>
<path d="M165.562 79.9121L165.086 79.7791C168.347 69.4004 159.573 55.0128 159.484 54.8686L159.913 54.6326C160.003 54.7784 168.884 69.3417 165.562 79.9121Z" fill="#FCFDFE"/>
<path d="M179.261 62.4175L178.951 62.0509C189.181 54.3706 206.761 55.9477 206.937 55.9648L206.887 56.4309C206.713 56.414 189.33 54.8567 179.261 62.4175Z" fill="#FCFDFE"/>
</g>
</g>
<path d="M139.94 65.8652L27.4075 76.1526C34.2063 80.3526 44.728 88.771 51.0612 105.826C63.5304 139.405 49.6767 170.681 64.6629 193.266C68.6502 199.275 77.2478 210.159 90.5302 212.826L198.001 198.174C162.809 187.971 153.264 168.681 151.428 152.234C149.586 135.729 154.828 115.987 148.549 89.4222C145.982 78.5588 142.478 70.7427 139.94 65.8652Z" fill="url(#paint3_linear_27_565)"/>
<path d="M41.3187 47.5513C74.3637 45.4764 107.409 43.4015 140.454 41.3267C144.903 45.0963 151.151 51.7979 155.223 63.39C164.593 90.0689 153.679 116.455 156.832 142.387C158.844 158.924 167.14 179.641 196.859 193.489C161.374 198.133 125.89 202.776 90.4054 207.42C83.0737 204.611 73.3014 198.773 67.6468 185.19C61.6519 170.79 65.8493 161.048 63.784 115.781C62.3305 83.9225 59.4715 71.3575 53.5165 61.2845C49.3933 54.31 44.7462 50.0853 41.3187 47.5513Z" fill="white"/>
<path d="M149.644 139.948C149.665 140.209 149.687 140.471 149.71 140.732C149.732 140.978 149.555 141.196 149.31 141.223L71.7975 149.737C71.5276 149.766 71.2924 149.555 71.2949 149.284C71.2973 149.021 71.2995 148.756 71.3018 148.488C71.3036 148.258 71.477 148.064 71.7054 148.039L149.143 139.534C149.397 139.506 149.623 139.694 149.644 139.948Z" fill="#D8DEE8"/>
<path d="M149.334 131.605C149.333 131.869 149.333 132.133 149.334 132.397C149.335 132.629 149.16 132.825 148.929 132.849L71.8216 141.061C71.5545 141.09 71.3216 140.883 71.3204 140.614C71.3194 140.351 71.3181 140.086 71.3167 139.82C71.3154 139.587 71.4904 139.39 71.7218 139.365L148.833 131.153C149.102 131.124 149.335 131.335 149.334 131.605Z" fill="#D8DEE8"/>
<path d="M150.751 148.206C150.8 148.465 150.85 148.722 150.902 148.979C150.954 149.24 150.774 149.489 150.51 149.519L71.6931 158.431C71.4221 158.462 71.1855 158.248 71.1889 157.975C71.1921 157.713 71.1954 157.448 71.1989 157.179C71.2019 156.951 71.3743 156.759 71.6013 156.734L150.256 147.84C150.492 147.813 150.707 147.973 150.751 148.206Z" fill="#D8DEE8"/>
<path d="M137.86 191.802L173.602 187.224C173.755 187.204 173.91 187.264 174.01 187.388C174.202 187.625 174.44 187.812 174.707 187.957C175.119 188.181 174.988 188.757 174.561 188.812L139.485 193.305C138.943 192.804 138.401 192.303 137.86 191.802Z" fill="#D8DEE8"/>
<path d="M88.6443 198.105L129.014 192.935C129.537 193.441 130.064 193.943 130.593 194.443L89.9952 199.643C89.906 199.654 89.8148 199.639 89.7341 199.6C89.3092 199.391 88.8918 199.175 88.4816 198.952C88.0969 198.743 88.21 198.161 88.6443 198.105Z" fill="#D8DEE8"/>
<path d="M149.624 123.203C149.608 123.47 149.592 123.736 149.576 124.003C149.564 124.224 149.393 124.404 149.172 124.427L71.7222 132.41C71.4582 132.437 71.2277 132.234 71.2227 131.969C71.2177 131.706 71.2126 131.442 71.2072 131.176C71.2024 130.941 71.3792 130.739 71.6137 130.715L149.127 122.725C149.405 122.697 149.641 122.924 149.624 123.203Z" fill="#D8DEE8"/>
<path d="M160.331 172.24C160.492 172.485 160.654 172.728 160.819 172.971C161.01 173.252 160.838 173.635 160.501 173.676L75.0751 184.124C74.8794 184.148 74.6898 184.044 74.6076 183.865C74.4922 183.613 74.3787 183.36 74.2674 183.103C74.1461 182.824 74.3248 182.507 74.6269 182.47L159.899 172.04C160.07 172.019 160.237 172.097 160.331 172.24Z" fill="#D8DEE8"/>
<path d="M155.934 164.379C156.052 164.629 156.17 164.878 156.291 165.127C156.427 165.408 156.248 165.738 155.938 165.775L72.4176 175.74C72.1796 175.768 71.9589 175.607 71.9171 175.371C71.8706 175.109 71.8269 174.844 71.7856 174.577C71.7465 174.324 71.9268 174.089 72.1807 174.059L155.472 164.122C155.665 164.098 155.851 164.202 155.934 164.379Z" fill="#D8DEE8"/>
<path d="M152.8 156.358C152.881 156.612 152.963 156.866 153.047 157.119C153.137 157.392 152.956 157.678 152.67 157.712L71.6878 167.125C71.4228 167.155 71.1879 166.952 71.1822 166.686C71.1766 166.423 71.1717 166.157 71.1676 165.888C71.164 165.655 71.3377 165.457 71.5687 165.43L152.317 156.044C152.533 156.019 152.735 156.151 152.8 156.358Z" fill="#D8DEE8"/>
<path d="M150.3 114.773C150.275 115.04 150.25 115.307 150.225 115.574C150.205 115.79 150.035 115.962 149.819 115.984L71.4953 123.782C71.2345 123.808 71.0062 123.609 70.9975 123.347C70.9889 123.084 70.9799 122.821 70.9708 122.556C70.9626 122.317 71.1409 122.112 71.3787 122.088L149.804 114.28C150.088 114.252 150.326 114.489 150.3 114.773Z" fill="#D8DEE8"/>
<path d="M147.962 64.6078C148.164 64.5924 148.352 64.7119 148.422 64.9014C148.518 65.1592 148.612 65.4183 148.704 65.6798C148.705 65.6817 148.705 65.6835 148.706 65.6854C148.804 65.9648 148.606 66.2608 148.311 66.2833L65.9731 72.5552C65.7574 72.5717 65.5608 72.4316 65.5028 72.2233C65.4307 71.9642 65.3578 71.7071 65.284 71.4522C65.2039 71.1757 65.397 70.897 65.684 70.8752L147.962 64.6078Z" fill="#D8DEE8"/>
<path d="M150.747 73.0351C150.802 73.2972 150.854 73.5593 150.905 73.8215C150.957 74.0867 150.765 74.3379 150.495 74.3596L67.8854 80.9984C67.6533 81.017 67.4454 80.8551 67.4037 80.6261C67.3561 80.3648 67.3079 80.1055 67.2592 79.8482C67.2092 79.5834 67.3991 79.3351 67.6678 79.3135L150.265 72.6758C150.493 72.6574 150.7 72.8114 150.747 73.0351Z" fill="#D8DEE8"/>
<path d="M144.45 57.8778L62.9944 64.0701C62.8025 64.0847 62.623 63.9751 62.5461 63.7986C61.6204 61.6743 60.5972 59.6841 59.4644 57.768C58.8936 56.8025 58.2995 55.8626 57.6843 54.9467C57.489 54.6559 57.6788 54.263 58.0283 54.2395L138.185 48.8377C138.317 48.8288 138.448 48.8775 138.541 48.9719C140.929 51.3925 143.022 54.1403 144.809 57.1992C144.977 57.4872 144.782 57.8525 144.45 57.8778Z" fill="#D8DEE8"/>
<path d="M151.124 106.339C151.098 106.606 151.072 106.874 151.046 107.141C151.025 107.357 150.854 107.528 150.638 107.549L71.1487 115.175C70.8908 115.2 70.6649 115.003 70.6527 114.744C70.6403 114.479 70.6279 114.216 70.6153 113.954C70.6037 113.712 70.7838 113.505 71.0246 113.482L150.629 105.845C150.913 105.818 151.152 106.055 151.124 106.339Z" fill="#D8DEE8"/>
<path d="M151.846 97.9289C151.828 98.1951 151.809 98.4616 151.789 98.7282C151.773 98.9495 151.598 99.1274 151.377 99.1478L70.6818 106.589C70.4273 106.612 70.2039 106.42 70.188 106.165C70.1715 105.9 70.1548 105.638 70.1379 105.376C70.1221 105.131 70.3041 104.919 70.5486 104.897L151.351 97.4458C151.629 97.4201 151.866 97.6498 151.846 97.9289Z" fill="#D8DEE8"/>
<path d="M152.204 89.5613C152.201 89.8271 152.197 90.0932 152.192 90.3593C152.188 90.5911 152.009 90.7827 151.778 90.8031L70.0491 98.0262C69.7993 98.0484 69.5794 97.8621 69.5578 97.6124C69.535 97.3488 69.512 97.0869 69.4887 96.8265C69.4664 96.5769 69.6506 96.3579 69.9001 96.3359L151.71 89.1056C151.976 89.0819 152.206 89.2934 152.204 89.5613Z" fill="#D8DEE8"/>
<path d="M151.926 81.2583C151.947 81.5225 151.967 81.7868 151.986 82.0512C152.004 82.2987 151.819 82.5145 151.571 82.5354L69.1642 89.4933C68.9215 89.5138 68.7064 89.3372 68.6765 89.0955C68.644 88.8328 68.6112 88.5721 68.578 88.313C68.5453 88.0571 68.7321 87.8268 68.9892 87.8051L151.434 80.8442C151.684 80.823 151.905 81.0085 151.926 81.2583Z" fill="#D8DEE8"/>
<path d="M128.618 197.411L114.305 188.547C109.548 185.574 104.777 182.614 100.114 179.516C98.9564 178.738 97.7844 177.953 96.7095 177.115C96.578 177.011 96.4481 176.904 96.3319 176.799C96.2742 176.747 96.2193 176.694 96.177 176.649C96.1581 176.628 96.1394 176.606 96.1353 176.599C96.1279 176.591 96.1412 176.605 96.1414 176.611C96.151 176.627 96.1585 176.645 96.1634 176.663C96.1707 176.682 96.1892 176.759 96.1835 176.806C96.1889 176.889 96.1406 177.019 96.0884 177.085C96.0217 177.171 95.9512 177.21 95.9304 177.221C95.8831 177.243 95.86 177.249 95.8534 177.252C95.841 177.256 95.8196 177.258 95.8229 177.258C95.8169 177.26 95.8126 177.259 95.8235 177.259C95.828 177.259 95.8388 177.259 95.8524 177.261C95.9032 177.264 95.9735 177.273 96.0468 177.288C96.1929 177.315 96.3515 177.356 96.5085 177.4C97.1415 177.583 97.7777 177.837 98.3925 178.121C99.6223 178.694 100.795 179.407 101.805 180.279C102.809 181.147 103.655 182.203 104.03 183.4C104.427 184.597 104.248 185.868 103.671 187.026C103.1 188.195 102.226 189.258 101.355 190.368C100.919 190.924 100.479 191.498 100.086 192.138C99.6954 192.772 99.344 193.496 99.2121 194.327C99.1426 194.741 99.1585 195.177 99.2273 195.598C99.2727 195.807 99.3171 196.016 99.3962 196.211C99.4603 196.414 99.5534 196.599 99.648 196.783C100.033 197.519 100.592 198.096 101.184 198.582C102.383 199.544 103.753 200.159 105.148 200.601C106.547 201.043 107.99 201.298 109.441 201.407C112.338 201.619 115.306 201.229 118.029 200.083C119.39 199.504 120.65 198.729 121.801 197.833C122.953 196.935 124.005 195.914 124.923 194.762C125.38 194.185 125.808 193.577 126.17 192.912C126.53 192.247 126.849 191.535 126.985 190.7C127.05 190.284 127.067 189.827 126.945 189.348C126.912 189.228 126.882 189.109 126.825 188.992L126.747 188.817C126.716 188.756 126.671 188.69 126.632 188.628C126.466 188.381 126.227 188.167 125.984 188.041C125.49 187.771 125.038 187.732 124.629 187.708C124.217 187.69 123.833 187.721 123.462 187.765C121.983 187.949 120.627 188.318 119.262 188.669C117.904 189.038 116.557 189.409 115.202 189.751C113.848 190.097 112.488 190.409 111.117 190.685C109.745 190.945 108.365 191.171 106.977 191.341C104.203 191.678 101.409 191.865 98.6151 191.883C95.8218 191.909 93.0275 191.768 90.258 191.435L90.2564 191.435C89.8569 191.387 89.4941 191.672 89.4461 192.071C89.3981 192.471 89.6831 192.833 90.0826 192.881C90.1107 192.885 90.1394 192.886 90.1671 192.887C92.9991 192.896 95.8217 192.869 98.6386 192.732C100.046 192.656 101.454 192.585 102.857 192.456C103.559 192.402 104.26 192.332 104.962 192.268C105.661 192.189 106.363 192.123 107.061 192.03C109.856 191.689 112.653 191.318 115.433 190.819C116.821 190.571 118.204 190.292 119.578 190.019C120.265 189.88 120.947 189.732 121.626 189.605C122.303 189.478 122.978 189.346 123.63 189.28C123.955 189.244 124.274 189.231 124.563 189.241C124.85 189.251 125.116 189.303 125.238 189.38C125.417 189.415 125.577 189.918 125.475 190.466C125.389 191.02 125.141 191.616 124.833 192.18C124.525 192.749 124.145 193.295 123.732 193.817C122.903 194.862 121.93 195.812 120.871 196.641C119.81 197.469 118.661 198.178 117.439 198.7C114.982 199.743 112.234 200.109 109.543 199.942C108.196 199.854 106.854 199.627 105.574 199.234C104.296 198.846 103.059 198.288 102.06 197.497C101.058 196.716 100.368 195.635 100.555 194.525C100.637 193.966 100.891 193.39 101.231 192.832C101.567 192.272 101.975 191.725 102.397 191.172C103.238 190.067 104.16 188.939 104.812 187.571C105.139 186.892 105.371 186.136 105.448 185.352C105.529 184.568 105.43 183.764 105.184 183.027C104.941 182.285 104.558 181.608 104.103 181.007C103.648 180.404 103.121 179.872 102.559 179.398C101.43 178.449 100.17 177.708 98.8519 177.113C98.1893 176.817 97.5157 176.556 96.7981 176.358C96.617 176.309 96.4351 176.264 96.2359 176.229C96.1367 176.212 96.0328 176.197 95.9086 176.19C95.8783 176.188 95.8454 176.187 95.8061 176.188C95.7731 176.188 95.7251 176.192 95.6755 176.198C95.6568 176.199 95.6143 176.208 95.5806 176.217C95.5521 176.224 95.5083 176.236 95.4421 176.27C95.3998 176.288 95.313 176.341 95.2323 176.445C95.1632 176.525 95.1156 176.681 95.1157 176.784C95.114 176.852 95.1323 176.951 95.1476 176.991C95.1609 177.029 95.177 177.067 95.195 177.104C95.2191 177.146 95.252 177.2 95.2726 177.226C95.32 177.29 95.3602 177.333 95.4004 177.377C95.4788 177.459 95.5522 177.526 95.6252 177.591C95.7709 177.719 95.9143 177.833 96.0584 177.945C97.2084 178.818 98.3822 179.58 99.562 180.353C101.923 181.885 104.309 183.366 106.7 184.839C109.092 186.31 111.489 187.77 113.897 189.214C118.713 192.098 123.529 194.982 128.386 197.796C128.493 197.859 128.631 197.823 128.694 197.716C128.755 197.61 128.721 197.475 128.618 197.411Z" fill="#FC79AB"/>
<path d="M79.7749 208.887C79.7749 208.887 79.3242 210.795 79.31 211.486C79.2955 212.177 86.5776 213.141 86.691 212.632C86.8043 212.122 85.5852 211.195 84.7052 210.831C83.8251 210.466 81.2434 209.473 81.2434 209.473L79.7749 208.887Z" fill="url(#paint4_linear_27_565)"/>
<path d="M81.6968 207.108L81.2793 209.492C81.2793 209.492 80.3853 210.007 79.6719 209.492L79.4984 206.844L81.6968 207.108Z" fill="url(#paint5_linear_27_565)"/>
<path d="M66.4939 210.929C66.4939 210.929 66.0432 212.837 66.0289 213.528C66.0145 214.22 73.2967 215.183 73.41 214.674C73.5233 214.165 72.3042 213.238 71.4242 212.873C70.5441 212.508 67.9624 211.515 67.9624 211.515L66.4939 210.929Z" fill="url(#paint6_linear_27_565)"/>
<path d="M68.4159 209.15L67.9983 211.535C67.9983 211.535 67.1044 212.05 66.391 211.535L66.2175 208.887L68.4159 209.15Z" fill="url(#paint7_linear_27_565)"/>
<path d="M85.1845 144.239C85.8921 146.099 86.5998 147.959 87.3074 149.819C87.2035 160.087 86.6895 171.218 85.5617 183.075C84.7227 191.896 83.6288 200.227 82.377 208.028C81.2358 207.878 80.0945 207.726 78.9532 207.576C77.5602 204.003 76.004 198.636 76.3167 192.199C76.6429 185.484 78.6553 184.757 79.0241 178.332C79.5019 170.005 76.3349 167.508 75.324 157.359C74.9374 153.477 74.8628 148.444 75.8719 142.429C78.9761 143.032 82.0803 143.636 85.1845 144.239Z" fill="url(#paint8_linear_27_565)"/>
<path opacity="0.3" d="M75.8718 142.429C77.5483 142.755 79.2247 143.081 80.9012 143.407C83.5201 149.194 83.9281 155.023 83.1986 157.526C82.1667 161.066 80.0795 162.053 79.9118 165.68C79.7459 169.27 81.6938 170.367 82.6509 174.694C83.3134 177.689 82.8734 180.356 81.9661 185.567C80.1386 196.063 77.4444 199.094 79.2271 202.735C79.7337 203.769 80.6925 205.031 82.6789 206.099C82.5788 206.744 82.4793 207.391 82.377 208.028C81.2358 207.878 80.0945 207.726 78.9532 207.576C77.5602 204.003 76.004 198.636 76.3167 192.199C76.6429 185.484 78.6553 184.757 79.0241 178.332C79.5019 170.005 76.3349 167.508 75.324 157.359C74.9374 153.477 74.8628 148.444 75.8718 142.429Z" fill="url(#paint9_linear_27_565)"/>
<path d="M80.3923 147.08C78.1134 155.981 75.971 165.532 74.0914 175.695C71.8221 187.965 70.2224 199.579 69.1142 210.392C67.8541 210.325 66.594 210.256 65.3339 210.188C61.165 199.535 61.3948 192.568 62.4557 188.108C62.8646 186.39 63.8741 183.038 64.4363 177.948C64.8281 174.401 64.8186 171.675 64.7969 168.398C64.7493 161.212 64.1467 159.594 64.4617 154.127C64.7571 148.996 64.9358 146.402 66.4516 145.007C70.4452 141.329 79.6915 146.666 80.3923 147.08Z" fill="url(#paint10_linear_27_565)"/>
<path d="M116.978 126.4C116.978 126.4 119.747 126.152 120.147 125.683C120.548 125.214 121.156 124.463 121.216 124.034C121.276 123.604 121.811 124.246 121.326 125.178C120.841 126.11 122.217 125.913 122.431 125.89C122.925 125.838 124.808 125.781 124.754 125.903C124.7 126.024 124.977 126.563 123.64 127.196C122.469 127.75 121.076 127.389 120.315 127.427C119.554 127.465 119.554 127.465 119.554 127.465L117.535 127.626L116.978 126.4Z" fill="url(#paint11_linear_27_565)"/>
<path d="M118.601 125.049C118.723 126.013 118.845 126.977 118.967 127.941C117.133 129.539 113.079 132.601 107.439 133.061C97.4966 133.871 87.6365 126.184 85.8008 117.538C84.8918 113.256 85.6344 107.248 88.1817 106.282C88.8888 106.014 89.9512 106.052 92.1412 107.589C97.9858 111.69 98.4829 117.077 101.712 120.72C104.035 123.343 108.604 125.999 118.601 125.049Z" fill="url(#paint12_linear_27_565)"/>
<path d="M88.129 151.731C89.4938 149.744 88.1353 147.603 88.0943 143.619C88.048 139.102 89.7586 138.494 91.9638 131.201C93.4302 126.35 94.838 121.693 94.018 116.036C93.6251 113.324 92.9586 108.725 89.5496 106.246C87.7904 104.966 85.262 104.867 80.277 104.723C74.1125 104.545 71.0303 104.455 68.6446 105.523C68.2954 105.679 61.0279 109.053 60.0538 115.463C59.0623 121.987 65.8385 123.443 66.0797 132.274C66.1879 136.238 64.9939 142.221 64.2195 146.102C63.476 149.828 63.0891 150.766 63.7127 151.965C65.2159 154.855 70.5232 154.512 81.1377 153.825C85.3013 153.555 87.1107 153.214 88.129 151.731Z" fill="url(#paint13_linear_27_565)"/>
<path opacity="0.3" d="M73.6121 131.487C73.0374 133.156 71.3438 134.297 69.9144 138.354C69.6059 139.23 67.408 145.468 69.5035 147.225C70.714 148.239 71.9948 146.616 75.1185 146.652C80.5314 146.714 82.7332 151.654 86.3486 150.658C86.9758 150.485 87.818 150.075 88.7063 149.045C88.7906 150.047 88.6973 150.904 88.1291 151.731C87.1107 153.214 85.3014 153.555 81.1377 153.825C70.5232 154.512 65.2159 154.855 63.7128 151.965C63.0891 150.766 63.476 149.828 64.2196 146.102C64.994 142.221 66.188 136.238 66.0797 132.274C65.8384 123.443 59.0623 121.987 60.0539 115.464C60.3189 113.719 61.0568 112.208 61.9875 110.917C70.3877 115.314 75.4181 126.242 73.6121 131.487Z" fill="url(#paint14_linear_27_565)"/>
<path d="M68.6133 120.113C70.111 117.074 71.3507 112.334 69.9144 105.019C56.4243 109.308 48.7759 121.51 50.6041 131.845C52.1111 140.364 59.6097 145.079 61.2864 146.08C61.7657 145.15 62.2451 144.22 62.7243 143.29C60.8854 140.772 58.8767 137.109 59.5025 133.173C60.3699 127.716 65.5811 126.265 68.6133 120.113Z" fill="url(#paint15_linear_27_565)"/>
<path d="M80.4517 98.229C80.4517 98.229 80.1651 100.61 79.3177 102.34C78.5519 103.904 75.0985 104.638 74.3867 104.942C73.6747 105.246 75.5599 106.466 77.5184 106.838C79.4768 107.211 85.1511 107.215 86.2274 106.518C87.3038 105.821 85.4662 105.727 84.0983 105.068C82.7306 104.41 82.1366 101.462 82.4856 100.176C82.8346 98.8903 80.4517 98.229 80.4517 98.229Z" fill="url(#paint16_linear_27_565)"/>
<path d="M83.6408 97.624C84.7459 96.6583 84.8983 96.5474 85.0378 96.1933C85.5975 94.772 84.6676 92.6837 83.2847 92.0729C83.2128 92.0412 82.2846 91.6428 81.8878 92.0442C81.5508 92.385 81.9663 92.9295 81.6961 93.6181C81.443 94.2628 80.8901 94.2663 79.8061 95.0488C78.913 95.693 78.3581 96.0936 78.19 96.7085C77.8434 97.9759 79.1929 99.9678 80.5182 100.028C80.9949 100.049 81.1436 99.8062 83.6408 97.624Z" fill="url(#paint17_linear_27_565)"/>
<path d="M80.6323 100.237C80.6323 100.237 81.6225 101.617 83.3141 101.33C84.8285 101.073 84.7227 97.4798 83.6794 96.8199C83.3314 96.5999 82.6713 96.5604 82.1566 96.7683C81.8526 96.8912 81.7595 97.0375 81.2591 97.2282C80.7975 97.4039 80.6587 97.3626 80.5274 97.5027C80.3631 97.6778 80.2677 98.0761 80.6624 99.09C80.3432 98.8116 79.9833 98.7288 79.7473 98.8755C79.7097 98.899 79.6118 98.984 79.5634 99.1026C79.388 99.5318 79.7925 100.017 80.6323 100.237Z" fill="url(#paint18_linear_27_565)"/>
<path d="M59.5062 147.083C59.5062 147.083 57.8871 147.556 57.715 149.999C57.9798 149.98 58.597 149.999 58.597 149.999C58.597 149.999 58.4827 148.222 59.6344 147.877C59.5418 147.67 59.5062 147.083 59.5062 147.083Z" fill="url(#paint19_linear_27_565)"/>
<path d="M65.4466 146.936C65.4063 147.381 65.3659 147.826 65.3255 148.271C64.5254 148.071 63.6504 147.839 62.7098 147.797C61.4867 147.741 60.3658 147.865 59.3674 148.079C59.323 148.023 59.2289 147.888 59.1855 147.668C59.1156 147.313 59.2327 147.019 59.2544 146.967C59.7629 146.804 60.3144 146.667 60.9053 146.573C62.5999 146.306 64.1311 146.571 65.4466 146.936Z" fill="url(#paint20_linear_27_565)"/>
<path d="M65.522 147.322C65.5197 147.161 65.5063 146.96 65.4466 146.936C65.3905 146.914 65.3149 147.06 65.2825 147.14C65.2689 147.174 65.2391 147.256 65.2205 147.515C65.1964 147.85 65.2244 148.014 65.2501 148.115C65.2656 148.176 65.2896 148.269 65.3255 148.271C65.3543 148.273 65.3794 148.215 65.4167 148.102C65.4669 147.95 65.5275 147.696 65.522 147.322Z" fill="url(#paint21_linear_27_565)"/>
<path d="M66.9967 150.133C66.6612 150.191 65.8456 150.363 65.8456 150.363C65.8456 150.363 66.3774 148.8 65.3747 148.079C65.3488 147.961 65.3224 147.773 65.354 147.548C65.3786 147.374 65.4297 147.234 65.4738 147.138C65.8995 147.358 66.8262 148.099 66.9967 150.133Z" fill="url(#paint22_linear_27_565)"/>
<path d="M73.9345 150.545C73.9345 150.545 73.8935 149.724 72.4946 149.724C72.2743 149.874 72.2632 150.545 72.2632 150.545H73.9345Z" fill="url(#paint23_linear_27_565)"/>
<path d="M75.1767 166.678L71.3483 168.841L69.0286 160.898L72.8507 150.248L73.9345 150.545L75.579 165.839C75.6163 166.186 75.4555 166.521 75.1767 166.678Z" fill="url(#paint24_linear_27_565)"/>
<path opacity="0.3" d="M69.0287 160.898L72.8508 150.248L73.9345 150.545C73.6677 151.485 73.5397 153.015 73.4795 153.867C73.2233 157.493 72.3724 158.502 72.7846 161.032C73.1273 163.135 73.8759 163.42 73.8104 164.836C73.7391 166.377 72.7759 167.667 71.6308 168.682L71.3483 168.842L69.0287 160.898Z" fill="url(#paint25_linear_27_565)"/>
<path d="M72.8508 150.248H51.8296L48.5201 167.129L71.3483 168.842L72.8508 150.248Z" fill="url(#paint26_linear_27_565)"/>
<g opacity="0.2">
<path d="M51.8296 150.248H58.9112C59.0416 150.594 59.241 151.073 59.532 151.614C62.699 157.507 69.9489 158.249 69.8179 159.217C69.6221 160.665 53.4777 158.61 53.0655 160.599C52.8665 161.559 56.2757 163.742 59.8382 164.568C64.1036 165.558 67.2382 164.311 69.3229 166.534C70.0288 167.287 70.3404 168.168 70.4922 168.765L48.5201 167.129L51.8296 150.248Z" fill="url(#paint27_linear_27_565)"/>
</g>
<path d="M72.4946 149.724C72.7315 149.724 73.0626 149.696 73.4227 149.894C73.4995 149.936 73.5674 149.982 73.627 150.029L73.4612 149.974C73.1945 149.901 72.8268 149.998 72.6894 150.248C72.5206 150.555 72.4599 151.265 72.423 151.617C72.318 152.618 71.6729 158.843 71.6729 158.843C71.6245 159.368 71.1975 159.766 70.6927 159.756L51.1388 158.806C50.9903 158.803 50.8436 158.76 50.721 158.673C50.4654 158.49 50.3499 158.172 50.4092 157.871L51.3998 150.456C51.4836 150.03 51.8427 149.724 52.2592 149.724H72.4946Z" fill="url(#paint28_linear_27_565)"/>
<path d="M72.2853 149.724C72.5221 149.724 72.803 149.694 73.1161 149.772C73.2005 149.793 73.3356 149.832 73.3951 149.879C73.3951 149.879 72.7314 149.731 72.4801 150.248C72.3267 150.564 72.2506 151.265 72.2137 151.617C72.1087 152.618 71.4635 158.843 71.4635 158.843C71.4152 159.368 70.9881 159.766 70.4834 159.756L50.7091 159.359C50.5606 159.356 50.4139 159.313 50.2914 159.225C50.0357 159.042 49.9202 158.725 49.9795 158.423L51.1904 150.456C51.2742 150.03 51.6333 149.724 52.0498 149.724L72.2853 149.724Z" fill="url(#paint29_linear_27_565)"/>
<path opacity="0.1" d="M49.9796 158.423L51.1905 150.456C51.2743 150.03 51.6334 149.724 52.0499 149.724H72.2853C72.5222 149.724 72.8031 149.694 73.1161 149.772C73.2006 149.793 73.3356 149.832 73.3952 149.879C73.3952 149.879 72.7314 149.731 72.4802 150.248C72.456 150.298 72.4339 150.358 72.4134 150.424C70.4917 150.495 68.57 150.444 66.6483 150.56C62.8494 150.783 59.0079 150.783 55.4225 152.21C54.2756 152.666 53.4893 154.306 53.8005 155.063C54.0248 155.61 54.7905 155.566 55.0577 156.283C55.3386 157.037 54.6649 157.549 54.9475 158.078C55.2436 158.633 56.1432 158.368 57.5994 158.764C58.4017 158.982 59.0171 159.304 59.4014 159.533L50.7092 159.359C50.5607 159.356 50.414 159.313 50.2914 159.225C50.0358 159.042 49.9203 158.725 49.9796 158.423Z" fill="url(#paint30_linear_27_565)"/>
<path d="M59.4429 160.842L61.9191 161.396L62.1806 161.416C62.4441 161.436 62.6708 161.224 62.6824 160.945L62.7911 158.309C62.8026 158.03 62.594 157.799 62.3299 157.795L62.067 157.791L59.5779 158.086C59.3401 158.082 59.1398 157.965 59.129 158.226L59.0271 160.699C59.0163 160.961 59.2058 160.824 59.4429 160.842Z" fill="url(#paint31_linear_27_565)"/>
<path d="M59.2547 161.207L61.9981 161.416C62.2616 161.436 62.4883 161.224 62.4998 160.946L62.6085 158.309C62.62 158.03 62.4115 157.799 62.1473 157.795L59.3969 157.757C59.1591 157.753 58.9572 157.965 58.9465 158.226L58.8446 160.699C58.8338 160.961 59.0175 161.189 59.2547 161.207Z" fill="url(#paint32_linear_27_565)"/>
<path d="M63.1243 145.037C63.1243 145.037 64.186 145.988 64.2888 146.663C64.2888 146.663 62.7911 146.643 62.7098 147.797C62.7098 147.797 64.0758 147.667 64.2888 148.022C64.5019 148.376 62.9352 149.125 61.6798 148.75C60.4243 148.376 60.5673 145.785 60.909 145.037C61.2508 144.289 63.1243 145.037 63.1243 145.037Z" fill="url(#paint33_linear_27_565)"/>
<path d="M178.39 214.868C178.489 214.319 180.26 213.823 181.137 214.557C181.573 214.922 181.873 215.662 181.621 215.995C181.529 216.117 181.904 216.331 181.545 216.335C180.352 216.349 178.291 215.413 178.39 214.868Z" fill="url(#paint34_linear_27_565)"/>
<path d="M180.326 214.87L182.164 214.962C181.527 213.805 182.293 210.657 182.293 210.657L180.309 210.716C180.309 210.716 180.358 211.629 180.478 212.987C180.52 213.451 180.443 214.151 180.326 214.87Z" fill="url(#paint35_linear_27_565)"/>
<path d="M180.085 214.843C180.085 214.843 182.278 214.338 182.515 214.773C182.752 215.208 182.936 216.372 181.545 216.335C180.154 216.297 179.961 215.212 180.085 214.843Z" fill="url(#paint36_linear_27_565)"/>
<path d="M155.134 218.845C155.309 218.316 157.132 218.073 157.898 218.923C158.278 219.345 158.471 220.119 158.175 220.414C158.068 220.522 158.409 220.786 158.052 220.739C156.869 220.586 154.96 219.371 155.134 218.845Z" fill="url(#paint37_linear_27_565)"/>
<path d="M157.288 219.355L159.093 219.709C158.63 218.473 159.838 215.468 159.838 215.468L157.867 215.24C157.867 215.24 157.784 216.152 157.709 217.512C157.683 217.978 157.507 218.66 157.288 219.355Z" fill="url(#paint38_linear_27_565)"/>
<path d="M156.816 219.058C156.816 219.058 159.058 218.865 159.232 219.329C159.406 219.792 159.425 220.971 158.052 220.739C156.68 220.508 156.642 219.406 156.816 219.058Z" fill="url(#paint39_linear_27_565)"/>
<path d="M173.399 155.821C173.891 164.227 174.579 172.968 175.506 182.014C176.58 192.493 177.885 202.507 179.349 212.023C181.153 212.642 182.82 212.023 182.82 212.023C182.82 212.023 184.929 208.569 186.538 199.388C187.571 193.497 187.642 193.571 187.654 192.543C187.712 187.359 185.893 185.858 185.547 181.224C185.226 176.936 186.59 175.652 187.406 170.826C188.033 167.114 188.268 161.705 186.29 154.636C181.993 155.031 177.696 155.426 173.399 155.821Z" fill="url(#paint40_linear_27_565)"/>
<path opacity="0.3" d="M173.399 155.821C173.891 164.227 174.579 172.968 175.506 182.014C176.58 192.493 177.885 202.507 179.349 212.023C181.152 212.642 182.819 212.023 182.819 212.023C182.797 211.142 182.735 209.815 182.551 208.212C182.063 203.959 181.286 202.749 181.206 200.139C181.104 196.801 182.312 196.698 182.551 193.412C182.922 188.317 180.124 187.109 179.86 182.648C179.581 177.934 182.532 176.383 184.794 170.539C186.128 167.088 187.313 161.908 186.29 154.636C181.993 155.031 177.696 155.426 173.399 155.821Z" fill="url(#paint41_linear_27_565)"/>
<path d="M164.35 155.558C161.88 163.877 159.487 174.212 158.152 186.225C156.857 197.885 156.881 208.239 157.409 216.762C158.194 216.981 158.979 217.2 159.764 217.42C164.329 212.644 165.958 208.254 166.581 205.047C167.503 200.305 166.114 198.696 167.325 193.333C167.604 192.099 167.995 190.774 172.531 181.882C176.86 173.395 177.748 172.162 178.481 169.115C179.528 164.764 179.252 160.906 178.853 158.322C174.019 157.4 169.184 156.479 164.35 155.558Z" fill="url(#paint42_linear_27_565)"/>
<path d="M127.281 129.709L125.521 128.472L122.944 127.848C122.593 127.763 122.268 127.594 121.996 127.355C121.996 127.355 121.033 124.85 121.139 124.448C121.245 124.046 124.53 125.374 124.556 125.768C124.581 126.161 126.569 127.35 126.559 127.713L127.668 128.564L127.281 129.709Z" fill="url(#paint43_linear_27_565)"/>
<path d="M152.574 118.1C153.731 115.272 156.214 113.645 157.502 112.801C160.548 110.805 162.498 111.17 169.494 110.105C178.818 108.687 179.934 107.342 183.067 108.432C187.184 109.863 189.334 113.599 190.319 115.311C195.286 123.943 189.479 128.331 190.97 145.525C191.579 152.548 193.14 158.65 189.389 162.259C188.599 163.019 187.716 163.417 185.949 164.212C178.943 167.364 172.661 166.821 168.843 166.443C164.643 166.027 162.52 165.789 161.406 164.305C159.627 161.934 161.458 158.921 161.778 153.706C162.008 149.963 161.156 146.996 159.454 141.063C155.496 127.27 150.358 123.52 152.574 118.1Z" fill="url(#paint44_linear_27_565)"/>
<path d="M168.18 105.017C167.756 103.505 168.498 102.104 168.662 101.803C169.346 100.539 169.522 100.367 169.849 100.148L170.303 99.8676C170.303 99.8676 170.329 99.857 170.357 99.8472C170.648 99.7434 171.642 99.7132 171.843 99.7563C172.486 99.8935 173.17 102.513 172.975 106.215C173.002 106.357 173.027 106.499 173.052 106.642C173.153 107.227 173.234 107.8 173.296 108.361C173.355 108.897 174.116 108.884 174.654 108.85C176.839 108.711 177.908 108.897 178.001 109.222C178.175 109.832 175.583 111.825 172.384 112.273C168.089 112.305 164.596 111.848 164.972 111.172C165.138 110.872 168.466 110.002 169.401 109.141C170.258 108.351 170.188 107.537 170.259 106.954C169.999 106.819 168.493 106.131 168.18 105.017Z" fill="url(#paint45_linear_27_565)"/>
<path d="M168.97 98.8157C168.974 99.9628 169.515 101.188 169.79 101.385C169.826 101.41 170.026 101.568 170.206 101.839C170.23 101.875 170.252 101.918 170.271 101.974C170.522 102.697 169.373 103.548 169.595 103.872C169.756 104.106 170.537 103.792 170.63 103.995C170.717 104.186 170.068 104.581 170.167 104.81C170.242 104.982 170.642 104.824 170.894 105.089C171.02 105.22 170.983 105.325 171.116 105.727C171.191 105.955 171.296 106.204 171.378 106.342C171.774 107.016 172.897 107.262 173.113 106.992C173.173 106.917 173.122 106.854 173.183 106.602C173.183 106.602 173.24 106.368 173.403 106.098C173.635 105.712 174.196 105.436 174.761 105.029C175.809 104.274 176.094 103.631 176.179 103.414C176.21 103.337 176.229 103.278 176.242 103.236C176.515 102.391 176.516 101.149 176.136 100.385C175.499 99.1054 174.062 99.7129 172.887 98.4451C171.53 96.9824 172.338 94.9832 171.602 94.7624C170.79 94.5189 168.963 96.6945 168.97 98.8157Z" fill="#26264F"/>
<path d="M170.007 103.602C170.288 103.216 170.782 103.579 170.785 104.078C170.788 104.578 170.304 105.098 169.834 104.999C169.364 104.901 169.629 104.122 170.007 103.602Z" fill="url(#paint46_linear_27_565)"/>
<path d="M170.235 102.766L169.583 103.614C169.583 103.614 168.88 104.654 168.469 104.084C168.134 103.619 168.047 103.629 168.026 103.649C168.022 103.652 168.021 103.658 168.02 103.658C168.014 103.656 168.069 103.426 168.119 103.224C167.945 103.473 167.706 103.878 167.561 104.422C167.42 104.95 167.269 105.516 167.568 106.059C167.585 106.091 167.913 106.669 168.527 106.809C168.527 106.809 168.768 106.864 169.787 106.685C169.787 106.685 168.673 105.877 168.656 105.685C168.61 105.163 169.334 104.881 169.871 103.81C170.079 103.398 170.181 103.023 170.235 102.766Z" fill="#26264F"/>
<path opacity="0.1" d="M172.469 161.516C171.233 159.055 174.262 155.784 172.283 152.033C170.603 148.847 167.551 149.561 166.147 146.641C164.452 143.114 168.139 140.479 168.007 135.113C167.849 128.699 162.33 122.279 159.082 122.842C156.981 123.206 156.711 126.341 155.232 129.773C156.54 132.642 158.069 136.236 159.454 141.063C161.156 146.996 162.007 149.963 161.778 153.707C161.458 158.921 159.627 161.934 161.406 164.305C162.52 165.789 164.643 166.027 168.843 166.443C172.661 166.821 178.943 167.365 185.949 164.212C186.836 163.813 187.5 163.514 188.042 163.219C177.095 164.863 173.449 163.467 172.469 161.516Z" fill="url(#paint47_linear_27_565)"/>
<path d="M126.227 129.716C126.676 129.135 127.125 128.554 127.574 127.973C138.869 131.35 143.878 129.724 146.33 127.395C147.495 126.29 148.575 124.558 149.878 122.47C152.784 117.813 153.553 114.743 156.758 113.359C157.569 113.009 158.13 112.776 158.803 112.941C161.902 113.698 162.926 121.773 162.057 127.815C161.577 131.148 160.485 137.884 155.131 141.063C147.682 145.486 137.815 139.502 134.995 137.792C130.689 135.18 127.886 131.971 126.227 129.716Z" fill="url(#paint48_linear_27_565)"/>
</g>
<defs>
<linearGradient id="paint0_linear_27_565" x1="199.691" y1="83.507" x2="134.023" y2="178.434" gradientUnits="userSpaceOnUse">
<stop stop-color="#FFC444"/>
<stop offset="0.9964" stop-color="#F36F56"/>
</linearGradient>
<linearGradient id="paint1_linear_27_565" x1="154.313" y1="28.4857" x2="138.263" y2="140.804" gradientUnits="userSpaceOnUse">
<stop stop-color="#AA80F9"/>
<stop offset="0.9964" stop-color="#6165D7"/>
</linearGradient>
<linearGradient id="paint2_linear_27_565" x1="181.004" y1="49.4293" x2="137.455" y2="144.586" gradientUnits="userSpaceOnUse">
<stop stop-color="#FF9085"/>
<stop offset="1" stop-color="#FB6FBB"/>
</linearGradient>
<linearGradient id="paint3_linear_27_565" x1="15.2668" y1="139.346" x2="202.396" y2="175.297" gradientUnits="userSpaceOnUse">
<stop stop-color="#FFC444"/>
<stop offset="0.9964" stop-color="#F36F56"/>
</linearGradient>
<linearGradient id="paint4_linear_27_565" x1="89.3709" y1="188.609" x2="79.4791" y2="224.306" gradientUnits="userSpaceOnUse">
<stop stop-color="#311944"/>
<stop offset="1" stop-color="#893976"/>
</linearGradient>
<linearGradient id="paint5_linear_27_565" x1="80.6797" y1="213.878" x2="80.5367" y2="201.862" gradientUnits="userSpaceOnUse">
<stop stop-color="#FFC444"/>
<stop offset="0.9964" stop-color="#F36F56"/>
</linearGradient>
<linearGradient id="paint6_linear_27_565" x1="77.6081" y1="185.173" x2="67.7162" y2="220.87" gradientUnits="userSpaceOnUse">
<stop stop-color="#311944"/>
<stop offset="1" stop-color="#893976"/>
</linearGradient>
<linearGradient id="paint7_linear_27_565" x1="67.3765" y1="214.044" x2="67.2335" y2="202.028" gradientUnits="userSpaceOnUse">
<stop stop-color="#FFC444"/>
<stop offset="0.9964" stop-color="#F36F56"/>
</linearGradient>
<linearGradient id="paint8_linear_27_565" x1="87.3074" y1="175.229" x2="75.059" y2="175.229" gradientUnits="userSpaceOnUse">
<stop stop-color="#444B8C"/>
<stop offset="0.9964" stop-color="#26264F"/>
</linearGradient>
<linearGradient id="paint9_linear_27_565" x1="87.3073" y1="175.229" x2="75.059" y2="175.229" gradientUnits="userSpaceOnUse">
<stop stop-color="#444B8C"/>
<stop offset="0.9964" stop-color="#26264F"/>
</linearGradient>
<linearGradient id="paint10_linear_27_565" x1="77.1403" y1="221.083" x2="72.0271" y2="179.113" gradientUnits="userSpaceOnUse">
<stop stop-color="#444B8C"/>
<stop offset="0.9964" stop-color="#26264F"/>
</linearGradient>
<linearGradient id="paint11_linear_27_565" x1="123.804" y1="123.391" x2="112.202" y2="135.2" gradientUnits="userSpaceOnUse">
<stop stop-color="#FFC444"/>
<stop offset="0.9964" stop-color="#F36F56"/>
</linearGradient>
<linearGradient id="paint12_linear_27_565" x1="67.9574" y1="88.1736" x2="123.983" y2="145.453" gradientUnits="userSpaceOnUse">
<stop offset="0.0036" stop-color="#6165D7"/>
<stop offset="1" stop-color="#AA80F9"/>
</linearGradient>
<linearGradient id="paint13_linear_27_565" x1="41.9767" y1="178.807" x2="84.8111" y2="117.312" gradientUnits="userSpaceOnUse">
<stop offset="0.0036" stop-color="#6165D7"/>
<stop offset="1" stop-color="#AA80F9"/>
</linearGradient>
<linearGradient id="paint14_linear_27_565" x1="41.7398" y1="179.156" x2="85.1045" y2="116.9" gradientUnits="userSpaceOnUse">
<stop stop-color="#AA80F9"/>
<stop offset="0.9964" stop-color="#6165D7"/>
</linearGradient>
<linearGradient id="paint15_linear_27_565" x1="30.3225" y1="170.715" x2="73.3783" y2="108.902" gradientUnits="userSpaceOnUse">
<stop offset="0.0036" stop-color="#6165D7"/>
<stop offset="1" stop-color="#AA80F9"/>
</linearGradient>
<linearGradient id="paint16_linear_27_565" x1="83.4528" y1="109.89" x2="76.5848" y2="99.787" gradientUnits="userSpaceOnUse">
<stop stop-color="#FFC444"/>
<stop offset="0.9964" stop-color="#F36F56"/>
</linearGradient>
<linearGradient id="paint17_linear_27_565" x1="77.8501" y1="105.999" x2="83.0015" y2="92.9154" gradientUnits="userSpaceOnUse">
<stop stop-color="#444B8C"/>
<stop offset="0.9964" stop-color="#3E4177"/>
</linearGradient>
<linearGradient id="paint18_linear_27_565" x1="88.4223" y1="102.083" x2="77.6975" y2="96.2413" gradientUnits="userSpaceOnUse">
<stop stop-color="#FFC444"/>
<stop offset="0.9964" stop-color="#F36F56"/>
</linearGradient>
<linearGradient id="paint19_linear_27_565" x1="59.1065" y1="155.367" x2="58.5001" y2="146.339" gradientUnits="userSpaceOnUse">
<stop stop-color="#FFC444"/>
<stop offset="0.9964" stop-color="#F36F56"/>
</linearGradient>
<linearGradient id="paint20_linear_27_565" x1="62.6465" y1="152.292" x2="62.2154" y2="145.873" gradientUnits="userSpaceOnUse">
<stop offset="0.1" stop-color="#311944"/>
<stop offset="0.267" stop-color="#371B47"/>
<stop offset="0.4803" stop-color="#462150"/>
<stop offset="0.7186" stop-color="#612A5F"/>
<stop offset="0.9736" stop-color="#853774"/>
<stop offset="1" stop-color="#893976"/>
</linearGradient>
<linearGradient id="paint21_linear_27_565" x1="65.2333" y1="147.68" x2="60.4067" y2="150.268" gradientUnits="userSpaceOnUse">
<stop offset="0.1" stop-color="#311944"/>
<stop offset="0.267" stop-color="#371B47"/>
<stop offset="0.4803" stop-color="#462150"/>
<stop offset="0.7186" stop-color="#612A5F"/>
<stop offset="0.9736" stop-color="#853774"/>
<stop offset="1" stop-color="#893976"/>
</linearGradient>
<linearGradient id="paint22_linear_27_565" x1="66.671" y1="156.456" x2="65.9807" y2="146.18" gradientUnits="userSpaceOnUse">
<stop stop-color="#FFC444"/>
<stop offset="0.9964" stop-color="#F36F56"/>
</linearGradient>
<linearGradient id="paint23_linear_27_565" x1="72.5367" y1="155.643" x2="75.2208" y2="131.108" gradientUnits="userSpaceOnUse">
<stop offset="0.1" stop-color="#311944"/>
<stop offset="0.6853" stop-color="#6D2F66"/>
<stop offset="1" stop-color="#893976"/>
</linearGradient>
<linearGradient id="paint24_linear_27_565" x1="60.6234" y1="165.935" x2="78.6873" y2="155.877" gradientUnits="userSpaceOnUse">
<stop stop-color="#311944"/>
<stop offset="1" stop-color="#893976"/>
</linearGradient>
<linearGradient id="paint25_linear_27_565" x1="76.9064" y1="152.03" x2="71.507" y2="161.085" gradientUnits="userSpaceOnUse">
<stop stop-color="#311944"/>
<stop offset="1" stop-color="#893976"/>
</linearGradient>
<linearGradient id="paint26_linear_27_565" x1="61.9875" y1="141.214" x2="60.0271" y2="167.525" gradientUnits="userSpaceOnUse">
<stop offset="0.1" stop-color="#311944"/>
<stop offset="0.6853" stop-color="#6D2F66"/>
<stop offset="1" stop-color="#893976"/>
</linearGradient>
<linearGradient id="paint27_linear_27_565" x1="66.014" y1="155.767" x2="50.1427" y2="167.996" gradientUnits="userSpaceOnUse">
<stop stop-color="#311944"/>
<stop offset="1" stop-color="#893976"/>
</linearGradient>
<linearGradient id="paint28_linear_27_565" x1="70.122" y1="154.678" x2="63.3773" y2="154.416" gradientUnits="userSpaceOnUse">
<stop offset="0.1" stop-color="#311944"/>
<stop offset="0.6853" stop-color="#6D2F66"/>
<stop offset="1" stop-color="#893976"/>
</linearGradient>
<linearGradient id="paint29_linear_27_565" x1="59.7788" y1="175.574" x2="61.9373" y2="151.318" gradientUnits="userSpaceOnUse">
<stop offset="0.1" stop-color="#311944"/>
<stop offset="0.267" stop-color="#371B47"/>
<stop offset="0.4803" stop-color="#462150"/>
<stop offset="0.7186" stop-color="#612A5F"/>
<stop offset="0.9736" stop-color="#853774"/>
<stop offset="1" stop-color="#893976"/>
</linearGradient>
<linearGradient id="paint30_linear_27_565" x1="58.7182" y1="181.279" x2="62.3898" y2="147.717" gradientUnits="userSpaceOnUse">
<stop stop-color="#311944"/>
<stop offset="1" stop-color="#893976"/>
</linearGradient>
<linearGradient id="paint31_linear_27_565" x1="53.2328" y1="163.68" x2="64.9408" y2="157.56" gradientUnits="userSpaceOnUse">
<stop stop-color="#FFC444"/>
<stop offset="0.9964" stop-color="#F36F56"/>
</linearGradient>
<linearGradient id="paint32_linear_27_565" x1="63.7517" y1="158.501" x2="51.7251" y2="162.804" gradientUnits="userSpaceOnUse">
<stop stop-color="#FFC444"/>
<stop offset="0.9964" stop-color="#F36F56"/>
</linearGradient>
<linearGradient id="paint33_linear_27_565" x1="63.648" y1="145.648" x2="59.1009" y2="149.762" gradientUnits="userSpaceOnUse">
<stop stop-color="#FFC444"/>
<stop offset="0.9964" stop-color="#F36F56"/>
</linearGradient>
<linearGradient id="paint34_linear_27_565" x1="177.406" y1="213.285" x2="181.306" y2="215.876" gradientUnits="userSpaceOnUse">
<stop stop-color="#444B8C"/>
<stop offset="0.9964" stop-color="#26264F"/>
</linearGradient>
<linearGradient id="paint35_linear_27_565" x1="181.085" y1="215.865" x2="181.389" y2="209.778" gradientUnits="userSpaceOnUse">
<stop stop-color="#FFC444"/>
<stop offset="0.9964" stop-color="#F36F56"/>
</linearGradient>
<linearGradient id="paint36_linear_27_565" x1="177.699" y1="212.844" x2="181.599" y2="215.436" gradientUnits="userSpaceOnUse">
<stop stop-color="#444B8C"/>
<stop offset="0.9964" stop-color="#26264F"/>
</linearGradient>
<linearGradient id="paint37_linear_27_565" x1="154.382" y1="217.14" x2="157.88" y2="220.252" gradientUnits="userSpaceOnUse">
<stop stop-color="#444B8C"/>
<stop offset="0.9964" stop-color="#26264F"/>
</linearGradient>
<linearGradient id="paint38_linear_27_565" x1="157.896" y1="220.448" x2="159.07" y2="214.468" gradientUnits="userSpaceOnUse">
<stop stop-color="#FFC444"/>
<stop offset="0.9964" stop-color="#F36F56"/>
</linearGradient>
<linearGradient id="paint39_linear_27_565" x1="154.733" y1="216.745" x2="158.232" y2="219.857" gradientUnits="userSpaceOnUse">
<stop stop-color="#444B8C"/>
<stop offset="0.9964" stop-color="#26264F"/>
</linearGradient>
<linearGradient id="paint40_linear_27_565" x1="154.423" y1="149.952" x2="195.071" y2="197.731" gradientUnits="userSpaceOnUse">
<stop stop-color="#444B8C"/>
<stop offset="0.9964" stop-color="#26264F"/>
</linearGradient>
<linearGradient id="paint41_linear_27_565" x1="173.399" y1="183.467" x2="186.677" y2="183.467" gradientUnits="userSpaceOnUse">
<stop stop-color="#311944"/>
<stop offset="1" stop-color="#6B3976"/>
</linearGradient>
<linearGradient id="paint42_linear_27_565" x1="143.823" y1="158.97" x2="184.471" y2="206.749" gradientUnits="userSpaceOnUse">
<stop stop-color="#444B8C"/>
<stop offset="0.9964" stop-color="#26264F"/>
</linearGradient>
<linearGradient id="paint43_linear_27_565" x1="122.411" y1="124.669" x2="128.81" y2="133.365" gradientUnits="userSpaceOnUse">
<stop stop-color="#FFC444"/>
<stop offset="0.9964" stop-color="#F36F56"/>
</linearGradient>
<linearGradient id="paint44_linear_27_565" x1="202.563" y1="191.985" x2="164.767" y2="118.176" gradientUnits="userSpaceOnUse">
<stop stop-color="#311944"/>
<stop offset="1" stop-color="#893976"/>
</linearGradient>
<linearGradient id="paint45_linear_27_565" x1="168.136" y1="102.609" x2="178.043" y2="125.336" gradientUnits="userSpaceOnUse">
<stop stop-color="#FFC444"/>
<stop offset="0.9964" stop-color="#F36F56"/>
</linearGradient>
<linearGradient id="paint46_linear_27_565" x1="167.396" y1="97.9421" x2="178.457" y2="123.318" gradientUnits="userSpaceOnUse">
<stop stop-color="#FFC444"/>
<stop offset="0.9964" stop-color="#F36F56"/>
</linearGradient>
<linearGradient id="paint47_linear_27_565" x1="151.177" y1="133.908" x2="175.906" y2="157.521" gradientUnits="userSpaceOnUse">
<stop stop-color="#311944"/>
<stop offset="1" stop-color="#893976"/>
</linearGradient>
<linearGradient id="paint48_linear_27_565" x1="184.436" y1="202.196" x2="146.181" y2="127.49" gradientUnits="userSpaceOnUse">
<stop stop-color="#311944"/>
<stop offset="1" stop-color="#893976"/>
</linearGradient>
<clipPath id="clip0_27_565">
<rect width="250" height="250" rx="48" fill="white"/>
</clipPath>
</defs>
</svg>
