<svg width="250" height="250" viewBox="0 0 250 250" fill="none" xmlns="http://www.w3.org/2000/svg">
<g clip-path="url(#clip0_27_233)">
<path d="M250 0H0V250H250V0Z" fill="white"/>
<path d="M82.9565 87.6277C81.052 87.6277 79.284 88.2107 77.82 89.2072C77.1545 89.5887 76.579 90.0752 76.1455 90.6742C76.0645 90.7652 75.9845 90.8567 75.907 90.9507C74.072 85.5642 67.951 82.0177 62.3655 83.1167C56.7945 84.2132 52.2325 90.1547 52.5485 95.8237H73.863H90.5865H92.051C91.577 91.2197 87.686 87.6277 82.9565 87.6277Z" fill="#F4C6A6"/>
<path d="M228.234 183.22C225.886 183.22 223.706 183.939 221.901 185.167C221.081 185.638 220.371 186.238 219.836 186.976C219.736 187.088 219.638 187.202 219.542 187.317C217.28 180.677 209.733 176.304 202.846 177.659C195.978 179.011 190.354 186.336 190.743 193.326H217.022H237.64H239.445C238.862 187.648 234.065 183.22 228.234 183.22Z" fill="#F4C6A6"/>
<path d="M61.6895 138.871L58.763 158.488L78.576 159.4L62.6355 171.202L76 185.857L56.383 182.931L55.4705 202.744L43.6685 186.803L29.0135 200.168L31.94 180.551L12.127 179.639L28.0675 167.837L14.703 153.182L34.32 156.108L35.2325 136.295L47.034 152.236L61.6895 138.871Z" fill="#9CE5D6"/>
<path d="M53.263 168.709C47.655 168.69 42.2915 165.218 39.7465 160.282C38.4395 157.747 37.599 154.632 35.0445 153.324C32.3775 151.958 29.054 153.234 26.152 152.464C22.9385 151.612 20.848 148.262 20.7325 144.97C20.6185 141.722 21.773 137.68 19.107 135.789C18.108 135.081 16.824 134.94 15.642 134.604C11.816 133.52 8.7945 129.987 8.4915 126.058C8.189 122.13 10.7225 118.103 14.4725 116.764C18.223 115.425 22.846 117.007 24.8285 120.419C26.061 122.54 26.447 125.335 28.5265 126.66C31.033 128.256 34.332 126.73 37.31 126.921C40.448 127.123 43.305 129.528 44.007 132.56C45.7475 140.075 47.284 138.303 53.9425 139.656C58.004 140.481 63.246 143.007 65.392 146.676C70.8025 155.924 64.345 168.747 53.263 168.709Z" fill="#898429"/>
<path d="M73.8165 174.691C73.13 173.306 24.1515 130.878 24.1515 130.878" stroke="#2D1A14" stroke-width="2.3448" stroke-miterlimit="10" stroke-linecap="round" stroke-linejoin="round"/>
<path d="M34.4795 127.795L41.461 145.865" stroke="#2D1A14" stroke-width="2.3448" stroke-miterlimit="10" stroke-linecap="round" stroke-linejoin="round"/>
<path d="M51.0545 154.853C49.632 154.375 36.946 155.094 36.946 155.094" stroke="#2D1A14" stroke-width="2.3448" stroke-miterlimit="10" stroke-linecap="round" stroke-linejoin="round"/>
<path d="M55.3405 87.5145C49.3485 85.9075 44.595 80.677 43.27 74.6775C42.5895 71.5965 42.5715 68.0285 40.21 65.9065C37.744 63.691 33.8295 64.1145 30.9435 62.4705C27.748 60.65 26.4605 56.476 27.268 52.923C28.065 49.4175 30.4435 45.421 28.127 42.645C27.259 41.6045 25.926 41.0905 24.7565 40.3975C20.9715 38.155 18.7395 33.522 19.5275 29.235C20.3155 24.948 24.164 21.358 28.5535 20.9875C32.943 20.6165 37.44 23.6165 38.5945 27.826C39.3125 30.4435 38.934 33.542 40.7835 35.547C43.0125 37.9635 46.972 37.264 50.103 38.3115C53.4015 39.4155 55.7765 42.796 55.6695 46.236C55.4045 54.765 57.549 53.3055 64.2875 56.636C68.3975 58.6675 73.2885 62.8525 74.5455 67.383C77.715 78.804 67.1815 90.6905 55.3405 87.5145Z" fill="#66601D"/>
<path d="M75.6285 99.7266C75.286 98.0511 34.9115 38.8201 34.9115 38.8201" stroke="#2D1A14" stroke-width="2.5938" stroke-miterlimit="10" stroke-linecap="round" stroke-linejoin="round"/>
<path d="M46.829 38.4451L49.1825 59.7451" stroke="#2D1A14" stroke-width="2.5938" stroke-miterlimit="10" stroke-linecap="round" stroke-linejoin="round"/>
<path d="M56.899 72.0716C55.513 71.1581 41.743 68.3376 41.743 68.3376" stroke="#2D1A14" stroke-width="2.5938" stroke-miterlimit="10" stroke-linecap="round" stroke-linejoin="round"/>
<path d="M126.269 144.127C127.692 138.702 132.397 134.379 137.813 133.152C140.595 132.522 143.82 132.488 145.727 130.343C147.717 128.103 147.315 124.566 148.787 121.949C150.417 119.052 154.184 117.867 157.4 118.58C160.572 119.283 164.197 121.413 166.695 119.305C167.631 118.516 168.09 117.308 168.71 116.247C170.718 112.815 174.895 110.774 178.774 111.465C182.653 112.156 185.918 115.618 186.274 119.584C186.631 123.55 183.942 127.63 180.142 128.694C177.779 129.356 174.976 129.03 173.173 130.711C171 132.738 171.652 136.314 170.72 139.149C169.739 142.136 166.695 144.3 163.584 144.22C155.873 144.023 157.203 145.954 154.226 152.061C152.41 155.787 148.651 160.229 144.561 161.387C134.253 164.309 123.456 154.846 126.269 144.127Z" fill="#898429"/>
<path d="M115.33 162.526C116.843 162.209 170.186 125.419 170.186 125.419" stroke="#2D1A14" stroke-width="2.3448" stroke-miterlimit="10" stroke-linecap="round" stroke-linejoin="round"/>
<path d="M170.583 136.19L151.341 138.423" stroke="#2D1A14" stroke-width="2.3448" stroke-miterlimit="10" stroke-linecap="round" stroke-linejoin="round"/>
<path d="M140.236 145.459C141.055 144.201 143.537 131.74 143.537 131.74" stroke="#2D1A14" stroke-width="2.3448" stroke-miterlimit="10" stroke-linecap="round" stroke-linejoin="round"/>
<path d="M146.2 209.925C153.048 207.889 156.962 200.736 154.944 193.947C152.925 187.159 145.738 183.307 138.891 185.343C132.044 187.379 128.129 194.532 130.147 201.32C132.166 208.109 139.353 211.961 146.2 209.925Z" fill="#F9A813"/>
<path d="M154.015 203.075C157.534 197.45 155.826 190.037 150.2 186.518C144.575 182.999 137.162 184.707 133.643 190.333C130.124 195.958 131.832 203.371 137.458 206.89C143.083 210.409 150.496 208.701 154.015 203.075Z" fill="#FFC05A"/>
<path d="M129.596 197.828L131.921 197.137" stroke="#BC5406" stroke-width="0.4678" stroke-miterlimit="10"/>
<path d="M151.095 210.806L145.661 192.531L146.906 192.161L152.339 210.436L151.095 210.806ZM150.934 208.484C149.897 208.792 148.859 208.932 147.821 208.902C146.778 208.859 145.91 208.666 145.215 208.323L145.483 206.592C146.137 206.892 146.909 207.071 147.802 207.13C148.694 207.189 149.574 207.09 150.442 206.832C151.233 206.597 151.848 206.315 152.286 205.987C152.725 205.659 153.014 205.305 153.155 204.925C153.292 204.531 153.301 204.134 153.182 203.732C153.043 203.265 152.775 202.936 152.38 202.743C151.997 202.547 151.534 202.437 150.991 202.415C150.458 202.376 149.88 202.379 149.258 202.423C148.637 202.466 148.003 202.493 147.356 202.502C146.719 202.493 146.114 202.427 145.54 202.301C144.98 202.171 144.483 201.924 144.05 201.559C143.613 201.181 143.287 200.629 143.071 199.903C142.863 199.203 142.854 198.508 143.043 197.817C143.242 197.109 143.671 196.466 144.332 195.889C145.002 195.295 145.933 194.82 147.125 194.466C147.916 194.231 148.731 194.101 149.57 194.077C150.41 194.054 151.172 194.151 151.858 194.371L151.679 196.117C150.98 195.901 150.282 195.806 149.583 195.83C148.881 195.841 148.226 195.937 147.617 196.118C146.852 196.346 146.252 196.63 145.818 196.971C145.383 197.312 145.097 197.679 144.96 198.072C144.836 198.462 144.834 198.857 144.953 199.259C145.096 199.739 145.359 200.077 145.742 200.273C146.137 200.466 146.6 200.575 147.13 200.601C147.672 200.623 148.257 200.619 148.882 200.588C149.504 200.544 150.132 200.52 150.765 200.515C151.411 200.506 152.015 200.566 152.575 200.696C153.148 200.822 153.652 201.067 154.085 201.432C154.518 201.797 154.84 202.336 155.052 203.049C155.256 203.736 155.259 204.433 155.061 205.141C154.858 205.836 154.416 206.483 153.733 207.081C153.059 207.662 152.126 208.13 150.934 208.484Z" fill="#BC5406"/>
<path d="M151.095 210.806L150.791 210.896L150.882 211.201L151.186 211.11L151.095 210.806ZM145.661 192.531L145.571 192.227L145.267 192.318L145.357 192.622L145.661 192.531ZM146.906 192.161L147.21 192.071L147.119 191.767L146.815 191.857L146.906 192.161ZM152.339 210.436L152.43 210.74L152.734 210.65L152.644 210.346L152.339 210.436ZM147.821 208.902L147.808 209.219L147.811 209.219L147.821 208.902ZM145.215 208.323L144.901 208.274L144.866 208.504L145.074 208.607L145.215 208.323ZM145.483 206.592L145.615 206.304L145.234 206.129L145.17 206.544L145.483 206.592ZM147.802 207.13L147.781 207.447L147.802 207.13ZM152.286 205.987L152.476 206.241L152.286 205.987ZM153.155 204.925L153.453 205.035L153.455 205.029L153.155 204.925ZM152.38 202.743L152.235 203.025L152.241 203.028L152.38 202.743ZM150.991 202.415L150.968 202.732L150.979 202.732L150.991 202.415ZM149.258 202.423L149.236 202.106L149.258 202.423ZM147.356 202.502L147.352 202.819L147.361 202.819L147.356 202.502ZM145.54 202.301L145.469 202.61L145.472 202.611L145.54 202.301ZM144.05 201.559L143.843 201.799L143.846 201.802L144.05 201.559ZM143.043 197.817L142.738 197.731L142.737 197.733L143.043 197.817ZM144.332 195.889L144.541 196.128L144.543 196.126L144.332 195.889ZM151.858 194.371L152.174 194.403L152.2 194.147L151.955 194.068L151.858 194.371ZM151.679 196.117L151.586 196.42L151.955 196.534L151.994 196.149L151.679 196.117ZM149.583 195.83L149.589 196.147L149.594 196.147L149.583 195.83ZM144.96 198.072L144.66 197.968L144.658 197.976L144.96 198.072ZM145.742 200.273L145.597 200.555L145.603 200.558L145.742 200.273ZM147.13 200.601L147.114 200.918L147.117 200.918L147.13 200.601ZM148.882 200.588L148.898 200.905L148.904 200.904L148.882 200.588ZM150.765 200.515L150.767 200.832L150.769 200.832L150.765 200.515ZM152.575 200.696L152.504 201.005L152.507 201.006L152.575 200.696ZM154.085 201.432L154.289 201.189L154.085 201.432ZM155.061 205.141L155.365 205.23L155.366 205.227L155.061 205.141ZM153.733 207.081L153.94 207.321L153.942 207.319L153.733 207.081ZM151.095 210.806L151.399 210.716L145.965 192.441L145.661 192.531L145.357 192.622L150.791 210.896L151.095 210.806ZM145.661 192.531L145.752 192.835L146.996 192.465L146.906 192.161L146.815 191.857L145.571 192.227L145.661 192.531ZM146.906 192.161L146.602 192.252L152.035 210.527L152.339 210.436L152.644 210.346L147.21 192.071L146.906 192.161ZM152.339 210.436L152.249 210.132L151.005 210.502L151.095 210.806L151.186 211.11L152.43 210.74L152.339 210.436ZM150.934 208.484L150.843 208.18C149.837 208.479 148.833 208.614 147.83 208.585L147.821 208.902L147.811 209.219C148.885 209.25 149.956 209.106 151.024 208.788L150.934 208.484ZM147.821 208.902L147.834 208.585C146.821 208.544 145.999 208.357 145.355 208.038L145.215 208.323L145.074 208.607C145.82 208.976 146.735 209.175 147.808 209.219L147.821 208.902ZM145.215 208.323L145.528 208.371L145.797 206.641L145.483 206.592L145.17 206.544L144.901 208.274L145.215 208.323ZM145.483 206.592L145.351 206.881C146.047 207.199 146.859 207.386 147.781 207.447L147.802 207.13L147.823 206.814C146.96 206.756 146.226 206.584 145.615 206.304L145.483 206.592ZM147.802 207.13L147.781 207.447C148.711 207.508 149.629 207.404 150.533 207.136L150.442 206.832L150.352 206.528C149.519 206.775 148.677 206.87 147.823 206.814L147.802 207.13ZM150.442 206.832L150.533 207.136C151.343 206.895 151.997 206.6 152.476 206.241L152.286 205.987L152.096 205.733C151.699 206.03 151.123 206.298 150.352 206.528L150.442 206.832ZM152.286 205.987L152.476 206.241C152.947 205.889 153.285 205.489 153.453 205.035L153.155 204.925L152.858 204.815C152.744 205.121 152.503 205.429 152.096 205.733L152.286 205.987ZM153.155 204.925L153.455 205.029C153.614 204.572 153.624 204.107 153.486 203.641L153.182 203.732L152.877 203.822C152.978 204.161 152.971 204.49 152.856 204.82L153.155 204.925ZM153.182 203.732L153.486 203.641C153.324 203.1 153.003 202.694 152.518 202.458L152.38 202.743L152.241 203.028C152.548 203.178 152.761 203.431 152.877 203.822L153.182 203.732ZM152.38 202.743L152.524 202.461C152.091 202.239 151.581 202.122 151.004 202.098L150.991 202.415L150.979 202.732C151.487 202.753 151.902 202.854 152.235 203.025L152.38 202.743ZM150.991 202.415L151.014 202.099C150.464 202.059 149.871 202.062 149.236 202.106L149.258 202.423L149.281 202.739C149.89 202.696 150.452 202.694 150.968 202.732L150.991 202.415ZM149.258 202.423L149.236 202.106C148.621 202.15 147.993 202.176 147.352 202.184L147.356 202.502L147.361 202.819C148.013 202.81 148.653 202.783 149.281 202.739L149.258 202.423ZM147.356 202.502L147.36 202.184C146.743 202.177 146.159 202.112 145.608 201.991L145.54 202.301L145.472 202.611C146.069 202.741 146.695 202.81 147.352 202.819L147.356 202.502ZM145.54 202.301L145.612 201.992C145.1 201.873 144.649 201.649 144.255 201.316L144.05 201.559L143.846 201.802C144.318 202.199 144.86 202.469 145.469 202.61L145.54 202.301ZM144.05 201.559L144.258 201.319C143.879 200.991 143.579 200.498 143.375 199.813L143.071 199.903L142.767 199.994C142.995 200.76 143.348 201.371 143.843 201.799L144.05 201.559ZM143.071 199.903L143.375 199.813C143.184 199.169 143.176 198.534 143.349 197.901L143.043 197.817L142.737 197.733C142.532 198.482 142.543 199.238 142.767 199.994L143.071 199.903ZM143.043 197.817L143.349 197.902C143.528 197.265 143.918 196.672 144.541 196.128L144.332 195.889L144.123 195.65C143.425 196.26 142.956 196.953 142.738 197.731L143.043 197.817ZM144.332 195.889L144.543 196.126C145.167 195.572 146.052 195.116 147.216 194.77L147.125 194.466L147.035 194.162C145.814 194.525 144.837 195.017 144.122 195.652L144.332 195.889ZM147.125 194.466L147.216 194.77C147.979 194.543 148.767 194.418 149.579 194.395L149.57 194.077L149.561 193.76C148.695 193.785 147.852 193.919 147.035 194.162L147.125 194.466ZM149.57 194.077L149.579 194.395C150.389 194.372 151.115 194.466 151.761 194.673L151.858 194.371L151.955 194.068C151.23 193.837 150.431 193.736 149.561 193.76L149.57 194.077ZM151.858 194.371L151.543 194.338L151.363 196.084L151.679 196.117L151.994 196.149L152.174 194.403L151.858 194.371ZM151.679 196.117L151.772 195.814C151.041 195.588 150.308 195.487 149.572 195.513L149.583 195.83L149.594 196.147C150.256 196.124 150.919 196.214 151.586 196.42L151.679 196.117ZM149.583 195.83L149.578 195.513C148.85 195.524 148.166 195.624 147.526 195.814L147.617 196.118L147.707 196.422C148.286 196.25 148.912 196.158 149.589 196.147L149.583 195.83ZM147.617 196.118L147.526 195.814C146.739 196.048 146.099 196.347 145.622 196.721L145.818 196.971L146.013 197.22C146.406 196.912 146.965 196.643 147.707 196.422L147.617 196.118ZM145.818 196.971L145.622 196.721C145.155 197.087 144.823 197.501 144.661 197.968L144.96 198.072L145.26 198.176C145.371 197.856 145.611 197.536 146.013 197.22L145.818 196.971ZM144.96 198.072L144.658 197.976C144.514 198.428 144.512 198.888 144.649 199.349L144.953 199.259L145.257 199.169C145.156 198.826 145.158 198.496 145.262 198.168L144.96 198.072ZM144.953 199.259L144.649 199.349C144.812 199.897 145.124 200.313 145.597 200.555L145.742 200.273L145.886 199.991C145.593 199.84 145.38 199.58 145.257 199.169L144.953 199.259ZM145.742 200.273L145.603 200.558C146.044 200.773 146.55 200.89 147.114 200.918L147.13 200.601L147.145 200.284C146.65 200.26 146.231 200.158 145.88 199.988L145.742 200.273ZM147.13 200.601L147.117 200.918C147.67 200.94 148.264 200.936 148.898 200.905L148.882 200.588L148.867 200.271C148.249 200.301 147.674 200.306 147.143 200.284L147.13 200.601ZM148.882 200.588L148.904 200.904C149.52 200.861 150.14 200.837 150.767 200.832L150.765 200.515L150.762 200.197C150.123 200.202 149.488 200.227 148.86 200.271L148.882 200.588ZM150.765 200.515L150.769 200.832C151.393 200.823 151.971 200.882 152.504 201.005L152.575 200.696L152.646 200.387C152.058 200.251 151.429 200.188 150.761 200.197L150.765 200.515ZM152.575 200.696L152.507 201.006C153.032 201.121 153.488 201.344 153.88 201.674L154.085 201.432L154.289 201.189C153.815 200.79 153.265 200.522 152.643 200.386L152.575 200.696ZM154.085 201.432L153.88 201.674C154.253 201.989 154.548 202.467 154.748 203.139L155.052 203.049L155.356 202.958C155.132 202.204 154.782 201.605 154.289 201.189L154.085 201.432ZM155.052 203.049L154.748 203.139C154.935 203.767 154.938 204.403 154.755 205.055L155.061 205.141L155.366 205.227C155.58 204.463 155.578 203.704 155.356 202.958L155.052 203.049ZM155.061 205.141L154.756 205.052C154.574 205.676 154.173 206.274 153.524 206.842L153.733 207.081L153.942 207.319C154.659 206.691 155.142 205.996 155.365 205.23L155.061 205.141ZM153.733 207.081L153.526 206.84C152.897 207.383 152.009 207.834 150.843 208.18L150.934 208.484L151.024 208.788C152.244 208.426 153.222 207.94 153.94 207.321L153.733 207.081Z" fill="#BC5406"/>
<path d="M150.867 190.982L147.243 205.09C147.243 205.09 153.338 203.799 152.928 194.911C152.928 194.911 152.102 191.88 150.867 190.982Z" fill="#2D1A14"/>
<path d="M141.402 188.009C139.682 188.521 138.23 189.509 137.145 190.788C137.021 190.713 136.896 190.639 136.77 190.566C137.912 189.198 139.45 188.14 141.279 187.596C146.253 186.117 151.51 188.982 152.997 193.983C153.87 196.921 153.251 199.951 151.584 202.252L151.165 202.097C152.809 199.889 153.43 196.952 152.583 194.106C151.164 189.333 146.148 186.598 141.402 188.009Z" fill="#BC5406"/>
<path d="M135.194 194.76C134.887 196.194 134.923 197.722 135.37 199.226C136.789 203.999 141.805 206.734 146.551 205.323C147.748 204.967 148.814 204.38 149.719 203.626L150.18 203.796C149.194 204.664 148.012 205.338 146.674 205.736C141.7 207.215 136.444 204.35 134.957 199.349C134.481 197.748 134.45 196.121 134.788 194.599C134.924 194.651 135.059 194.705 135.194 194.76Z" fill="#BC5406"/>
<path d="M150.397 190.154L146.268 205.567" stroke="#2D1A14" stroke-width="0.4282" stroke-miterlimit="10"/>
<path d="M173.518 220.935C171.775 223.772 168.041 224.647 165.179 222.888C162.317 221.13 161.411 217.404 163.154 214.567C164.898 211.73 168.631 210.855 171.493 212.614C174.355 214.372 175.262 218.098 173.518 220.935Z" fill="#F9A813"/>
<path d="M172.683 220.132C171.05 222.79 167.57 223.621 164.912 221.987C162.254 220.354 161.423 216.875 163.057 214.216C164.69 211.558 168.169 210.727 170.828 212.361C173.486 213.994 174.317 217.473 172.683 220.132Z" fill="#FFC05A"/>
<path d="M174.199 219.419L173.227 218.822" stroke="#BC5406" stroke-width="0.22" stroke-miterlimit="10"/>
<path d="M165.564 223.553L170.258 215.914L170.779 216.234L166.084 223.872L165.564 223.553ZM166.327 222.767C165.893 222.501 165.519 222.181 165.203 221.808C164.891 221.43 164.686 221.065 164.588 220.714L165.279 220.265C165.379 220.588 165.558 220.914 165.818 221.246C166.077 221.577 166.388 221.854 166.751 222.077C167.082 222.28 167.373 222.407 167.626 222.457C167.878 222.508 168.093 222.498 168.27 222.428C168.451 222.353 168.593 222.231 168.696 222.063C168.816 221.868 168.848 221.671 168.791 221.472C168.74 221.276 168.633 221.08 168.47 220.883C168.316 220.684 168.134 220.482 167.924 220.278C167.713 220.074 167.505 219.86 167.299 219.637C167.102 219.411 166.935 219.178 166.799 218.938C166.669 218.701 166.599 218.449 166.591 218.183C166.587 217.912 166.677 217.624 166.864 217.321C167.044 217.028 167.284 216.807 167.586 216.656C167.896 216.504 168.256 216.452 168.665 216.502C169.084 216.551 169.542 216.728 170.04 217.034C170.371 217.237 170.672 217.482 170.944 217.768C171.216 218.055 171.421 218.352 171.559 218.661L170.891 219.147C170.748 218.834 170.562 218.56 170.334 218.323C170.11 218.081 169.871 217.881 169.616 217.725C169.296 217.528 169.009 217.407 168.753 217.362C168.497 217.317 168.279 217.332 168.098 217.408C167.923 217.486 167.783 217.61 167.68 217.778C167.557 217.978 167.521 218.176 167.572 218.372C167.629 218.571 167.736 218.767 167.893 218.961C168.056 219.158 168.241 219.361 168.448 219.571C168.658 219.775 168.864 219.987 169.064 220.207C169.27 220.431 169.439 220.661 169.569 220.898C169.705 221.138 169.777 221.391 169.785 221.657C169.793 221.924 169.706 222.206 169.523 222.504C169.346 222.791 169.103 223.011 168.793 223.163C168.486 223.31 168.12 223.358 167.697 223.307C167.282 223.253 166.825 223.074 166.327 222.767Z" fill="#BC5406"/>
<path d="M165.564 223.553L165.437 223.474L165.359 223.602L165.486 223.68L165.564 223.553ZM170.258 215.914L170.337 215.787L170.209 215.709L170.131 215.836L170.258 215.914ZM170.779 216.234L170.906 216.312L170.984 216.185L170.857 216.107L170.779 216.234ZM166.084 223.872L166.006 223.999L166.133 224.077L166.211 223.95L166.084 223.872ZM165.203 221.808L165.088 221.903L165.089 221.905L165.203 221.808ZM164.588 220.714L164.507 220.589L164.415 220.649L164.445 220.754L164.588 220.714ZM165.279 220.265L165.421 220.221L165.363 220.032L165.197 220.14L165.279 220.265ZM165.818 221.246L165.7 221.337L165.818 221.246ZM167.626 222.457L167.596 222.603L167.626 222.457ZM168.27 222.428L168.325 222.567L168.328 222.566L168.27 222.428ZM168.791 221.472L168.647 221.51L168.647 221.513L168.791 221.472ZM168.47 220.883L168.352 220.974L168.355 220.978L168.47 220.883ZM167.924 220.278L168.027 220.171L167.924 220.278ZM167.299 219.637L167.187 219.735L167.189 219.738L167.299 219.637ZM166.799 218.938L166.669 219.01L166.669 219.011L166.799 218.938ZM166.591 218.183L166.442 218.186L166.442 218.188L166.591 218.183ZM167.586 216.656L167.52 216.522L167.519 216.523L167.586 216.656ZM168.665 216.502L168.647 216.651L168.648 216.651L168.665 216.502ZM171.559 218.661L171.647 218.782L171.745 218.711L171.695 218.6L171.559 218.661ZM170.891 219.147L170.756 219.209L170.832 219.374L170.979 219.267L170.891 219.147ZM170.334 218.323L170.225 218.424L170.227 218.426L170.334 218.323ZM168.098 217.408L168.041 217.27L168.037 217.272L168.098 217.408ZM167.572 218.372L167.428 218.41L167.429 218.413L167.572 218.372ZM167.893 218.961L167.778 219.055L167.778 219.056L167.893 218.961ZM168.448 219.571L168.342 219.676L168.344 219.678L168.448 219.571ZM169.064 220.207L168.954 220.307L168.955 220.308L169.064 220.207ZM169.569 220.898L169.438 220.97L169.439 220.971L169.569 220.898ZM169.785 221.657L169.934 221.653L169.785 221.657ZM168.793 223.163L168.857 223.298L168.858 223.297L168.793 223.163ZM167.697 223.307L167.678 223.455L167.679 223.455L167.697 223.307ZM165.564 223.553L165.691 223.631L170.386 215.992L170.258 215.914L170.131 215.836L165.437 223.474L165.564 223.553ZM170.258 215.914L170.18 216.041L170.7 216.361L170.779 216.234L170.857 216.107L170.337 215.787L170.258 215.914ZM170.779 216.234L170.651 216.156L165.957 223.794L166.084 223.872L166.211 223.95L170.906 216.312L170.779 216.234ZM166.084 223.872L166.162 223.745L165.642 223.425L165.564 223.553L165.486 223.68L166.006 223.999L166.084 223.872ZM166.327 222.767L166.405 222.64C165.984 222.382 165.622 222.072 165.317 221.712L165.203 221.808L165.089 221.905C165.416 222.29 165.802 222.62 166.249 222.894L166.327 222.767ZM165.203 221.808L165.318 221.713C165.015 221.346 164.823 220.999 164.732 220.674L164.588 220.714L164.445 220.754C164.55 221.131 164.767 221.514 165.088 221.903L165.203 221.808ZM164.588 220.714L164.67 220.839L165.36 220.39L165.279 220.265L165.197 220.14L164.507 220.589L164.588 220.714ZM165.279 220.265L165.136 220.309C165.243 220.653 165.433 220.996 165.7 221.337L165.818 221.246L165.935 221.154C165.684 220.833 165.515 220.522 165.421 220.221L165.279 220.265ZM165.818 221.246L165.7 221.337C165.971 221.683 166.295 221.971 166.673 222.204L166.751 222.077L166.829 221.95C166.481 221.736 166.183 221.47 165.935 221.154L165.818 221.246ZM166.751 222.077L166.673 222.204C167.012 222.412 167.32 222.548 167.596 222.603L167.626 222.457L167.655 222.311C167.426 222.265 167.152 222.148 166.829 221.95L166.751 222.077ZM167.626 222.457L167.596 222.603C167.867 222.658 168.113 222.651 168.325 222.567L168.27 222.428L168.216 222.289C168.073 222.346 167.889 222.358 167.655 222.311L167.626 222.457ZM168.27 222.428L168.328 222.566C168.538 222.478 168.704 222.335 168.823 222.141L168.696 222.063L168.569 221.985C168.482 222.126 168.365 222.227 168.213 222.29L168.27 222.428ZM168.696 222.063L168.823 222.141C168.963 221.915 169.004 221.675 168.934 221.431L168.791 221.472L168.647 221.513C168.692 221.667 168.67 221.821 168.569 221.985L168.696 222.063ZM168.791 221.472L168.935 221.434C168.877 221.213 168.758 220.997 168.585 220.788L168.47 220.883L168.355 220.978C168.507 221.162 168.602 221.34 168.647 221.51L168.791 221.472ZM168.47 220.883L168.588 220.792C168.429 220.586 168.242 220.379 168.027 220.171L167.924 220.278L167.82 220.385C168.026 220.585 168.203 220.781 168.352 220.974L168.47 220.883ZM167.924 220.278L168.027 220.171C167.819 219.969 167.613 219.757 167.409 219.536L167.299 219.637L167.189 219.738C167.397 219.964 167.607 220.179 167.82 220.385L167.924 220.278ZM167.299 219.637L167.411 219.539C167.22 219.32 167.06 219.095 166.929 218.865L166.799 218.938L166.669 219.011C166.811 219.261 166.983 219.502 167.187 219.735L167.299 219.637ZM166.799 218.938L166.93 218.866C166.811 218.649 166.748 218.421 166.74 218.179L166.591 218.183L166.442 218.188C166.451 218.478 166.527 218.753 166.669 219.01L166.799 218.938ZM166.591 218.183L166.741 218.181C166.736 217.945 166.815 217.685 166.991 217.399L166.864 217.321L166.737 217.243C166.54 217.563 166.437 217.878 166.442 218.186L166.591 218.183ZM166.864 217.321L166.991 217.399C167.156 217.13 167.376 216.928 167.652 216.79L167.586 216.656L167.519 216.523C167.192 216.686 166.931 216.927 166.737 217.243L166.864 217.321ZM167.586 216.656L167.652 216.79C167.931 216.653 168.261 216.603 168.647 216.651L168.665 216.502L168.684 216.354C168.251 216.301 167.861 216.355 167.52 216.522L167.586 216.656ZM168.665 216.502L168.648 216.651C169.038 216.695 169.476 216.862 169.962 217.161L170.04 217.034L170.119 216.907C169.608 216.593 169.129 216.406 168.682 216.354L168.665 216.502ZM170.04 217.034L169.962 217.161C170.282 217.357 170.573 217.594 170.836 217.871L170.944 217.768L171.052 217.666C170.771 217.37 170.46 217.117 170.119 216.907L170.04 217.034ZM170.944 217.768L170.836 217.871C171.098 218.147 171.292 218.431 171.423 218.722L171.559 218.661L171.695 218.6C171.549 218.274 171.333 217.962 171.052 217.666L170.944 217.768ZM171.559 218.661L171.471 218.541L170.804 219.026L170.891 219.147L170.979 219.267L171.647 218.782L171.559 218.661ZM170.891 219.147L171.027 219.084C170.876 218.758 170.681 218.469 170.442 218.22L170.334 218.323L170.227 218.426C170.442 218.651 170.619 218.911 170.756 219.209L170.891 219.147ZM170.334 218.323L170.444 218.222C170.211 217.97 169.961 217.762 169.694 217.598L169.616 217.725L169.538 217.852C169.78 218 170.009 218.191 170.225 218.424L170.334 218.323ZM169.616 217.725L169.694 217.598C169.365 217.395 169.059 217.265 168.779 217.215L168.753 217.362L168.727 217.509C168.958 217.55 169.228 217.661 169.538 217.852L169.616 217.725ZM168.753 217.362L168.779 217.215C168.504 217.167 168.255 217.18 168.041 217.27L168.098 217.408L168.156 217.545C168.303 217.484 168.49 217.467 168.727 217.509L168.753 217.362ZM168.098 217.408L168.037 217.272C167.834 217.363 167.672 217.507 167.553 217.7L167.68 217.778L167.807 217.856C167.895 217.713 168.012 217.61 168.159 217.544L168.098 217.408ZM167.68 217.778L167.553 217.7C167.412 217.929 167.365 218.168 167.428 218.41L167.572 218.372L167.717 218.334C167.677 218.184 167.702 218.028 167.807 217.856L167.68 217.778ZM167.572 218.372L167.429 218.413C167.492 218.635 167.61 218.849 167.778 219.055L167.893 218.961L168.009 218.867C167.862 218.686 167.766 218.507 167.716 218.331L167.572 218.372ZM167.893 218.961L167.778 219.056C167.944 219.257 168.132 219.463 168.342 219.675L168.448 219.571L168.554 219.466C168.35 219.259 168.168 219.059 168.008 218.866L167.893 218.961ZM168.448 219.571L168.344 219.678C168.552 219.879 168.756 220.089 168.954 220.307L169.064 220.207L169.175 220.107C168.972 219.884 168.765 219.67 168.552 219.463L168.448 219.571ZM169.064 220.207L168.955 220.308C169.154 220.524 169.314 220.744 169.438 220.97L169.569 220.898L169.7 220.826C169.563 220.577 169.387 220.337 169.174 220.106L169.064 220.207ZM169.569 220.898L169.439 220.971C169.564 221.191 169.629 221.421 169.636 221.662L169.785 221.657L169.934 221.653C169.925 221.362 169.846 221.085 169.699 220.824L169.569 220.898ZM169.785 221.657L169.636 221.662C169.643 221.891 169.568 222.145 169.396 222.425L169.523 222.504L169.65 222.582C169.843 222.267 169.943 221.956 169.934 221.653L169.785 221.657ZM169.523 222.504L169.396 222.425C169.234 222.688 169.012 222.889 168.727 223.029L168.793 223.163L168.858 223.297C169.193 223.132 169.458 222.893 169.65 222.582L169.523 222.504ZM168.793 223.163L168.728 223.029C168.453 223.161 168.117 223.208 167.715 223.159L167.697 223.307L167.679 223.455C168.123 223.509 168.519 223.46 168.857 223.298L168.793 223.163ZM167.697 223.307L167.716 223.159C167.328 223.109 166.892 222.94 166.405 222.64L166.327 222.767L166.249 222.894C166.758 223.208 167.235 223.398 167.678 223.455L167.697 223.307Z" fill="#BC5406"/>
<path d="M165.371 213.719L165.299 220.568C165.299 220.568 162.688 219.239 163.956 215.252C163.956 215.252 164.701 213.977 165.371 213.719Z" fill="#2D1A14"/>
<path d="M170.032 213.521C170.751 213.963 171.29 214.588 171.627 215.301C171.692 215.282 171.758 215.264 171.824 215.246C171.472 214.486 170.902 213.818 170.138 213.348C168.059 212.07 165.323 212.732 164.038 214.822C163.284 216.049 163.196 217.501 163.673 218.749L163.882 218.73C163.404 217.527 163.48 216.117 164.211 214.928C165.437 212.933 168.048 212.302 170.032 213.521Z" fill="#BC5406"/>
<path d="M172.029 217.343C171.994 218.031 171.792 218.721 171.406 219.349C170.18 221.344 167.569 221.976 165.585 220.757C165.084 220.449 164.671 220.053 164.353 219.6L164.123 219.622C164.465 220.136 164.919 220.586 165.479 220.93C167.558 222.207 170.294 221.546 171.578 219.456C171.989 218.787 172.202 218.052 172.233 217.319C172.165 217.326 172.097 217.334 172.029 217.343Z" fill="#BC5406"/>
<path d="M165.686 213.399L165.684 220.903" stroke="#2D1A14" stroke-width="0.2014" stroke-miterlimit="10"/>
<path d="M34.1311 185.145C35.875 182.308 34.969 178.582 32.1075 176.823C29.2459 175.064 25.5125 175.938 23.7686 178.775C22.0246 181.611 22.9306 185.337 25.7922 187.096C28.6537 188.855 32.3872 187.982 34.1311 185.145Z" fill="#F9A813"/>
<path d="M29.7863 186.896C32.8213 186.171 34.6943 183.124 33.9698 180.089C33.2453 177.054 30.1977 175.181 27.1627 175.905C24.1278 176.63 22.2548 179.677 22.9792 182.712C23.7037 185.747 26.7514 187.62 29.7863 186.896Z" fill="#FFC05A"/>
<path d="M34.8085 183.637L33.8365 183.04" stroke="#BC5406" stroke-width="0.22" stroke-miterlimit="10"/>
<path d="M26.1753 187.771L30.8695 180.132L31.3895 180.452L26.6953 188.09L26.1753 187.771ZM26.9377 186.986C26.5044 186.719 26.1299 186.4 25.8143 186.026C25.5021 185.648 25.2971 185.283 25.1994 184.932L25.8896 184.483C25.9898 184.806 26.1695 185.133 26.4288 185.464C26.6881 185.795 26.9993 186.072 27.3622 186.295C27.6927 186.498 27.9841 186.625 28.2366 186.675C28.4891 186.726 28.704 186.716 28.8814 186.646C29.0622 186.571 29.2041 186.449 29.3073 186.281C29.4272 186.086 29.4587 185.889 29.402 185.69C29.3506 185.494 29.2436 185.298 29.0811 185.101C28.9272 184.902 28.7451 184.7 28.5346 184.496C28.3241 184.293 28.1159 184.079 27.91 183.855C27.7128 183.63 27.5463 183.397 27.4103 183.156C27.2798 182.919 27.2105 182.668 27.2024 182.402C27.1977 182.13 27.2885 181.843 27.4749 181.539C27.6547 181.247 27.8954 181.025 28.1969 180.874C28.5071 180.722 28.867 180.671 29.2765 180.721C29.6947 180.769 30.1531 180.946 30.6515 181.252C30.9819 181.455 31.283 181.7 31.5548 181.987C31.8266 182.273 32.0317 182.571 32.1702 182.88L31.5025 183.365C31.3586 183.053 31.1729 182.778 30.9453 182.541C30.721 182.299 30.4816 182.099 30.227 181.943C29.9074 181.747 29.6197 181.626 29.3639 181.58C29.1081 181.535 28.8898 181.55 28.7091 181.626C28.5337 181.705 28.3945 181.828 28.2913 181.996C28.1681 182.196 28.1322 182.395 28.1835 182.59C28.2403 182.789 28.3473 182.986 28.5044 183.179C28.667 183.376 28.8519 183.579 29.059 183.789C29.2695 183.993 29.475 184.205 29.6755 184.425C29.8814 184.649 30.0496 184.879 30.1802 185.116C30.3161 185.356 30.3881 185.609 30.3962 185.876C30.4043 186.142 30.3167 186.424 30.1336 186.722C29.9572 187.009 29.7138 187.229 29.4036 187.381C29.0967 187.529 28.7314 187.577 28.3077 187.525C27.8928 187.472 27.4361 187.292 26.9377 186.986Z" fill="#BC5406"/>
<path d="M26.1753 187.771L26.0482 187.693L25.9701 187.82L26.0972 187.898L26.1753 187.771ZM30.8695 180.132L30.9476 180.005L30.8205 179.927L30.7424 180.054L30.8695 180.132ZM31.3895 180.452L31.5166 180.53L31.5947 180.403L31.4676 180.325L31.3895 180.452ZM26.6953 188.09L26.6172 188.218L26.7443 188.296L26.8224 188.169L26.6953 188.09ZM25.8143 186.026L25.6993 186.121L25.7004 186.123L25.8143 186.026ZM25.1994 184.932L25.1181 184.807L25.0264 184.867L25.0557 184.972L25.1994 184.932ZM25.8896 184.483L26.0321 184.439L25.9736 184.25L25.8083 184.358L25.8896 184.483ZM26.4288 185.464L26.3114 185.556L26.4288 185.464ZM28.2366 186.675L28.2072 186.822L28.2366 186.675ZM28.8814 186.646L28.9362 186.785L28.9389 186.784L28.8814 186.646ZM29.402 185.69L29.2577 185.728L29.2585 185.731L29.402 185.69ZM29.0811 185.101L28.963 185.192L28.966 185.196L29.0811 185.101ZM28.5346 184.496L28.6384 184.389L28.5346 184.496ZM27.91 183.855L27.7976 183.953L27.8003 183.956L27.91 183.855ZM27.4103 183.156L27.2797 183.228L27.2805 183.23L27.4103 183.156ZM27.2024 182.402L27.0533 182.404L27.0533 182.406L27.2024 182.402ZM28.1969 180.874L28.131 180.741L28.1302 180.741L28.1969 180.874ZM29.2765 180.721L29.2584 180.869L29.2595 180.869L29.2765 180.721ZM32.1702 182.88L32.2579 183L32.3558 182.929L32.3063 182.819L32.1702 182.88ZM31.5025 183.365L31.3671 183.427L31.4431 183.593L31.5902 183.486L31.5025 183.365ZM30.9453 182.541L30.8358 182.642L30.8377 182.644L30.9453 182.541ZM28.7091 181.626L28.6515 181.488L28.6479 181.49L28.7091 181.626ZM28.1835 182.59L28.0392 182.628L28.0401 182.631L28.1835 182.59ZM28.5044 183.179L28.3886 183.273L28.3894 183.274L28.5044 183.179ZM29.059 183.789L28.953 183.894L28.9552 183.896L29.059 183.789ZM29.6755 184.425L29.5652 184.526L29.5658 184.526L29.6755 184.425ZM30.1802 185.116L30.0495 185.188L30.0503 185.189L30.1802 185.116ZM30.3962 185.876L30.5453 185.871L30.3962 185.876ZM29.4036 187.381L29.4681 187.516L29.4694 187.515L29.4036 187.381ZM28.3077 187.525L28.2886 187.673L28.2898 187.673L28.3077 187.525ZM26.1753 187.771L26.3024 187.849L30.9966 180.211L30.8695 180.132L30.7424 180.054L26.0482 187.693L26.1753 187.771ZM30.8695 180.132L30.7914 180.26L31.3114 180.579L31.3895 180.452L31.4676 180.325L30.9476 180.005L30.8695 180.132ZM31.3895 180.452L31.2625 180.374L26.5683 188.012L26.6953 188.09L26.8224 188.169L31.5166 180.53L31.3895 180.452ZM26.6953 188.09L26.7734 187.963L26.2534 187.644L26.1753 187.771L26.0972 187.898L26.6172 188.218L26.6953 188.09ZM26.9377 186.986L27.0158 186.858C26.5954 186.6 26.2331 186.291 25.9282 185.93L25.8143 186.026L25.7004 186.123C26.0266 186.508 26.4133 186.838 26.8596 187.113L26.9377 186.986ZM25.8143 186.026L25.9294 185.932C25.6261 185.564 25.4336 185.217 25.3431 184.892L25.1994 184.932L25.0557 184.972C25.1606 185.349 25.3781 185.732 25.6993 186.121L25.8143 186.026ZM25.1994 184.932L25.2808 185.057L25.971 184.608L25.8896 184.483L25.8083 184.358L25.1181 184.807L25.1994 184.932ZM25.8896 184.483L25.7472 184.527C25.8538 184.871 26.0436 185.214 26.3114 185.556L26.4288 185.464L26.5462 185.372C26.2955 185.052 26.1257 184.741 26.0321 184.439L25.8896 184.483ZM26.4288 185.464L26.3114 185.556C26.5818 185.901 26.9063 186.19 27.2841 186.422L27.3622 186.295L27.4403 186.168C27.0922 185.954 26.7945 185.689 26.5462 185.372L26.4288 185.464ZM27.3622 186.295L27.2841 186.422C27.6227 186.63 27.9311 186.766 28.2072 186.822L28.2366 186.675L28.2659 186.529C28.0371 186.483 27.7626 186.366 27.4403 186.168L27.3622 186.295ZM28.2366 186.675L28.2072 186.822C28.4783 186.876 28.7242 186.869 28.9362 186.785L28.8814 186.646L28.8266 186.508C28.6838 186.564 28.4998 186.576 28.2659 186.529L28.2366 186.675ZM28.8814 186.646L28.9389 186.784C29.1487 186.696 29.3149 186.554 29.4344 186.359L29.3073 186.281L29.1803 186.203C29.0933 186.345 28.9756 186.445 28.8239 186.509L28.8814 186.646ZM29.3073 186.281L29.4344 186.359C29.5736 186.133 29.6149 185.893 29.5454 185.649L29.402 185.69L29.2585 185.731C29.3025 185.885 29.2808 186.04 29.1803 186.203L29.3073 186.281ZM29.402 185.69L29.5462 185.652C29.4881 185.431 29.3689 185.215 29.1961 185.006L29.0811 185.101L28.966 185.196C29.1183 185.38 29.2131 185.558 29.2577 185.728L29.402 185.69ZM29.0811 185.101L29.1991 185.01C29.0402 184.804 28.8532 184.598 28.6384 184.389L28.5346 184.496L28.4308 184.604C28.637 184.803 28.8142 185 28.963 185.192L29.0811 185.101ZM28.5346 184.496L28.6384 184.389C28.43 184.187 28.2238 183.976 28.0197 183.754L27.91 183.855L27.8003 183.956C28.008 184.182 28.2182 184.398 28.4308 184.604L28.5346 184.496ZM27.91 183.855L28.0223 183.757C27.8312 183.538 27.6707 183.314 27.5401 183.083L27.4103 183.156L27.2805 183.23C27.4218 183.479 27.5944 183.721 27.7977 183.953L27.91 183.855ZM27.4103 183.156L27.541 183.084C27.4216 182.868 27.3588 182.639 27.3515 182.397L27.2024 182.402L27.0533 182.406C27.0621 182.696 27.1379 182.971 27.2797 183.228L27.4103 183.156ZM27.2024 182.402L27.3515 182.399C27.3474 182.163 27.4259 181.904 27.602 181.617L27.4749 181.539L27.3479 181.461C27.1511 181.781 27.0479 182.097 27.0533 182.404L27.2024 182.402ZM27.4749 181.539L27.602 181.617C27.7675 181.348 27.9874 181.146 28.2635 181.008L28.1969 180.874L28.1302 180.741C27.8033 180.904 27.5419 181.145 27.3479 181.461L27.4749 181.539ZM28.1969 180.874L28.2627 181.008C28.5423 180.871 28.872 180.821 29.2584 180.869L29.2765 180.721L29.2946 180.573C28.862 180.52 28.4719 180.573 28.131 180.741L28.1969 180.874ZM29.2765 180.721L29.2595 180.869C29.6493 180.914 30.0868 181.08 30.5734 181.379L30.6515 181.252L30.7296 181.125C30.2194 180.812 29.7401 180.624 29.2935 180.573L29.2765 180.721ZM30.6515 181.252L30.5734 181.379C30.8926 181.576 31.1836 181.812 31.4466 182.089L31.5548 181.987L31.663 181.884C31.3825 181.588 31.0713 181.335 30.7296 181.125L30.6515 181.252ZM31.5548 181.987L31.4466 182.089C31.7087 182.365 31.9035 182.649 32.0341 182.941L32.1702 182.88L32.3063 182.819C32.1599 182.492 31.9445 182.181 31.663 181.884L31.5548 181.987ZM32.1702 182.88L32.0825 182.759L31.4148 183.244L31.5025 183.365L31.5902 183.486L32.2579 183L32.1702 182.88ZM31.5025 183.365L31.638 183.303C31.4875 182.976 31.2925 182.687 31.0529 182.438L30.9453 182.541L30.8377 182.644C31.0533 182.869 31.2298 183.129 31.3671 183.427L31.5025 183.365ZM30.9453 182.541L31.0548 182.44C30.8222 182.189 30.5724 181.98 30.3051 181.816L30.227 181.943L30.1489 182.07C30.3908 182.219 30.6198 182.409 30.8358 182.642L30.9453 182.541ZM30.227 181.943L30.3051 181.816C29.976 181.614 29.6704 181.483 29.3898 181.434L29.3639 181.58L29.3379 181.727C29.569 181.768 29.8387 181.879 30.1489 182.07L30.227 181.943ZM29.3639 181.58L29.3898 181.434C29.1149 181.385 28.866 181.399 28.6516 181.488L28.7091 181.626L28.7666 181.763C28.9136 181.702 29.1012 181.685 29.3379 181.727L29.3639 181.58ZM28.7091 181.626L28.6479 181.49C28.4446 181.581 28.2826 181.725 28.1642 181.918L28.2913 181.996L28.4183 182.074C28.5063 181.931 28.6229 181.828 28.7702 181.762L28.7091 181.626ZM28.2913 181.996L28.1642 181.918C28.0235 182.147 27.9759 182.387 28.0392 182.628L28.1835 182.59L28.3278 182.552C28.2885 182.403 28.3127 182.246 28.4183 182.074L28.2913 181.996ZM28.1835 182.59L28.0401 182.631C28.1034 182.853 28.2213 183.067 28.3886 183.273L28.5044 183.179L28.6202 183.085C28.4732 182.904 28.3772 182.726 28.327 182.549L28.1835 182.59ZM28.5044 183.179L28.3894 183.274C28.5552 183.475 28.7432 183.682 28.953 183.894L29.059 183.789L29.1651 183.684C28.9606 183.477 28.7788 183.277 28.6194 183.084L28.5044 183.179ZM29.059 183.789L28.9552 183.896C29.1634 184.098 29.3668 184.308 29.5652 184.526L29.6755 184.425L29.7858 184.325C29.5832 184.102 29.3756 183.888 29.1628 183.682L29.059 183.789ZM29.6755 184.425L29.5658 184.526C29.7646 184.742 29.9254 184.963 30.0495 185.188L30.1802 185.116L30.3108 185.044C30.1738 184.795 29.9983 184.555 29.7852 184.324L29.6755 184.425ZM30.1802 185.116L30.0503 185.189C30.1748 185.409 30.2398 185.639 30.2471 185.88L30.3962 185.876L30.5453 185.871C30.5364 185.58 30.4574 185.303 30.31 185.043L30.1802 185.116ZM30.3962 185.876L30.2471 185.88C30.2541 186.109 30.1791 186.363 30.0066 186.644L30.1336 186.722L30.2607 186.8C30.4544 186.485 30.5545 186.174 30.5453 185.871L30.3962 185.876ZM30.1336 186.722L30.0066 186.644C29.8453 186.906 29.6234 187.107 29.3378 187.248L29.4036 187.381L29.4694 187.515C29.8043 187.351 30.0691 187.112 30.2607 186.8L30.1336 186.722ZM29.4036 187.381L29.3391 187.247C29.0636 187.379 28.7283 187.426 28.3257 187.377L28.3077 187.525L28.2898 187.673C28.7345 187.727 29.1298 187.678 29.4681 187.516L29.4036 187.381ZM28.3077 187.525L28.3268 187.377C27.9394 187.327 27.5029 187.158 27.0158 186.858L26.9377 186.986L26.8596 187.113C27.3693 187.426 27.8462 187.616 28.2886 187.673L28.3077 187.525Z" fill="#BC5406"/>
<path d="M25.982 177.937L25.9095 184.786C25.9095 184.786 23.299 183.458 24.567 179.471C24.567 179.471 25.3115 178.195 25.982 177.937Z" fill="#2D1A14"/>
<path d="M30.642 177.739C31.361 178.181 31.9 178.807 32.237 179.52C32.3025 179.501 32.3685 179.483 32.4345 179.465C32.0825 178.704 31.5125 178.036 30.748 177.567C28.669 176.289 25.933 176.951 24.6485 179.041C23.894 180.269 23.8065 181.72 24.283 182.968L24.4925 182.949C24.0145 181.746 24.09 180.336 24.821 179.147C26.047 177.152 28.6585 176.52 30.642 177.739Z" fill="#BC5406"/>
<path d="M32.6395 181.562C32.6045 182.25 32.402 182.94 32.016 183.568C30.79 185.563 28.179 186.195 26.195 184.976C25.6945 184.668 25.2815 184.272 24.963 183.819L24.733 183.841C25.075 184.355 25.5295 184.805 26.089 185.149C28.168 186.426 30.904 185.765 32.1885 183.675C32.5995 183.006 32.812 182.27 32.844 181.538C32.776 181.545 32.7075 181.553 32.6395 181.562Z" fill="#BC5406"/>
<path d="M26.2963 177.618L26.294 185.121" stroke="#2D1A14" stroke-width="0.2014" stroke-miterlimit="10"/>
<path d="M32.3455 79.0085L35.3775 89.1905L44.642 84.918L39.981 94.417L49.358 98.324L39.7345 101.576L43.731 111.374L34.782 106.474L31.057 116.423L28.025 106.241L18.7605 110.514L23.4215 101.014L14.0445 97.1075L23.6685 93.855L19.672 84.0575L28.6205 88.9575L32.3455 79.0085Z" fill="#F9A813"/>
<path d="M170.967 187.489L172.535 191.896L176.76 189.888L174.751 194.113L179.159 195.68L174.751 197.247L176.76 201.472L172.535 199.464L170.967 203.872L169.4 199.464L165.175 201.472L167.184 197.247L162.776 195.68L167.184 194.113L165.175 189.888L169.4 191.896L170.967 187.489Z" fill="#A595FA"/>
<path d="M230.092 74.3254L231.659 78.7334L235.883 76.7249L233.876 80.9499L238.283 82.5174L233.876 84.0844L235.883 88.3094L231.659 86.3009L230.092 90.7084L228.524 86.3009L224.299 88.3094L226.307 84.0844L221.9 82.5174L226.307 80.9499L224.299 76.7249L228.524 78.7334L230.092 74.3254Z" fill="#F9A813"/>
<path d="M32.702 74.169C31.8755 74.169 31.1085 74.422 30.4735 74.8545C30.185 75.02 29.935 75.231 29.747 75.491C29.712 75.5305 29.677 75.57 29.6435 75.611C28.8475 73.2745 26.192 71.7355 23.7685 72.2125C21.3515 72.688 19.3725 75.2655 19.5095 77.725H28.7565H36.0115H36.647C36.442 75.7275 34.754 74.169 32.702 74.169Z" fill="#F4C6A6"/>
<path d="M77.095 46.1595C76.2685 46.1595 75.5015 46.4125 74.8665 46.845C74.578 47.0105 74.328 47.2215 74.14 47.4815C74.105 47.521 74.07 47.561 74.0365 47.6015C73.2405 45.265 70.585 43.726 68.1615 44.203C65.7445 44.6785 63.7655 47.2565 63.9025 49.716H73.1495H80.4045H81.04C80.835 47.7175 79.147 46.1595 77.095 46.1595Z" fill="#F4C6A6"/>
<path d="M225.071 59.9C224.244 59.9 223.477 60.153 222.842 60.5855C222.554 60.751 222.304 60.962 222.116 61.222C222.081 61.2615 222.046 61.3015 222.012 61.342C221.216 59.0055 218.561 57.4665 216.137 57.9435C213.72 58.419 211.741 60.997 211.878 63.4565H221.125H228.38H229.016C228.811 61.4585 227.123 59.9 225.071 59.9Z" fill="#F4C6A6"/>
<path d="M213.394 29.3619C210.821 29.3619 208.433 30.1495 206.456 31.4955C205.557 32.011 204.78 32.668 204.195 33.477C204.085 33.5995 203.977 33.7239 203.872 33.8504C201.394 26.5754 193.127 21.7849 185.583 23.2699C178.058 24.7509 171.897 32.7754 172.324 40.4324H201.111H223.699H225.676C225.037 34.2129 219.782 29.3619 213.394 29.3619Z" fill="#F4C6A6"/>
<path d="M17.849 227.945H202.149" stroke="#2D1A14" stroke-width="1.6316" stroke-miterlimit="10" stroke-linecap="round" stroke-linejoin="round"/>
<path d="M216.633 207.215H214.081C213.899 206.792 213.69 206.384 213.456 205.991L214.993 204.134C215.127 203.971 215.105 203.728 214.942 203.593L210.904 200.251C210.741 200.117 210.498 200.14 210.363 200.302L209.017 201.929C208.471 201.665 207.898 201.447 207.304 201.281V199.151C207.304 198.94 207.131 198.767 206.92 198.767H201.678C201.467 198.767 201.294 198.94 201.294 199.151V201.386C200.703 201.575 200.135 201.815 199.594 202.1L198.106 200.302C197.971 200.139 197.728 200.116 197.566 200.251L193.527 203.593C193.364 203.727 193.341 203.971 193.476 204.133L195.299 206.336C195.143 206.621 195 206.914 194.87 207.215H191.401C191.19 207.215 191.017 207.388 191.017 207.599V212.841C191.017 213.052 191.19 213.225 191.401 213.225H194.19C194.371 214.222 194.693 215.169 195.135 216.046V216.046L193.04 218.577C192.906 218.74 192.929 218.983 193.092 219.118L197.13 222.46C197.293 222.594 197.536 222.571 197.671 222.409L199.305 220.434C199.93 220.791 200.595 221.085 201.293 221.307V224.1C201.293 224.311 201.466 224.484 201.677 224.484H206.919C207.13 224.484 207.303 224.311 207.303 224.1V221.413C208.061 221.201 208.783 220.906 209.461 220.537L211.01 222.409C211.144 222.571 211.388 222.594 211.551 222.46L215.589 219.118C215.752 218.983 215.774 218.74 215.64 218.577L213.712 216.247C214.208 215.315 214.566 214.298 214.76 213.225H216.632C216.843 213.225 217.016 213.052 217.016 212.841V207.599C217.017 207.388 216.844 207.215 216.633 207.215ZM204.477 216.458C201.654 216.458 199.365 214.17 199.365 211.347C199.365 208.524 201.654 206.236 204.477 206.236C207.3 206.236 209.588 208.524 209.588 211.347C209.587 214.17 207.299 216.458 204.477 216.458Z" fill="#C2C0F2"/>
<path d="M144.439 37.1446H140.802C140.542 36.5411 140.244 35.9591 139.909 35.3996L142.101 32.7511C142.293 32.5191 142.261 32.1726 142.029 31.9806L136.271 27.2156C136.039 27.0241 135.693 27.0566 135.501 27.2886L133.582 29.6076C132.803 29.2316 131.987 28.9211 131.14 28.6841V25.6486C131.14 25.3476 130.893 25.1011 130.593 25.1011H123.119C122.818 25.1011 122.572 25.3476 122.572 25.6486V28.8356C121.729 29.1041 120.919 29.4461 120.149 29.8536L118.026 27.2891C117.834 27.0571 117.488 27.0241 117.256 27.2166L111.498 31.9816C111.266 32.1736 111.234 32.5206 111.426 32.7521L114.025 35.8931C113.803 36.2996 113.599 36.7171 113.415 37.1456H108.468C108.167 37.1456 107.921 37.3921 107.921 37.6931V45.1666C107.921 45.4676 108.167 45.7141 108.468 45.7141H112.445C112.703 47.1351 113.162 48.4861 113.792 49.7356L110.806 53.3446C110.614 53.5766 110.647 53.9231 110.879 54.1151L116.636 58.8801C116.868 59.0721 117.215 59.0391 117.407 58.8071L119.737 55.9921C120.628 56.5011 121.577 56.9196 122.572 57.2371V61.2181C122.572 61.5191 122.818 61.7656 123.119 61.7656H130.593C130.894 61.7656 131.14 61.5191 131.14 61.2181V57.3881C132.22 57.0856 133.25 56.6641 134.216 56.1391L136.425 58.8076C136.617 59.0396 136.963 59.0721 137.195 58.8806L142.953 54.1156C143.185 53.9236 143.217 53.5771 143.025 53.3451L140.276 50.0226C140.983 48.6936 141.494 47.2446 141.771 45.7146H144.439C144.74 45.7146 144.987 45.4681 144.987 45.1671V37.6921C144.987 37.3911 144.741 37.1446 144.439 37.1446ZM127.108 50.3226C123.083 50.3226 119.821 47.0601 119.821 43.0356C119.821 39.0111 123.083 35.7481 127.108 35.7481C131.132 35.7481 134.395 39.0111 134.395 43.0356C134.395 47.0601 131.132 50.3226 127.108 50.3226Z" fill="#C2C0F2"/>
<path d="M104.928 35.6971H102.973C102.833 35.3731 102.673 35.0601 102.493 34.7596L103.671 33.3361C103.774 33.2116 103.757 33.0251 103.632 32.9221L100.538 30.3611C100.413 30.2581 100.227 30.2756 100.124 30.4001L99.0925 31.6461C98.674 31.4441 98.235 31.2771 97.78 31.1496V29.5181C97.78 29.3566 97.6475 29.2241 97.486 29.2241H93.4695C93.3075 29.2241 93.1755 29.3566 93.1755 29.5181V31.2306C92.7225 31.3751 92.2875 31.5586 91.8735 31.7776L90.733 30.3996C90.63 30.2751 90.4435 30.2576 90.319 30.3606L87.225 32.9216C87.1005 33.0246 87.083 33.2111 87.186 33.3356L88.583 35.0236C88.4635 35.2421 88.354 35.4666 88.255 35.6966H85.5965C85.4345 35.6966 85.3025 35.8291 85.3025 35.9906V40.0071C85.3025 40.1691 85.435 40.3011 85.5965 40.3011H87.7335C87.872 41.0646 88.119 41.7906 88.4575 42.4626L86.8525 44.4016C86.7495 44.5261 86.767 44.7126 86.8915 44.8156L89.9855 47.3761C90.11 47.4791 90.2965 47.4616 90.3995 47.3371L91.6515 45.8241C92.1305 46.0976 92.6405 46.3226 93.175 46.4931V48.6326C93.175 48.7946 93.3075 48.9266 93.469 48.9266H97.4855C97.647 48.9266 97.7795 48.7941 97.7795 48.6326V46.5741C98.36 46.4116 98.914 46.1851 99.433 45.9026L100.62 47.3366C100.723 47.4611 100.909 47.4786 101.034 47.3756L104.128 44.8151C104.253 44.7121 104.27 44.5256 104.167 44.4011L102.69 42.6156C103.07 41.9016 103.344 41.1226 103.493 40.3006H104.927C105.089 40.3006 105.221 40.1681 105.221 40.0066V35.9901C105.222 35.8296 105.09 35.6971 104.928 35.6971ZM95.6135 42.7791C93.4505 42.7791 91.6975 41.0261 91.6975 38.8631C91.6975 36.7001 93.451 34.9466 95.6135 34.9466C97.7765 34.9466 99.53 36.7001 99.53 38.8631C99.53 41.0261 97.7765 42.7791 95.6135 42.7791Z" fill="#FF8772"/>
<path d="M232.571 201.406H231.278C231.186 201.191 231.079 200.984 230.96 200.785L231.74 199.844C231.809 199.761 231.797 199.638 231.714 199.57L229.667 197.876C229.585 197.808 229.462 197.819 229.393 197.902L228.71 198.726C228.434 198.592 228.143 198.482 227.842 198.398V197.318C227.842 197.211 227.755 197.124 227.648 197.124H224.991C224.884 197.124 224.796 197.211 224.796 197.318V198.451C224.497 198.547 224.209 198.668 223.935 198.813L223.18 197.902C223.112 197.819 222.989 197.808 222.906 197.876L220.859 199.57C220.777 199.638 220.765 199.761 220.833 199.844L221.758 200.96C221.679 201.105 221.606 201.253 221.54 201.405H219.782C219.675 201.405 219.587 201.493 219.587 201.6V204.257C219.587 204.364 219.675 204.451 219.782 204.451H221.196C221.287 204.956 221.451 205.437 221.675 205.881L220.613 207.164C220.545 207.247 220.557 207.37 220.639 207.438L222.686 209.132C222.769 209.2 222.892 209.189 222.96 209.106L223.789 208.105C224.106 208.286 224.443 208.435 224.797 208.548V209.963C224.797 210.07 224.885 210.158 224.992 210.158H227.648C227.755 210.158 227.843 210.07 227.843 209.963V208.602C228.227 208.494 228.593 208.344 228.937 208.158L229.722 209.106C229.79 209.189 229.914 209.2 229.996 209.132L232.043 207.438C232.125 207.37 232.137 207.247 232.069 207.164L231.092 205.983C231.343 205.511 231.525 204.996 231.623 204.452H232.572C232.679 204.452 232.766 204.364 232.766 204.257V201.6C232.766 201.493 232.678 201.406 232.571 201.406ZM226.409 206.091C224.978 206.091 223.818 204.931 223.818 203.5C223.818 202.07 224.978 200.909 226.409 200.909C227.84 200.909 229 202.069 229 203.5C229 204.931 227.84 206.091 226.409 206.091Z" fill="#FF8772"/>
<path d="M111.164 90.5292C112.04 90.5292 112.749 89.8193 112.749 88.9436C112.749 88.068 112.04 87.3582 111.164 87.3582C110.288 87.3582 109.578 88.068 109.578 88.9436C109.578 89.8193 110.288 90.5292 111.164 90.5292Z" stroke="#2D1A14" stroke-width="1.057" stroke-miterlimit="10" stroke-linecap="round" stroke-linejoin="round"/>
<path d="M58.5795 26.7146C58.5795 27.6631 57.8105 28.4321 56.862 28.4321C55.9135 28.4321 55.1445 27.6631 55.1445 26.7146C55.1445 25.7661 55.9135 24.9971 56.862 24.9971C57.8105 24.9971 58.5795 25.7661 58.5795 26.7146Z" stroke="#2D1A14" stroke-width="1.057" stroke-miterlimit="10" stroke-linecap="round" stroke-linejoin="round"/>
<path d="M75.359 36.6234C75.8699 36.6234 76.284 36.2093 76.284 35.6984C76.284 35.1876 75.8699 34.7734 75.359 34.7734C74.8481 34.7734 74.434 35.1876 74.434 35.6984C74.434 36.2093 74.8481 36.6234 75.359 36.6234Z" stroke="#2D1A14" stroke-width="1.057" stroke-miterlimit="10" stroke-linecap="round" stroke-linejoin="round"/>
<path d="M40.3465 117.746C40.3465 118.33 39.8735 118.803 39.2895 118.803C38.706 118.803 38.2325 118.33 38.2325 117.746C38.2325 117.162 38.7055 116.689 39.2895 116.689C39.8735 116.689 40.3465 117.162 40.3465 117.746Z" stroke="#2D1A14" stroke-width="1.057" stroke-miterlimit="10" stroke-linecap="round" stroke-linejoin="round"/>
<path d="M22.9065 210.759C22.9065 211.489 22.315 212.08 21.585 212.08C20.8555 212.08 20.264 211.489 20.264 210.759C20.264 210.03 20.8555 209.438 21.585 209.438C22.315 209.438 22.9065 210.03 22.9065 210.759Z" stroke="#2D1A14" stroke-width="1.057" stroke-miterlimit="10" stroke-linecap="round" stroke-linejoin="round"/>
<path d="M137.588 218.159C137.588 218.742 137.115 219.216 136.531 219.216C135.947 219.216 135.474 218.743 135.474 218.159C135.474 217.575 135.948 217.102 136.531 217.102C137.115 217.102 137.588 217.575 137.588 218.159Z" stroke="#2D1A14" stroke-width="1.057" stroke-miterlimit="10" stroke-linecap="round" stroke-linejoin="round"/>
<path d="M159.785 185.921C159.785 186.651 159.193 187.242 158.463 187.242C157.733 187.242 157.142 186.651 157.142 185.921C157.142 185.192 157.733 184.6 158.463 184.6C159.193 184.6 159.785 185.191 159.785 185.921Z" stroke="#2D1A14" stroke-width="1.057" stroke-miterlimit="10" stroke-linecap="round" stroke-linejoin="round"/>
<path d="M168.504 154.873C168.504 155.821 167.735 156.59 166.787 156.59C165.838 156.59 165.069 155.821 165.069 154.873C165.069 153.924 165.838 153.155 166.787 153.155C167.735 153.155 168.504 153.924 168.504 154.873Z" stroke="#2D1A14" stroke-width="1.057" stroke-miterlimit="10" stroke-linecap="round" stroke-linejoin="round"/>
<path d="M158.067 100.042C158.724 100.042 159.256 99.5097 159.256 98.8531C159.256 98.1964 158.724 97.6641 158.067 97.6641C157.41 97.6641 156.878 98.1964 156.878 98.8531C156.878 99.5097 157.41 100.042 158.067 100.042Z" stroke="#2D1A14" stroke-width="1.057" stroke-miterlimit="10" stroke-linecap="round" stroke-linejoin="round"/>
<path d="M175.243 96.8711C176.046 96.8711 176.697 96.2204 176.697 95.4176C176.697 94.6149 176.046 93.9641 175.243 93.9641C174.44 93.9641 173.79 94.6149 173.79 95.4176C173.79 96.2204 174.44 96.8711 175.243 96.8711Z" stroke="#2D1A14" stroke-width="1.057" stroke-miterlimit="10" stroke-linecap="round" stroke-linejoin="round"/>
<path d="M217.654 70.8431C217.654 71.2081 217.358 71.5036 216.993 71.5036C216.628 71.5036 216.333 71.2076 216.333 70.8431C216.333 70.4781 216.628 70.1826 216.993 70.1826C217.358 70.1826 217.654 70.4781 217.654 70.8431Z" stroke="#2D1A14" stroke-width="1.057" stroke-miterlimit="10" stroke-linecap="round" stroke-linejoin="round"/>
<path d="M45.5495 179.195L46.4055 180.76L47.971 181.616L46.4055 182.473L45.5495 184.038L44.6935 182.473L43.128 181.616L44.6935 180.76L45.5495 179.195Z" fill="white"/>
<path d="M38.2925 166.407L39.5315 168.673L41.7975 169.912L39.5315 171.151L38.2925 173.417L37.053 171.151L34.787 169.912L37.053 168.673L38.2925 166.407Z" fill="white"/>
<path d="M136.023 190.312L136.88 191.878L138.445 192.734L136.88 193.59L136.023 195.156L135.167 193.59L133.602 192.734L135.167 191.878L136.023 190.312Z" fill="white"/>
<path d="M175.135 208.495L175.554 209.262L176.321 209.682L175.554 210.101L175.135 210.868L174.715 210.101L173.948 209.682L174.715 209.262L175.135 208.495Z" fill="white"/>
<path d="M177.949 216.873L178.368 217.64L179.135 218.06L178.368 218.479L177.949 219.246L177.529 218.479L176.762 218.06L177.529 217.64L177.949 216.873Z" fill="white"/>
<path d="M138.734 197.035L139.153 197.802L139.92 198.221L139.153 198.641L138.734 199.408L138.314 198.641L137.547 198.221L138.314 197.802L138.734 197.035Z" fill="white"/>
<path d="M130.697 179.821L131.776 181.793L133.748 182.872L131.776 183.951L130.697 185.923L129.618 183.951L127.646 182.872L129.618 181.793L130.697 179.821Z" fill="white"/>
<path d="M159.85 206.552L160.93 208.524L162.902 209.603L160.93 210.682L159.85 212.654L158.772 210.682L156.799 209.603L158.772 208.524L159.85 206.552Z" fill="white"/>
<path d="M148.191 216.162L149.154 217.922L150.914 218.884L149.154 219.847L148.191 221.607L147.229 219.847L145.469 218.884L147.229 217.922L148.191 216.162Z" fill="white"/>
<path d="M122.324 227.127H61.3125L66.488 182.595L122.324 171.524V227.127Z" fill="#463BB0"/>
<path d="M85.8945 79.4091C86.3795 82.0246 86.6605 84.6796 86.734 87.3406C86.844 91.3226 86.34 95.6671 83.611 98.5221C85.3025 100.891 87.869 102.836 90.6565 103.56C93.444 104.284 96.477 103.986 99.0765 102.731C99.7855 102.389 100.461 101.98 101.135 101.571C101.963 101.069 102.79 100.568 103.617 100.066C100.031 93.7781 96.967 86.8216 97.927 79.6166C96.137 79.2771 93.603 78.5091 91.813 78.1696C91.0365 78.0226 90.252 77.8746 89.463 77.9091C88.211 77.9641 87.13 79.6246 85.8945 79.4091Z" fill="#FF8772"/>
<path d="M129.128 153.193C128.933 156.974 128.664 160.749 128.344 164.519C128.128 167.049 127.904 169.57 127.56 172.078C126.807 176.105 125.881 180.1 124.996 184.097C124.604 185.618 124.207 187.137 123.825 188.66C123.346 190.568 122.945 192.514 122.47 194.437C122.231 194.855 121.951 195.246 121.63 195.6C121.464 195.784 121.288 195.958 121.099 196.121C120.415 196.712 119.481 196.994 118.651 197.297C117.665 197.658 116.664 197.973 115.649 198.239C112.959 198.947 110.215 199.227 107.453 199.449C104.544 199.682 101.627 199.795 98.7095 199.823C97.219 199.836 95.727 199.829 94.237 199.801C89.969 199.725 85.707 199.501 81.4845 199.236C80.624 199.183 69.513 197.932 65.748 197.483C65.3255 197.433 64.995 197.391 64.7805 197.364C64.7735 197.364 64.766 197.362 64.7595 197.361L64.683 197.351C64.5655 197.336 64.5035 197.326 64.5035 197.323C64.228 193.343 63.6585 188.774 62.914 183.894C62.332 180.075 61.6425 176.065 60.905 171.998C60.713 170.934 60.5165 169.867 60.3175 168.798C60.315 168.784 60.312 168.77 60.309 168.755C58.923 161.284 57.424 153.738 56.1725 146.927C55.7275 144.517 55.315 142.2 54.949 140.01C54.887 139.647 54.8275 139.286 54.7695 138.931C54.761 138.877 54.751 138.822 54.7425 138.767C53.4415 130.924 50.493 120.939 52.1205 113.035C53.275 107.428 58.8805 104.146 63.856 101.878C63.9025 101.856 63.949 101.836 63.996 101.814C64.55 101.561 65.0965 101.324 65.6265 101.095C68.9605 99.6611 72.645 98.9366 76.3915 98.6056C77.136 98.5411 77.882 98.4906 78.629 98.4531C78.6785 98.4501 78.728 98.4486 78.7775 98.4461C80.4415 98.3671 82.106 98.3526 83.749 98.3771C84.348 98.3856 84.943 98.4001 85.5335 98.4176C90.6235 98.5681 95.691 99.0831 100.763 99.4971C106.937 100.001 113.738 100.052 119.414 102.84C128.632 107.367 128.576 121.425 129.139 130.171C129.632 137.834 129.524 145.529 129.128 153.193Z" fill="#463BB0"/>
<path d="M99.7555 92.1387C100.803 94.8722 102.168 97.5242 103.618 100.067C102.79 100.568 101.963 101.07 101.136 101.571C100.461 101.98 99.786 102.389 99.077 102.732C96.4775 103.986 93.4445 104.285 90.657 103.561C87.8695 102.837 85.303 100.891 83.6115 98.5227C85.257 96.8012 86.093 94.5382 86.4735 92.1397H99.7555V92.1387Z" fill="#FFFCD7"/>
<path d="M87.893 68.5761C90.4925 68.5526 92.4475 70.8471 92.626 73.2636C92.8045 75.6801 91.596 78.1046 90.0835 80.1916C88.4855 77.5616 87.243 75.2071 85.645 72.5766C85.0445 71.5886 84.4815 70.2441 85.343 69.3316C85.8265 68.8186 87.189 68.5821 87.893 68.5761Z" fill="#2D201B"/>
<path d="M102.544 78.8081C102.576 78.9466 102.603 79.0866 102.631 79.2261C102.647 79.3151 102.664 79.4086 102.675 79.4991C102.686 79.5451 102.692 79.5926 102.698 79.6396C102.701 79.6701 102.707 79.6951 102.709 79.7256C102.72 79.8156 102.727 79.9026 102.739 79.9931L102.743 80.0716C102.755 80.2016 102.762 80.3281 102.769 80.4551C102.774 80.5951 102.774 80.7321 102.774 80.8651C102.776 80.9131 102.774 80.9626 102.772 81.0116C102.773 81.0376 102.772 81.0691 102.769 81.0961C102.764 81.2121 102.76 81.3281 102.751 81.4451C102.73 81.7236 102.695 81.9971 102.648 82.2731C102.636 82.3376 102.621 82.4076 102.609 82.4721C102.491 83.0606 102.312 83.6316 102.079 84.1801C102.026 84.2981 101.972 84.4121 101.92 84.5301C101.889 84.5901 101.859 84.6501 101.825 84.7151C101.772 84.8156 101.72 84.9156 101.663 85.0131C101.524 85.2571 101.375 85.4946 101.215 85.7251C101.142 85.8301 101.064 85.9366 100.986 86.0381C100.801 86.2746 100.606 86.5051 100.394 86.7211C100.237 86.8851 100.07 87.0426 99.897 87.1971C99.5955 87.4646 99.2755 87.7101 98.932 87.9296C98.859 87.9771 98.786 88.0251 98.7075 88.0691C98.6535 88.1036 98.5985 88.1336 98.5445 88.1681C98.517 88.1831 98.4855 88.1991 98.4545 88.2196C98.427 88.2346 98.3995 88.2496 98.371 88.2606C98.281 88.3121 98.19 88.3591 98.098 88.4021C97.558 88.6711 96.9785 88.8826 96.37 89.0261C96.2355 89.0566 96.101 89.0876 95.9655 89.1136C94.459 89.3906 92.9555 89.2336 91.593 88.7266C90.245 88.2246 89.03 87.3746 88.083 86.2641C87.2265 85.2611 86.592 84.0486 86.261 82.6741L85.797 80.7151L84.4315 74.9561L84.4305 74.9521L84.002 73.1486L83.413 70.6611C83.3825 70.5266 83.3505 70.3881 83.3285 70.2516C83.313 70.1846 83.302 70.1161 83.291 70.0481C83.2835 69.9966 83.2755 69.9411 83.268 69.8896C83.26 69.8341 83.2515 69.7786 83.244 69.7271C83.2455 69.7136 83.2425 69.7006 83.2395 69.6881C83.236 69.6536 83.2325 69.6191 83.23 69.5886C83.2245 69.5456 83.22 69.5066 83.216 69.4681C83.2145 69.4421 83.214 69.4201 83.2125 69.3936C83.2045 69.3381 83.1995 69.2771 83.1995 69.2196C83.1925 69.1681 83.19 69.1201 83.192 69.0711C83.1895 69.0406 83.187 69.0106 83.1855 68.9841C83.1815 68.8701 83.181 68.7506 83.1815 68.6356C83.1805 68.5741 83.183 68.5071 83.1825 68.4451C83.186 68.3821 83.186 68.3251 83.1905 68.2666C83.195 68.2081 83.199 68.1496 83.1985 68.0881C83.2025 68.0871 83.2025 68.0871 83.202 68.0831C83.2065 68.0246 83.2105 67.9661 83.215 67.9076C83.2195 67.8491 83.228 67.7896 83.2325 67.7311C83.242 67.6761 83.2465 67.6176 83.255 67.5581C83.305 67.1756 83.3835 66.8036 83.481 66.4366C83.522 66.2861 83.5665 66.1341 83.617 65.9856C83.635 65.9286 83.653 65.8711 83.675 65.8131C83.7285 65.6596 83.791 65.5081 83.85 65.3576C83.863 65.3371 83.871 65.3131 83.8795 65.2936C83.9245 65.1816 83.974 65.0686 84.033 64.9581C84.067 64.8931 84.0995 64.8236 84.1335 64.7581C84.137 64.7531 84.139 64.7436 84.1425 64.7386C85.217 62.6456 87.151 61.0246 89.587 60.4426C92.5985 59.7296 95.6385 60.7876 97.6325 62.9416C97.924 63.2511 98.19 63.5836 98.4295 63.9361C99.006 64.7771 99.4425 65.7431 99.6915 66.7961L102.544 78.8081Z" fill="#FF8772"/>
<path d="M80.635 78.8996C81.053 80.6616 82.7955 81.7566 84.5265 81.3456C86.2575 80.9341 87.3215 79.1721 86.9035 77.4101C86.4855 75.6481 84.743 74.5531 83.012 74.9641C81.281 75.3751 80.217 77.1371 80.635 78.8996Z" fill="#FF8772"/>
<path d="M102.631 79.226C102.647 79.315 102.664 79.4085 102.675 79.499C102.686 79.545 102.692 79.5925 102.698 79.6395C102.701 79.67 102.707 79.695 102.709 79.7255C102.72 79.8155 102.727 79.9025 102.739 79.993L102.743 80.0715C102.755 80.2015 102.762 80.328 102.769 80.455C102.774 80.595 102.774 80.732 102.774 80.865C102.776 80.913 102.774 80.9625 102.772 81.0115C102.773 81.0375 102.772 81.069 102.769 81.096C102.764 81.212 102.76 81.328 102.751 81.445C102.73 81.7235 102.695 81.997 102.648 82.273C102.636 82.3375 102.621 82.4075 102.609 82.472C102.491 83.0605 102.312 83.6315 102.079 84.18C102.026 84.298 101.972 84.412 101.92 84.53C101.889 84.59 101.859 84.65 101.825 84.715C101.772 84.8155 101.72 84.9155 101.663 85.013C101.524 85.257 101.375 85.4945 101.215 85.725C101.142 85.83 101.064 85.9365 100.986 86.038C100.801 86.2745 100.606 86.505 100.394 86.721C100.237 86.885 100.07 87.0425 99.897 87.197C99.5955 87.4645 99.2755 87.71 98.932 87.9295C98.859 87.977 98.786 88.025 98.7075 88.069C98.6535 88.1035 98.5985 88.1335 98.5445 88.168C98.517 88.183 98.4855 88.199 98.4545 88.2195C98.427 88.2345 98.3995 88.2495 98.371 88.2605C98.281 88.312 98.19 88.359 98.098 88.402C97.558 88.671 96.9785 88.8825 96.37 89.026C96.2355 89.0565 96.101 89.0875 95.9655 89.1135C94.459 89.3905 92.9555 89.2335 91.593 88.7265C90.245 88.2245 89.03 87.3745 88.083 86.264C87.2265 85.261 86.592 84.0485 86.261 82.674L85.797 80.715L84.4315 74.956L84.4305 74.952L84.002 73.1485L83.413 70.661C83.3825 70.5265 83.3505 70.388 83.3285 70.2515C83.313 70.1845 83.302 70.116 83.291 70.048C83.2835 69.9965 83.2755 69.941 83.268 69.8895C83.26 69.834 83.2515 69.7785 83.244 69.727C83.2455 69.7135 83.2425 69.7005 83.2395 69.688C83.236 69.6535 83.2325 69.619 83.23 69.5885C83.2245 69.5455 83.22 69.5065 83.216 69.468C83.2145 69.442 83.214 69.42 83.2125 69.3935C83.2045 69.338 83.1995 69.277 83.1995 69.2195C83.1925 69.168 83.19 69.12 83.192 69.071C83.1895 69.0405 83.187 69.0105 83.1855 68.984C83.1815 68.87 83.181 68.7505 83.1815 68.6355C83.1805 68.574 83.183 68.507 83.1825 68.445C83.186 68.382 83.186 68.325 83.1905 68.2665C83.195 68.208 83.199 68.1495 83.1985 68.088C83.2025 68.087 83.2025 68.087 83.202 68.083C83.2065 68.0245 83.2105 67.966 83.215 67.9075C83.2195 67.849 83.228 67.7895 83.2325 67.731C83.242 67.676 83.2465 67.6175 83.255 67.558C83.305 67.1755 83.3835 66.8035 83.481 66.4365C83.522 66.286 83.5665 66.134 83.617 65.9855C83.635 65.9285 83.653 65.871 83.675 65.813C83.7285 65.6595 83.791 65.508 83.85 65.3575C83.863 65.337 83.871 65.313 83.8795 65.2935C83.9245 65.1815 83.974 65.0685 84.033 64.958C84.067 64.893 84.0995 64.8235 84.1335 64.758C84.137 64.753 84.139 64.7435 84.1425 64.7385L84.5075 66.2825L84.8795 67.838L85.257 69.4365L86.2375 73.5635L86.348 74.029C86.375 74.1465 86.42 74.247 86.4755 74.336C86.5515 74.3405 86.6235 74.3465 86.701 74.3555C87.8395 74.463 88.958 74.986 89.8445 75.7525C90.5235 76.345 91.0805 77.0625 91.5295 77.849C91.6345 78.0195 91.728 78.197 91.8175 78.3755C91.89 78.5185 91.962 78.661 92.026 78.8055C92.129 78.7335 92.225 78.632 92.301 78.4995C92.326 78.454 92.355 78.4075 92.381 78.3665C93.4325 76.7345 95.6825 76.1905 97.4925 76.2155C99.488 76.2425 101.663 76.9585 102.465 78.9815C102.5 79.079 102.558 79.1585 102.631 79.226Z" fill="#2D1A14"/>
<path d="M95.379 75.8355L97.49 75.779L96.307 73.262" stroke="#472A1C" stroke-width="0.7703" stroke-miterlimit="10" stroke-linecap="round" stroke-linejoin="round"/>
<path d="M96.3855 79.9951C97.5575 79.7281 98.291 78.5616 98.024 77.3896L93.78 78.3571C94.047 79.5286 95.214 80.2621 96.3855 79.9951Z" fill="#FFF8F3"/>
<path d="M97.632 62.9416L97.7365 63.3996C97.609 65.3606 96.154 67.0671 94.3615 67.8736C92.5725 68.6751 90.509 68.6811 88.5825 68.2976C87.081 67.9946 85.5255 67.3761 84.5065 66.2821C84.2495 66.0091 84.029 65.7011 83.8495 65.3576C83.8625 65.3371 83.8705 65.3131 83.879 65.2936C83.924 65.1816 83.9735 65.0686 84.0325 64.9581C84.0665 64.8931 84.099 64.8236 84.133 64.7581C84.1365 64.7531 84.1385 64.7436 84.142 64.7386C85.2165 62.6456 87.1505 61.0246 89.5865 60.4426C92.5985 59.7296 95.638 60.7876 97.632 62.9416Z" fill="#2D1A14"/>
<path d="M188.014 172.468C189.48 169.47 193.41 169.36 196.188 168.38C196.737 168.187 198.543 166.864 199.099 167.372C199.875 168.082 198.654 169.333 198.23 169.844C197.478 170.751 196.07 171.192 195.54 171.274C195.417 171.293 194.289 171.533 194.161 171.579C193.751 171.726 193.53 171.886 193.284 172.17C193.073 172.412 192.953 172.991 192.947 173.308C196.85 174.166 200.072 170.449 201.707 167.432C202.802 165.41 204.51 162.838 207.214 163.257C210.301 163.736 210.192 167.364 209.741 169.761C209.256 172.334 208.09 174.576 206.649 176.73C205.158 178.959 203.25 181.674 200.671 182.7C198.177 183.692 194.768 184.58 192.076 184.302C190.835 184.174 189.655 183.978 188.441 183.687C187.558 183.475 186.91 183.472 185.508 183.208C185.508 183.208 187.941 179.714 188.149 174.751L188.014 172.468Z" fill="#FF8772"/>
<path d="M182.928 168.901C170.401 166.572 144.712 157.019 144.712 157.019L139.273 137.44C137.302 129.351 138.04 121.826 134.922 114.053C132.867 108.931 118.721 99.2931 111.535 101.544C105.922 103.303 109.705 115.347 111.464 120.961L127.325 171.599L127.655 172.66C128.655 175.843 131.645 178.138 135.154 178.104L183.535 177.633C184.149 174.638 183.706 171.8 182.928 168.901Z" fill="#463BB0"/>
<path d="M187.268 169.708L164.443 165.465C154.24 163.833 133.927 173.637 133.805 177.818L185.936 184.012C187.957 179.543 188.619 174.584 187.268 169.708Z" fill="#463BB0"/>
<path d="M186.7 184.102C189.275 179.752 190.407 174.411 188.419 169.922L182.366 168.796C182.383 168.99 182.397 169.184 182.408 169.378C182.674 174.084 181.535 178.82 179.921 183.296L186.7 184.102Z" fill="#FFFCD7"/>
<path d="M144.082 161.952C140.252 162.776 135.09 165.002 133.978 169.284" stroke="#2D1A14" stroke-width="1.7136" stroke-miterlimit="10" stroke-linecap="round" stroke-linejoin="round"/>
<path d="M195.301 89.2845C195.595 88.591 195.839 87.867 196.027 87.1145L199.314 74.02C201.299 66.108 196.45 58.01 188.538 56.025C180.626 54.0395 172.528 58.8885 170.542 66.8005L167.257 79.895C167.068 80.647 166.942 81.401 166.873 82.151L195.301 89.2845Z" fill="#9F9FF7"/>
<path d="M174.345 78.0245C171.437 78.5765 168.176 77.621 165.15 75.3265C162.41 73.249 160.29 70.361 159.48 67.6015C158.004 62.577 159.161 58.02 162.574 55.412C164.367 54.0425 166.36 53.5095 168.498 53.827C171.466 54.268 174.616 56.45 176.925 59.663C177.299 60.1835 177.181 60.908 176.66 61.282C176.14 61.6565 175.415 61.537 175.041 61.017C173.535 58.9215 170.935 56.535 168.156 56.122C166.662 55.9 165.257 56.281 163.982 57.2555C160.204 60.1415 161.131 64.995 161.705 66.9475C163.076 71.616 169.08 76.662 173.915 75.7445C173.942 75.7395 173.968 75.734 173.995 75.729C174 75.728 174.006 75.727 174.011 75.726C174.633 75.608 175.236 76.0115 175.364 76.634C175.492 77.2615 175.087 77.8745 174.459 78.0025C174.422 78.01 174.383 78.0175 174.345 78.0245Z" fill="#9F9FF7"/>
<path d="M190.191 73.2539L207.441 74.4229L207.047 78.1994L189.792 84.8049L190.191 73.2539Z" fill="#9F9FF7"/>
<path d="M102.684 180.147H64.0585C61.1515 179.906 58.8645 182.899 59.373 185.658C59.845 188.22 62.2565 189.8 64.449 190.752L46.502 227.462H127.263L121.801 180.147C121.801 180.147 103.269 180.759 102.684 180.147Z" fill="#463BB0"/>
<path d="M83.611 98.522L106.641 144.238C106.641 144.238 116.974 117.316 103.618 100.066L83.611 98.522Z" fill="#FFFCD7"/>
<path d="M105.371 159.557L104.829 202.173" stroke="#2D1A14" stroke-width="1.6316" stroke-miterlimit="10" stroke-linecap="round" stroke-linejoin="round"/>
<path d="M235.983 146.582C235.983 162.007 223.48 174.51 208.058 174.51C192.633 174.51 180.13 162.006 180.13 146.582C180.13 144.469 180.364 142.413 180.812 140.434C181.903 135.572 184.263 131.188 187.529 127.65C192.628 122.118 199.938 118.654 208.058 118.654C218.546 118.654 227.684 124.435 232.456 132.988C234.602 136.828 235.866 141.227 235.975 145.913C235.981 146.136 235.983 146.359 235.983 146.582Z" fill="#4CACBA"/>
<path d="M168.535 67.6021C168.218 67.1561 167.766 66.8601 167.273 66.7286L168.169 65.8326C169.051 64.9511 169.051 63.5091 168.169 62.6276C167.424 61.8821 166.278 61.7696 165.409 62.2856C165.956 61.4111 165.852 60.2381 165.094 59.4796C164.212 58.5981 162.77 58.5981 161.889 59.4796L161.773 59.5946C161.75 59.5846 161.728 59.5741 161.704 59.5641C162.131 58.7146 161.993 57.6481 161.286 56.9416C160.404 56.0601 158.962 56.0601 158.081 56.9416L154.988 60.0346C152.291 59.1891 152.018 58.7551 149.919 61.8151C145.691 67.9806 149.038 69.0376 143.098 78.3751C145.529 80.2181 148.183 81.7166 150.993 82.9026C152.933 81.5796 155.833 79.5841 158.398 77.7521C160.322 76.9636 162.05 75.6716 163.385 74.0406L167.999 70.7621C169.016 70.0401 169.257 68.6181 168.535 67.6021Z" fill="#FF8772"/>
<path d="M143.902 100.826L153.978 82.7596C149.234 81.3901 144.735 78.8396 141.365 75.3586L132.786 87.7426L137.233 96.4596C139.498 97.8496 141.718 99.3101 143.902 100.826Z" fill="#FFFCD7"/>
<path d="M136.417 82.5017L127.856 94.8582L114.122 114.682L61.7425 104.981C61.5025 104.937 61.2265 104.894 60.9815 104.865C54.447 104.087 48.5195 108.754 47.7415 115.288C46.9635 121.822 51.63 127.75 58.1645 128.528L117.107 135.546L118.341 135.695C122.345 136.388 125.759 134.135 127.332 130.538L148.936 91.8007C144.288 89.4852 140.044 86.1567 136.417 82.5017Z" fill="#463BB0"/>
<path d="M60.981 104.865L114.122 114.682L126.402 97.0728" stroke="#2D1A14" stroke-width="1.6316" stroke-miterlimit="10" stroke-linecap="round" stroke-linejoin="round"/>
<path d="M49.187 123.444C49.187 123.444 52.6345 128.605 60.422 129.109" stroke="#2D1A14" stroke-width="1.6316" stroke-miterlimit="10" stroke-linecap="round" stroke-linejoin="round"/>
<path d="M113.614 117.183C112.855 119.534 114.279 123.277 115.505 125.377" stroke="#2D1A14" stroke-width="1.6316" stroke-miterlimit="10" stroke-linecap="round" stroke-linejoin="round"/>
<path d="M67.8045 129.617L115.932 135.387C120.871 136.066 125.717 133.625 128.113 129.253L143.869 101.187" stroke="#2D1A14" stroke-width="1.6316" stroke-miterlimit="10" stroke-linecap="round" stroke-linejoin="round"/>
<path d="M84.8855 97.0116C86.8795 99.0966 88.2395 100.547 91.5935 100.366C94.12 100.229 96.035 97.4651 96.307 94.4736C96.9415 98.3716 99.933 100.456 103.378 99.8216" stroke="#2D1A14" stroke-width="1.6316" stroke-miterlimit="10" stroke-linecap="round" stroke-linejoin="round"/>
<path d="M93.9505 99.6401C93.3465 100.417 96.219 102.556 97.214 102.722C96.2645 103.933 95.617 106.167 95.3065 107.654C95.084 108.72 94.9535 109.796 94.948 110.88L107.095 113.056C107.095 113.056 106.37 107.254 100.206 102.722C100.206 102.722 101.293 101.453 101.293 100.093C101.293 100.093 97.1235 98.8241 96.3075 95.2886C96.3075 95.2886 95.2195 98.0086 93.9505 99.6401Z" fill="#2D1A14" stroke="#2D1A14" stroke-width="1.6316" stroke-miterlimit="10" stroke-linecap="round" stroke-linejoin="round"/>
<path d="M101.564 133.813L106.641 144.238L109.36 134.901L101.564 133.813Z" fill="#2D1A14" stroke="#2D1A14" stroke-width="1.6316" stroke-miterlimit="10" stroke-linecap="round" stroke-linejoin="round"/>
<path d="M70.745 174.423H91.956" stroke="#2D1A14" stroke-width="1.6316" stroke-miterlimit="10" stroke-linecap="round" stroke-linejoin="round"/>
<path d="M112.079 173.88H126.827" stroke="#2D1A14" stroke-width="1.6316" stroke-miterlimit="10" stroke-linecap="round" stroke-linejoin="round"/>
<path d="M54.9725 216.846C65.306 219.021 96.377 220.391 104.466 205.787C104.466 205.787 106.823 216.302 125.314 217.39" stroke="#2D1A14" stroke-width="1.6316" stroke-miterlimit="10" stroke-linecap="round" stroke-linejoin="round"/>
<path d="M86.5175 75.9815C88.8945 74.2275 88.1875 66.372 84.7045 66.0105C83.0715 67.3925 82.638 68.5485 82.706 70.676C82.7925 73.384 85.131 73.94 86.5175 75.9815Z" fill="#2D1A14"/>
<path d="M85.792 76.5256C85.183 74.2231 83.102 73.7366 81.925 71.9926C80.281 69.5561 81.792 69.0666 82.311 66.9611C82.9775 64.2596 77.899 58.6266 83.978 58.5736C85.9465 58.5566 86.93 59.9321 88.652 58.5776C89.6895 57.7616 90.7835 55.3741 92.5175 55.6506C94.029 55.8916 94.649 58.4171 96.135 58.9036C97.5555 59.3691 99.0755 58.6976 100.455 59.5046C103.193 61.1076 102.207 66.0006 99.7515 67.6421C99.828 65.9016 98.2185 64.3026 96.851 63.2911C98.3785 70.0841 88.8825 67.2846 85.792 66.9171C87.495 70.4556 87.168 73.0456 85.792 76.5256Z" fill="#2D1A14"/>
<path d="M235.975 145.913H230.487C228.418 145.913 226.724 144.219 226.724 142.15V141.432C226.724 140.018 227.515 138.78 228.676 138.139C228.635 137.921 228.611 137.698 228.611 137.467V136.752C228.611 134.683 230.305 132.989 232.378 132.989H232.457C234.602 136.828 235.866 141.228 235.975 145.913Z" fill="#9CE5D6"/>
<path d="M229.557 158.047C229.557 161.005 227.137 163.428 224.178 163.428H218.625C219.64 164.103 220.311 165.258 220.311 166.561V167.276C220.311 169.345 218.617 171.042 216.545 171.042H203.179C201.109 171.042 199.415 169.345 199.415 167.276V166.561C199.415 165.19 200.158 163.991 201.256 163.33C198.765 162.863 196.865 160.668 196.865 158.046C196.865 155.389 199.47 154.519 199.723 152.327C200.389 146.565 190.591 148.199 187.562 148.199C184.6 148.199 182.18 145.776 182.18 142.818C182.18 142.293 182.259 141.787 182.403 141.306C181.835 141.083 181.302 140.789 180.812 140.433C181.903 135.571 184.263 131.187 187.529 127.649H213.785C217.673 127.649 220.855 130.83 220.855 134.719C220.855 138.279 218.19 141.243 214.758 141.722C214.832 142.075 214.872 142.442 214.872 142.818C214.872 144.849 213.676 146.755 211.854 147.65C210.056 148.531 207.573 147.166 206.464 149.336C205.781 150.671 206.382 152.668 208.076 152.668C208.52 152.668 224.178 152.668 224.178 152.668C227.137 152.668 229.557 155.088 229.557 158.047Z" fill="#9CE5D6"/>
<path d="M215.932 129.826C215.948 129.601 215.96 129.375 215.96 129.146C215.96 124.114 211.881 120.036 206.85 120.036C201.818 120.036 197.74 124.114 197.74 129.146C197.74 129.375 197.751 129.601 197.768 129.826H215.932Z" fill="#AE4E3E"/>
<path d="M207.119 108.821C205.005 105.82 203.759 102.642 204.263 98.8441C204.661 95.8436 206.327 90.9656 207.792 88.5901C209.138 92.1136 211.037 98.1691 210.919 102.158C210.814 105.735 208.701 106.23 207.119 108.821Z" fill="#898429"/>
<path d="M210.201 110.616C211.432 107.158 213.307 104.306 216.699 102.525C219.379 101.119 224.324 99.6625 227.11 99.488C225.009 102.621 221.161 107.667 217.836 109.874C214.854 111.852 213.23 110.412 210.201 110.616Z" fill="#898429"/>
<path d="M205.11 109.868C201.439 109.865 198.124 109.052 195.311 106.45C193.089 104.395 190.063 100.222 188.967 97.6555C192.622 98.587 198.665 100.526 201.856 102.921C204.718 105.069 203.905 107.082 205.11 109.868Z" fill="#898429"/>
<path d="M207.475 120.449V100.02" stroke="#2D1A14" stroke-width="1.4253" stroke-miterlimit="10" stroke-linecap="round" stroke-linejoin="round"/>
<path d="M198.568 104.058L207.594 112.61L217.571 105.008" stroke="#2D1A14" stroke-width="1.4253" stroke-miterlimit="10" stroke-linecap="round" stroke-linejoin="round"/>
<path d="M203.517 125.145C204.028 125.145 204.442 124.731 204.442 124.22C204.442 123.709 204.028 123.295 203.517 123.295C203.006 123.295 202.592 123.709 202.592 124.22C202.592 124.731 203.006 125.145 203.517 125.145Z" stroke="#2D1A14" stroke-width="1.057" stroke-miterlimit="10" stroke-linecap="round" stroke-linejoin="round"/>
<path d="M207.745 123.56C208.037 123.56 208.273 123.323 208.273 123.031C208.273 122.739 208.037 122.503 207.745 122.503C207.453 122.503 207.216 122.739 207.216 123.031C207.216 123.323 207.453 123.56 207.745 123.56Z" stroke="#2D1A14" stroke-width="1.057" stroke-miterlimit="10" stroke-linecap="round" stroke-linejoin="round"/>
<path d="M208.009 126.4C208.009 126.656 207.802 126.863 207.546 126.863C207.291 126.863 207.084 126.656 207.084 126.4C207.084 126.145 207.291 125.938 207.546 125.938C207.802 125.938 208.009 126.145 208.009 126.4Z" stroke="#2D1A14" stroke-width="1.057" stroke-miterlimit="10" stroke-linecap="round" stroke-linejoin="round"/>
<path d="M212.237 124.947C212.237 125.202 212.03 125.409 211.774 125.409C211.519 125.409 211.312 125.202 211.312 124.947C211.312 124.691 211.519 124.484 211.774 124.484C212.03 124.485 212.237 124.692 212.237 124.947Z" stroke="#2D1A14" stroke-width="1.057" stroke-miterlimit="10" stroke-linecap="round" stroke-linejoin="round"/>
<path d="M193.322 111.584C193.337 111.568 193.346 111.559 193.346 111.559L189.689 104.807C188.475 107.188 186.017 110.057 185.742 112.775C185.514 115.038 187.468 117.044 189.689 117.044C191.864 117.044 193.627 115.281 193.627 113.106C193.627 112.566 193.518 112.052 193.322 111.584Z" fill="#9CE5D6"/>
<path d="M210.62 88.8831C210.636 88.8676 210.645 88.8586 210.645 88.8586L207.198 81.9971C205.911 84.3396 203.366 87.1306 203.007 89.8391C202.708 92.0941 204.599 94.1596 206.819 94.2281C208.993 94.2956 210.811 92.5876 210.878 90.4136C210.895 89.8746 210.802 89.3571 210.62 88.8831Z" fill="#9CE5D6"/>
<path d="M229.217 115.391C229.233 115.375 229.241 115.366 229.241 115.366L225.584 108.614C224.37 110.995 221.912 113.864 221.638 116.582C221.409 118.845 223.363 120.851 225.584 120.851C227.759 120.851 229.523 119.088 229.523 116.913C229.523 116.373 229.414 115.859 229.217 115.391Z" fill="#9CE5D6"/>
<path d="M120.704 64.3311L122.62 69.7191L127.785 67.2641L125.33 72.4286L130.718 74.3446L125.33 76.2601L127.785 81.4246L122.62 78.9696L120.704 84.3576L118.788 78.9696L113.624 81.4246L116.079 76.2601L110.691 74.3446L116.079 72.4286L113.624 67.2641L118.788 69.7191L120.704 64.3311Z" fill="#A595FA"/>
<path d="M131.6 135.993C131.6 135.993 132.222 150.24 128.344 164.519" stroke="#2D1A14" stroke-width="1.7136" stroke-miterlimit="10" stroke-linecap="round" stroke-linejoin="round"/>
<path d="M151.505 64.281L157.318 58.115" stroke="#472A1C" stroke-width="0.7703" stroke-miterlimit="10" stroke-linecap="round" stroke-linejoin="round"/>
<path d="M192.286 60.9341C192.286 60.9341 197.571 63.8406 195.986 72.8251" stroke="#FFF8F3" stroke-width="1.5855" stroke-miterlimit="10" stroke-linecap="round" stroke-linejoin="round"/>
<path d="M175.275 80.1211C176.717 80.4196 178.16 80.7181 179.603 81.0166" stroke="#2D1A14" stroke-width="1.7136" stroke-miterlimit="10" stroke-linecap="round" stroke-linejoin="round"/>
<path d="M175.375 65.6899C174.582 69.6534 174.15 70.8524 173.261 74.9384" stroke="#2D1A14" stroke-width="1.7136" stroke-miterlimit="10" stroke-linecap="round" stroke-linejoin="round"/>
<path d="M191.053 180.019C191.053 180.019 194.841 177.024 198.628 178.698C198.628 178.698 200.39 175.703 203.297 175.263" stroke="#2D1A14" stroke-width="1.057" stroke-miterlimit="10" stroke-linecap="round" stroke-linejoin="round"/>
<path d="M94.6485 72.639C94.6805 72.813 94.517 73.006 94.2225 73.181C94.0475 73.286 93.825 73.3855 93.57 73.4675C93.3705 73.531 93.1525 73.5875 92.92 73.63C92.762 73.659 92.607 73.681 92.457 73.6935C92.35 73.7025 92.2445 73.7095 92.1445 73.711C91.488 73.724 91.0035 73.5785 90.955 73.3135C90.9105 73.0685 91.2555 72.784 91.802 72.569C91.8955 72.531 91.996 72.498 92.101 72.4665C92.281 72.4105 92.477 72.3625 92.6815 72.325C92.9745 72.2695 93.2545 72.2435 93.509 72.241C93.762 72.241 93.9875 72.2625 94.169 72.3045C94.4425 72.371 94.62 72.485 94.6485 72.639Z" fill="white"/>
<path d="M94.2845 72.5925C94.328 72.796 94.3025 72.999 94.2225 73.181C94.0475 73.286 93.825 73.3855 93.57 73.4675C93.3705 73.531 93.1525 73.5875 92.92 73.63C92.762 73.659 92.607 73.681 92.457 73.6935C92.2395 73.5555 92.0815 73.344 92.0235 73.0845C91.9785 72.871 92.008 72.6565 92.101 72.466C92.281 72.41 92.477 72.362 92.6815 72.3245C92.9745 72.269 93.2545 72.243 93.509 72.2405C93.762 72.2405 93.9875 72.262 94.169 72.304C94.2205 72.393 94.261 72.488 94.2845 72.5925Z" fill="#2D1A14"/>
<path d="M93.0985 71.1586L91.6485 72.0746C91.4435 72.2041 91.1705 72.1421 91.041 71.9376C90.9115 71.7326 90.9735 71.4596 91.178 71.3301L92.628 70.4141C92.833 70.2846 93.106 70.3466 93.2355 70.5511C93.365 70.7561 93.303 71.0291 93.0985 71.1586Z" fill="#2D1A14"/>
<path d="M99.783 71.6739C99.809 71.8154 99.7055 71.9704 99.5065 72.1179C99.3165 72.2569 99.0375 72.3919 98.704 72.5004C98.5065 72.5659 98.287 72.6224 98.0565 72.6649C97.852 72.7024 97.6535 72.7259 97.4675 72.7369C97.4035 72.7424 97.3415 72.7454 97.281 72.7459C96.6225 72.7594 96.138 72.6139 96.0895 72.3484C96.0445 72.1014 96.39 71.8189 96.9385 71.6034C97.0225 71.5714 97.1085 71.5389 97.202 71.5114C97.3915 71.4494 97.5995 71.3969 97.818 71.3569C98.1095 71.3039 98.391 71.2774 98.644 71.2754C98.9485 71.2719 99.212 71.3054 99.41 71.3699C99.6225 71.4374 99.7585 71.5404 99.783 71.6739Z" fill="white"/>
<path d="M99.517 71.6489C99.552 71.8079 99.5455 71.9659 99.5065 72.1174C99.3165 72.2564 99.0375 72.3914 98.704 72.4999C98.5065 72.5654 98.287 72.6219 98.0565 72.6644C97.852 72.7019 97.6535 72.7254 97.4675 72.7364C97.295 72.5924 97.1715 72.3994 97.1215 72.1699C97.0715 71.9429 97.105 71.7129 97.202 71.5109C97.3915 71.4489 97.5995 71.3964 97.818 71.3564C98.1095 71.3034 98.391 71.2769 98.644 71.2749C98.9485 71.2714 99.212 71.3049 99.41 71.3694C99.4585 71.4549 99.4965 71.5484 99.517 71.6489Z" fill="#2D1A14"/>
<path d="M98.5275 70.5726L96.901 70.0286C96.6715 69.9516 96.546 69.7011 96.623 69.4711C96.7 69.2416 96.9505 69.1161 97.1805 69.1931L98.807 69.7371C99.0365 69.8141 99.162 70.0646 99.085 70.2946C99.008 70.5246 98.757 70.6496 98.5275 70.5726Z" fill="#2D1A14"/>
<path d="M58.4459 228.537C70.0568 226.197 77.5885 214.968 75.2682 203.458C72.948 191.947 61.6545 184.513 50.0435 186.853C38.4326 189.194 30.9009 200.422 33.2212 211.933C35.5414 223.444 46.8349 230.878 58.4459 228.537Z" fill="#F9A813"/>
<path d="M63.5557 224.969C73.8421 221.068 79.0184 209.567 75.1173 199.28C71.2161 188.994 59.7149 183.818 49.4285 187.719C39.142 191.62 33.9657 203.121 37.8669 213.408C41.768 223.694 53.2693 228.87 63.5557 224.969Z" fill="#FFC05A"/>
<path d="M32.821 206.079L36.765 205.284" stroke="#BC5406" stroke-width="0.7756" stroke-miterlimit="10"/>
<path d="M66.3658 230.541L60.1194 199.553L62.2293 199.127L68.4757 230.116L66.3658 230.541ZM66.4457 226.683C64.6875 227.037 62.953 227.113 61.2423 226.909C59.5272 226.683 58.1217 226.234 57.0259 225.563L57.7273 222.746C58.7615 223.338 60.0108 223.749 61.4753 223.98C62.9399 224.211 64.4084 224.178 65.8809 223.881C67.2215 223.611 68.2784 223.238 69.0516 222.762C69.8247 222.285 70.3559 221.744 70.6452 221.137C70.93 220.507 71.0038 219.852 70.8665 219.171C70.707 218.38 70.3148 217.795 69.6899 217.418C69.0869 217.037 68.339 216.787 67.4463 216.67C66.5711 216.526 65.6168 216.444 64.5835 216.424C63.5502 216.403 62.4993 216.352 61.4307 216.27C60.3797 216.162 59.3901 215.961 58.4619 215.668C57.5557 215.37 56.7723 214.888 56.1118 214.22C55.4468 213.531 54.9903 212.571 54.7422 211.34C54.5029 210.153 54.5913 209.003 55.0074 207.89C55.4409 206.751 56.2463 205.754 57.4234 204.899C58.618 204.018 60.2263 203.373 62.2482 202.966C63.5889 202.696 64.954 202.603 66.3435 202.689C67.7331 202.775 68.9778 203.05 70.0778 203.515L69.5215 206.371C68.3996 205.911 67.2604 205.649 66.1039 205.585C64.943 205.499 63.846 205.56 62.8131 205.768C61.5164 206.029 60.4837 206.409 59.715 206.907C58.9463 207.405 58.4195 207.969 58.1346 208.598C57.8718 209.223 57.809 209.876 57.9463 210.557C58.1102 211.37 58.4937 211.968 59.0966 212.349C59.7216 212.726 60.4694 212.976 61.3402 213.098C62.2329 213.215 63.1982 213.295 64.2359 213.337C65.2692 213.358 66.3092 213.411 67.3558 213.498C68.4243 213.579 69.4117 213.769 70.3179 214.067C71.2461 214.36 72.0405 214.84 72.7011 215.508C73.3616 216.175 73.8137 217.113 74.0574 218.322C74.2921 219.487 74.1928 220.639 73.7592 221.778C73.3212 222.896 72.4939 223.897 71.2773 224.783C70.0782 225.642 68.4677 226.276 66.4457 226.683Z" fill="#BC5406"/>
<path d="M66.3658 230.541L65.8503 230.645L65.9542 231.161L66.4697 231.057L66.3658 230.541ZM60.1194 199.553L60.0155 199.037L59.4999 199.141L59.6038 199.657L60.1194 199.553ZM62.2293 199.127L62.7448 199.023L62.6409 198.508L62.1253 198.612L62.2293 199.127ZM68.4757 230.116L68.5796 230.632L69.0952 230.528L68.9912 230.012L68.4757 230.116ZM61.2423 226.909L61.1736 227.43L61.18 227.431L61.2423 226.909ZM57.0259 225.563L56.5155 225.436L56.4224 225.81L56.7512 226.011L57.0259 225.563ZM57.7273 222.746L57.9886 222.289L57.385 221.944L57.217 222.619L57.7273 222.746ZM61.4753 223.98L61.3935 224.499L61.3935 224.499L61.4753 223.98ZM69.0516 222.762L69.3273 223.209L69.0516 222.762ZM70.6452 221.137L71.1201 221.363L71.1243 221.354L70.6452 221.137ZM69.6899 217.418L69.4085 217.863L69.4181 217.869L69.6899 217.418ZM67.4463 216.67L67.361 217.189L67.3694 217.19L67.3777 217.191L67.4463 216.67ZM64.5835 216.424L64.5939 215.898L64.5835 216.424ZM61.4307 216.27L61.3768 216.793L61.3905 216.794L61.4307 216.27ZM58.4619 215.668L58.2978 216.167L58.3035 216.169L58.4619 215.668ZM56.1118 214.22L55.7332 214.585L55.738 214.59L56.1118 214.22ZM55.0074 207.89L54.5158 207.703L54.5147 207.706L55.0074 207.89ZM57.4234 204.899L57.7324 205.325L57.7355 205.322L57.4234 204.899ZM70.0778 203.515L70.594 203.615L70.6756 203.196L70.2823 203.03L70.0778 203.515ZM69.5215 206.371L69.322 206.858L69.9151 207.101L70.0377 206.472L69.5215 206.371ZM66.1039 205.585L66.0649 206.11L66.0747 206.11L66.1039 205.585ZM58.1346 208.598L57.6554 208.381L57.6499 208.394L58.1346 208.598ZM59.0966 212.349L58.8153 212.794L58.8249 212.8L59.0966 212.349ZM61.3402 213.098L61.2673 213.619L61.2716 213.619L61.3402 213.098ZM64.2359 213.337L64.2144 213.863L64.2255 213.863L64.2359 213.337ZM67.3558 213.498L67.3125 214.022L67.3156 214.022L67.3558 213.498ZM70.3179 214.067L70.1538 214.567L70.1595 214.568L70.3179 214.067ZM72.7011 215.508L73.0748 215.138L72.7011 215.508ZM73.7592 221.778L74.2488 221.97L74.2507 221.965L73.7592 221.778ZM71.2773 224.783L71.5836 225.21L71.5868 225.208L71.2773 224.783ZM66.3658 230.541L66.8814 230.438L60.6349 199.449L60.1194 199.553L59.6038 199.657L65.8503 230.645L66.3658 230.541ZM60.1194 199.553L60.2233 200.068L62.3332 199.643L62.2293 199.127L62.1253 198.612L60.0155 199.037L60.1194 199.553ZM62.2293 199.127L61.7137 199.231L67.9602 230.22L68.4757 230.116L68.9912 230.012L62.7448 199.023L62.2293 199.127ZM68.4757 230.116L68.3718 229.601L66.2619 230.026L66.3658 230.541L66.4697 231.057L68.5796 230.632L68.4757 230.116ZM66.4457 226.683L66.3418 226.168C64.636 226.511 62.9577 226.584 61.3046 226.386L61.2423 226.909L61.18 227.431C62.9484 227.642 64.739 227.564 66.5496 227.199L66.4457 226.683ZM61.2423 226.909L61.311 226.387C59.645 226.168 58.3158 225.736 57.3005 225.114L57.0259 225.563L56.7512 226.011C57.9276 226.732 59.4094 227.197 61.1736 227.43L61.2423 226.909ZM57.0259 225.563L57.5362 225.69L58.2376 222.873L57.7273 222.746L57.217 222.619L56.5155 225.436L57.0259 225.563ZM57.7273 222.746L57.466 223.202C58.5674 223.833 59.8807 224.261 61.3935 224.499L61.4753 223.98L61.5572 223.46C60.141 223.237 58.9556 222.843 57.9886 222.289L57.7273 222.746ZM61.4753 223.98L61.3935 224.499C62.9205 224.74 64.4519 224.705 65.9848 224.396L65.8809 223.881L65.777 223.365C64.3648 223.65 62.9592 223.681 61.5572 223.46L61.4753 223.98ZM65.8809 223.881L65.9848 224.396C67.3586 224.12 68.4817 223.73 69.3273 223.209L69.0516 222.762L68.7758 222.314C68.0752 222.745 67.0845 223.102 65.777 223.365L65.8809 223.881ZM69.0516 222.762L69.3273 223.209C70.1574 222.698 70.7743 222.088 71.12 221.363L70.6452 221.137L70.1704 220.91C69.9375 221.399 69.492 221.873 68.7758 222.314L69.0516 222.762ZM70.6452 221.137L71.1243 221.354C71.4549 220.623 71.541 219.856 71.382 219.067L70.8665 219.171L70.3509 219.275C70.4666 219.849 70.4052 220.392 70.1661 220.92L70.6452 221.137ZM70.8665 219.171L71.382 219.067C71.1968 218.148 70.7269 217.43 69.9616 216.968L69.6899 217.418L69.4181 217.869C69.9027 218.161 70.2172 218.611 70.3509 219.275L70.8665 219.171ZM69.6899 217.418L69.9711 216.974C69.2891 216.542 68.4641 216.273 67.5148 216.148L67.4463 216.67L67.3777 217.191C68.214 217.301 68.8847 217.531 69.4086 217.863L69.6899 217.418ZM67.4463 216.67L67.5315 216.151C66.6279 216.002 65.6483 215.919 64.5939 215.898L64.5835 216.424L64.5731 216.949C65.5854 216.969 66.5142 217.05 67.361 217.189L67.4463 216.67ZM64.5835 216.424L64.5939 215.898C63.5709 215.877 62.5299 215.827 61.4709 215.746L61.4307 216.27L61.3905 216.794C62.4686 216.877 63.5295 216.929 64.5731 216.949L64.5835 216.424ZM61.4307 216.27L61.4846 215.747C60.4661 215.642 59.5117 215.448 58.6203 215.166L58.4619 215.668L58.3035 216.169C59.2684 216.474 60.2933 216.681 61.3768 216.793L61.4307 216.27ZM58.4619 215.668L58.626 215.168C57.7977 214.896 57.0865 214.457 56.4855 213.85L56.1118 214.22L55.738 214.59C56.4581 215.318 57.3137 215.844 58.2978 216.167L58.4619 215.668ZM56.1118 214.22L56.4903 213.855C55.9135 213.257 55.492 212.399 55.2577 211.236L54.7422 211.34L54.2266 211.444C54.4885 212.743 54.98 213.805 55.7333 214.585L56.1118 214.22ZM54.7422 211.34L55.2577 211.236C55.0375 210.144 55.119 209.094 55.5 208.074L55.0074 207.89L54.5147 207.706C54.0637 208.913 53.9684 210.163 54.2266 211.444L54.7422 211.34ZM55.0074 207.89L55.4989 208.077C55.8896 207.051 56.6218 206.131 57.7324 205.325L57.4234 204.899L57.1143 204.473C55.8707 205.377 54.9923 206.451 54.5158 207.703L55.0074 207.89ZM57.4234 204.899L57.7355 205.322C58.8491 204.501 60.378 203.879 62.3522 203.481L62.2482 202.966L62.1443 202.45C60.0745 202.868 58.3868 203.535 57.1112 204.476L57.4234 204.899ZM62.2482 202.966L62.3522 203.481C63.6472 203.22 64.9664 203.131 66.3111 203.214L66.3435 202.689L66.376 202.164C64.9416 202.076 63.5306 202.171 62.1443 202.45L62.2482 202.966ZM66.3435 202.689L66.3111 203.214C67.6511 203.297 68.8362 203.561 69.8732 203.999L70.0778 203.515L70.2823 203.03C69.1195 202.539 67.8151 202.253 66.376 202.164L66.3435 202.689ZM70.0778 203.515L69.5616 203.414L69.0053 206.271L69.5215 206.371L70.0377 206.472L70.594 203.615L70.0778 203.515ZM69.5215 206.371L69.721 205.885C68.5474 205.404 67.3508 205.128 66.133 205.06L66.1039 205.585L66.0747 206.11C67.17 206.171 68.2517 206.419 69.322 206.858L69.5215 206.371ZM66.1039 205.585L66.1428 205.061C64.9391 204.971 63.7937 205.034 62.7092 205.253L62.8131 205.768L62.917 206.284C63.8983 206.086 64.9469 206.026 66.065 206.109L66.1039 205.585ZM62.8131 205.768L62.7092 205.253C61.374 205.522 60.272 205.92 59.429 206.466L59.715 206.907L60.0009 207.349C60.6953 206.899 61.6587 206.537 62.917 206.284L62.8131 205.768ZM59.715 206.907L59.429 206.466C58.6027 207.001 57.9935 207.635 57.6555 208.381L58.1346 208.598L58.6137 208.815C58.8455 208.303 59.2898 207.809 60.0009 207.349L59.715 206.907ZM58.1346 208.598L57.6499 208.394C57.345 209.119 57.2732 209.879 57.4308 210.661L57.9463 210.557L58.4619 210.453C58.3448 209.872 58.3985 209.327 58.6194 208.802L58.1346 208.598ZM57.9463 210.557L57.4308 210.661C57.6181 211.59 58.0712 212.323 58.8154 212.794L59.0966 212.349L59.3779 211.905C58.9161 211.613 58.6024 211.151 58.4619 210.453L57.9463 210.557ZM59.0966 212.349L58.8249 212.8C59.5218 213.22 60.3403 213.489 61.2673 213.619L61.3402 213.098L61.413 212.577C60.5986 212.463 59.9214 212.233 59.3684 211.899L59.0966 212.349ZM61.3402 213.098L61.2716 213.619C62.1822 213.739 63.1633 213.82 64.2144 213.863L64.2359 213.337L64.2574 212.812C63.2331 212.77 62.2837 212.691 61.4087 212.576L61.3402 213.098ZM64.2359 213.337L64.2255 213.863C65.2477 213.883 66.2767 213.936 67.3125 214.022L67.3558 213.498L67.399 212.973C66.3417 212.886 65.2908 212.832 64.2463 212.812L64.2359 213.337ZM67.3558 213.498L67.3156 214.022C68.3471 214.101 69.2924 214.284 70.1538 214.567L70.3179 214.067L70.482 213.567C69.5311 213.255 68.5016 213.058 67.396 212.973L67.3558 213.498ZM70.3179 214.067L70.1595 214.568C71.0094 214.837 71.729 215.273 72.3273 215.878L72.7011 215.508L73.0748 215.138C72.352 214.407 71.4828 213.883 70.4764 213.565L70.3179 214.067ZM72.7011 215.508L72.3273 215.878C72.8962 216.452 73.3122 217.287 73.5418 218.426L74.0574 218.322L74.5729 218.218C74.3152 216.94 73.827 215.898 73.0748 215.138L72.7011 215.508ZM74.0574 218.322L73.5418 218.426C73.7565 219.491 73.6669 220.542 73.2677 221.591L73.7592 221.778L74.2507 221.965C74.7186 220.736 74.8278 219.483 74.5729 218.218L74.0574 218.322ZM73.7592 221.778L73.2695 221.586C72.8764 222.589 72.1238 223.516 70.9678 224.358L71.2773 224.783L71.5868 225.208C72.8639 224.278 73.766 223.202 74.2488 221.97L73.7592 221.778ZM71.2773 224.783L70.9709 224.355C69.8514 225.158 68.318 225.769 66.3418 226.168L66.4457 226.683L66.5496 227.199C68.6174 226.782 70.305 226.127 71.5836 225.21L71.2773 224.783Z" fill="#BC5406"/>
<path d="M68.967 197.949L60.878 220.705C60.878 220.705 71.134 219.483 71.7855 204.745C71.7855 204.745 70.8725 199.617 68.967 197.949Z" fill="#2D1A14"/>
<path d="M53.7835 191.627C50.866 192.215 48.322 193.631 46.3395 195.58C46.145 195.437 45.949 195.297 45.7525 195.158C47.842 193.069 50.5405 191.551 53.6425 190.926C62.0765 189.226 70.3285 194.743 72.0375 203.223C73.0415 208.204 71.566 213.115 68.4705 216.666L67.8005 216.347C70.8455 212.947 72.3095 208.19 71.3365 203.365C69.7055 195.271 61.831 190.005 53.7835 191.627Z" fill="#BC5406"/>
<path d="M42.5235 201.848C41.803 204.169 41.633 206.698 42.147 209.247C43.7785 217.341 51.6525 222.606 59.7 220.985C61.7295 220.576 63.5785 219.766 65.184 218.656L65.9195 219.006C64.1615 220.292 62.11 221.229 59.8415 221.686C51.4075 223.386 43.1555 217.87 41.4465 209.389C40.8995 206.676 41.0915 203.984 41.8765 201.52C42.093 201.627 42.3085 201.737 42.5235 201.848Z" fill="#BC5406"/>
<path d="M68.315 196.511L59.196 221.345" stroke="#2D1A14" stroke-width="0.71" stroke-miterlimit="10"/>
<path d="M40.245 194.012L42.6885 196.917L46.3135 198.045L43.4085 200.488L42.281 204.113L39.837 201.208L36.212 200.08L39.117 197.637L40.245 194.012Z" fill="white"/>
<path d="M35.173 206.962L36.6045 208.664L38.728 209.325L37.026 210.756L36.3655 212.88L34.934 211.178L32.81 210.517L34.512 209.086L35.173 206.962Z" fill="white"/>
<path d="M48.3035 210.246L49.452 211.611L51.156 212.141L49.7905 213.29L49.2605 214.994L48.112 213.628L46.408 213.098L47.7735 211.95L48.3035 210.246Z" fill="white"/>
</g>
<defs>
<clipPath id="clip0_27_233">
<rect width="250" height="250" rx="48" fill="white"/>
</clipPath>
</defs>
</svg>
