<svg width="50" height="50" viewBox="0 0 50 50" fill="none" xmlns="http://www.w3.org/2000/svg">
<path fill-rule="evenodd" clip-rule="evenodd" d="M14.5834 2.08325C13.4328 2.08325 12.5 3.016 12.5 4.16659V6.24992H10.4167C6.96492 6.24992 4.16669 9.04815 4.16669 12.4999V41.6666C4.16669 45.1185 6.96492 47.9166 10.4167 47.9166H27.2938C26.0731 46.7205 25.0619 45.3116 24.32 43.7499H10.4167C9.2661 43.7499 8.33335 42.8172 8.33335 41.6666V22.9166H41.6667V23.5205C43.1717 23.9685 44.575 24.6528 45.8334 25.5305V12.4999C45.8334 9.04815 43.0352 6.24992 39.5834 6.24992H37.5V4.16659C37.5 3.016 36.5673 2.08325 35.4167 2.08325C34.2661 2.08325 33.3334 3.016 33.3334 4.16659V6.24992H16.6667V4.16659C16.6667 3.016 15.7339 2.08325 14.5834 2.08325ZM33.3334 12.4999V10.4166H16.6667V12.4999C16.6667 13.6505 15.7339 14.5833 14.5834 14.5833C13.4328 14.5833 12.5 13.6505 12.5 12.4999V10.4166H10.4167C9.2661 10.4166 8.33335 11.3493 8.33335 12.4999V18.7499H41.6667V12.4999C41.6667 11.3493 40.734 10.4166 39.5834 10.4166H37.5V12.4999C37.5 13.6505 36.5673 14.5833 35.4167 14.5833C34.2661 14.5833 33.3334 13.6505 33.3334 12.4999Z" fill="#4E2473"/>
<path d="M35.4167 33.3333C35.4167 32.1827 36.3494 31.25 37.5 31.25C38.6506 31.25 39.5834 32.1827 39.5834 33.3333V36.8812L41.4169 38.7146C42.2304 39.5283 42.2304 40.8473 41.4169 41.661C40.6034 42.4746 39.2842 42.4746 38.4706 41.661L36.0269 39.2173C35.5892 38.7796 35.3869 38.1954 35.4202 37.6225C35.4179 37.5819 35.4167 37.541 35.4167 37.5V33.3333Z" fill="#4E2473"/>
<path fill-rule="evenodd" clip-rule="evenodd" d="M50 37.5C50 44.4035 44.4035 50 37.5 50C30.5965 50 25 44.4035 25 37.5C25 30.5965 30.5965 25 37.5 25C44.4035 25 50 30.5965 50 37.5ZM29.129 37.5C29.129 42.1231 32.8769 45.871 37.5 45.871C42.1231 45.871 45.871 42.1231 45.871 37.5C45.871 32.8769 42.1231 29.129 37.5 29.129C32.8769 29.129 29.129 32.8769 29.129 37.5Z" fill="#4E2473"/>
</svg>
