<svg width="150" height="150" viewBox="0 0 150 150" fill="none" xmlns="http://www.w3.org/2000/svg">
<rect width="150" height="150" rx="32" fill="white"/>
<path fill-rule="evenodd" clip-rule="evenodd" d="M74.5144 23C57.6868 23 44 36.9112 44 54.0146C44 71.0888 57.6868 85 74.5144 85C91.3132 85 105 71.0888 105 54.0146C104.971 36.9112 91.3132 23 74.5144 23ZM74.5144 83.4185C58.5224 83.4185 45.5272 70.2102 45.5272 53.9854C45.5272 37.7605 58.5224 24.5522 74.5144 24.5522C90.4776 24.5522 103.473 37.7605 103.473 54.0146C103.444 70.2395 90.4776 83.4185 74.5144 83.4185Z" fill="#476BF0"/>
<path d="M30.7492 106.627L31.3783 111.102H30.1037L30.7492 106.627ZM25.7502 116.869H29.1602L29.574 114.338H31.9245L32.3383 116.869H35.7483L32.868 102.218H28.6305L25.7502 116.869ZM50.348 105.436H51.1591C51.9205 105.436 52.4006 105.889 52.4006 107.113C52.4006 108.705 51.5895 108.823 51.1591 108.823H50.348V105.436ZM46.9712 116.869H50.3314V112.041H51.4736C54.8007 112.041 55.827 109.024 55.827 107.096C55.827 105.202 54.6518 102.218 51.4736 102.218H46.9877L46.9712 116.869ZM72.6118 113.499C71.4365 113.499 70.8075 112.108 70.8075 109.51C70.8075 106.912 71.42 105.52 72.6118 105.52C73.8036 105.52 74.416 106.912 74.416 109.51C74.416 112.108 73.8036 113.499 72.6118 113.499ZM72.6118 117.053C76.601 117.053 77.9418 113.298 77.9418 109.527C77.9418 105.755 76.601 102 72.6118 102C68.6225 102 67.2817 105.755 67.2817 109.527C67.2817 113.282 68.6225 117.053 72.6118 117.053ZM79.5971 116.869H82.9574V107.917L84.9934 110.499L87.0294 107.917V116.852H90.3566V102.218H87.5095L84.9769 105.671L82.4442 102.218H79.5971V116.869ZM25.204 108.487H20.3209V111.186H22.1086C21.9762 112.779 21.463 113.583 20.5526 113.583C19.3773 113.583 18.5331 112.192 18.5331 109.594C18.5331 109.426 18.5331 109.258 18.5497 109.108C18.649 106.845 19.3608 105.436 20.9333 105.436C22.0424 105.436 22.6714 105.688 23.5984 106.174L24.5915 103.157C23.7473 102.52 22.2907 102.084 21.2975 102.084C17.4572 102.084 15.1563 104.866 15.0074 109.124C15.0074 109.292 14.9908 109.443 15.0074 109.61C15.0074 113.365 16.4806 117.137 20.4698 117.137C24.4591 117.137 25.2537 113.382 25.2537 109.61C25.2206 109.426 25.2205 108.638 25.204 108.487ZM36.8573 102.235V105.621H40.7142L36.7414 116.902H45.3655V113.483H41.5087L45.1669 102.235H36.8573ZM60.4619 105.436H61.2564C62.0178 105.436 62.4979 105.889 62.4979 107.113C62.4979 108.705 61.6868 108.823 61.2564 108.823H60.4453C60.4619 108.806 60.4619 105.436 60.4619 105.436ZM66.901 116.869L64.0042 110.851C65.1795 109.962 65.9409 108.186 65.9409 106.945C65.9409 105.051 64.7656 102.184 61.5875 102.201H57.1016V116.852H60.4619V111.84L61.1902 111.823L63.0441 116.852L66.901 116.869ZM96.8453 113.499H95.8853V110.968H96.746C97.7227 110.935 98.2027 111.454 98.2027 112.259C98.2027 112.829 97.822 113.499 96.8453 113.499ZM97.8551 106.677C97.8551 107.716 96.8619 107.934 96.3157 107.934H95.8853V105.487H96.2494C96.5639 105.487 97.8551 105.453 97.8551 106.677ZM99.56 109.191C99.56 109.191 101.215 108.219 101.215 105.923C101.215 104.079 99.9408 102.235 97.1764 102.235H92.525V116.886H97.2923C99.7256 116.886 101.712 115.628 101.728 112.661C101.728 110.499 100.454 109.694 99.56 109.191ZM113.812 116.869H117.106V109.694L117.206 110.264L120.317 116.852H123.132V102.218H119.837V109.242L119.755 108.705L116.593 102.218H113.812V116.869ZM125.151 116.869H128.445V110.985H129.24L131.127 116.869H135L132.07 109.175L134.636 102.218H131.06L129.173 107.498H128.462V102.218H125.168L125.151 116.869ZM107.505 106.66L108.134 111.136H106.86L107.505 106.66ZM102.506 116.886H105.916L106.33 114.354H108.681L109.095 116.886H112.521L109.641 102.235H105.403L102.506 116.886Z" fill="#476BF0"/>
<path fill-rule="evenodd" clip-rule="evenodd" d="M62.2745 35.0229C69.582 31.6258 78.488 31.8642 83.255 34.0693C84.7678 34.7845 85.7669 35.2315 86.2236 36.0957C81.2568 34.6951 79.1445 34.4567 74.977 34.5759C69.0682 34.6951 61.2183 37.1386 58.2211 38.9862L56.9081 40.7146C61.2469 38.0326 69.2965 36.3043 73.7781 36.1553C78.7734 36.0957 82.6555 36.5725 86.2236 37.9134C86.0238 38.867 85.5671 39.3438 84.7964 39.8206C70.5525 37.228 62.1318 40.2974 54.5103 45.4824L53.9394 47.181C62.4172 41.1019 72.8361 39.4332 82.8553 41.2509C79.2587 42.5621 74.977 42.8601 71.3803 43.7243C68.2975 44.4693 66.6704 44.6778 62.5885 46.1082C58.4495 47.5386 55.9946 48.9987 54.4532 50.8463C53.7111 51.7403 53.1687 52.7534 53.026 53.8262C52.9689 54.4818 52.9974 55.0778 53.1972 55.644C53.3685 56.1506 53.7396 56.6571 54.1678 57.1637C53.6825 58.0279 53.2543 59.1603 53.968 60.4714C54.2819 61.0972 55.0812 61.6932 55.8519 62.2892L55.6236 62.9448C55.5094 63.7196 55.4237 64.6135 55.909 65.3883C56.7368 66.7889 57.7644 67.6829 59.3629 68.5768C59.6198 69.7092 59.9909 70.633 60.8187 71.4376C62.5885 73.1361 66.5848 76.4438 73.6639 76.9504C78.9732 77.308 82.7697 75.6393 84.2255 74.8943L85.9667 73.9407C82.9981 75.1625 78.0027 75.9074 73.9208 75.5499C67.9835 75.0433 62.6741 70.9906 62.0176 69.8284C62.2174 69.9774 62.5029 70.0966 62.7598 70.186C69.7247 73.6725 78.6878 75.5797 90.1628 70.6926L91.1048 69.739C80.6574 73.1361 71.523 73.0169 61.7036 67.6531C61.8178 67.1465 62.0176 66.6995 62.4743 66.3419C64.9863 67.5041 67.4126 68.4576 70.3242 69.0834C73.7495 69.739 77.6602 69.888 80.8857 69.739C84.1399 69.59 90.5624 67.9213 93.5882 66.2525C93.8736 65.9843 94.0164 65.5671 94.2733 65.2691C88.3359 67.5339 81.2854 68.5768 77.0322 68.249C72.8646 67.9213 69.1824 67.4147 64.2726 65.0903C65.2146 64.7029 66.1851 64.3751 67.1557 64.0772C70.3812 65.0903 73.6639 65.7161 77.5175 65.8949C81.371 66.0737 90.3341 64.5837 95.986 61.0078C96.1572 60.5012 96.3285 59.9351 96.3285 59.9351C96.3285 59.9351 88.4787 64.3155 79.5727 64.3155C75.4051 64.3155 72.8646 63.6898 70.9807 63.213C75.1768 62.4084 80.429 61.7528 86.3664 60.1735C89.3636 59.3689 93.0744 57.5511 94.7585 56.0016C96.1858 54.6606 97.299 52.9024 96.9279 51.1145C96.8423 50.6377 96.2143 49.5053 95.4436 49.1179C96.1858 48.1346 96.1001 47.3002 96.0145 46.5552C95.9289 45.989 95.7005 45.393 95.3865 44.8268C94.8727 44.1117 94.2447 43.5157 93.5026 43.0687C93.6453 42.2939 93.5597 41.5191 93.2171 40.8039C92.4749 39.4928 91.1619 38.3604 88.8783 37.1684C88.7641 36.6917 88.4787 36.0659 87.9934 35.4401C85.1389 32.49 80.4576 31.0596 76.4898 31C76.2615 31 76.0617 31 75.8333 31C71.209 31 67.4982 32.0728 65.2146 33.2051C64.1014 33.8011 63.1879 34.3673 62.2745 35.0229ZM88.6499 39.016C89.6205 39.6716 90.7623 40.655 90.8764 41.6681C89.8203 41.2509 88.707 40.8337 87.6223 40.5358C87.9649 40.1484 88.5072 39.5226 88.6499 39.016ZM83.3977 43.5753C84.5966 43.0985 85.3958 42.5919 86.0809 41.9959C87.6509 42.4429 89.1067 42.9793 90.3055 43.5157C90.1057 43.8435 88.9068 44.9758 88.5358 44.9758C88.5072 44.9758 88.5072 44.9758 88.4787 44.9758C86.8231 44.4991 85.3673 43.9329 83.3977 43.5753ZM92.7889 45.0354C93.7309 45.8698 94.0164 46.4658 93.5597 47.3598C92.9317 46.883 92.2751 46.6446 91.533 46.2572C91.9897 45.8996 92.4179 45.5122 92.7889 45.0354ZM63.7874 48.373C68.1547 47.032 73.2643 45.989 77.86 45.4228C81.0285 45.0056 82.7126 45.393 85.7098 46.2274C78.0027 48.373 70.3812 49.0583 63.1023 51.2933C57.2506 53.0812 55.6806 55.3162 55.6806 55.3162C53.0831 51.5913 62.0747 48.9391 63.7874 48.373ZM67.8978 52.8726C74.349 51.4125 80.3719 50.5185 82.8268 49.8629C85.824 49.0881 87.9363 48.373 89.3921 47.628C89.4492 47.5088 91.847 48.7305 92.0753 48.9987C91.2761 49.6841 90.1628 50.2801 88.9354 50.7271C85.2817 52.1277 78.6022 53.558 75.0626 54.1242C71.4945 54.75 68.5258 55.2268 64.5866 56.2996C62.3031 56.9253 60.7616 57.6703 59.6484 58.4153C58.8206 57.9087 58.3353 57.7597 57.5646 57.1041C60.3049 54.6904 65.8712 53.3494 67.8978 52.8726ZM66.2708 58.7729C72.4079 57.1935 77.8314 56.9253 85.3102 54.8096C88.9068 53.8262 91.533 52.7534 93.16 51.4423C93.3884 51.2039 93.6453 51.0251 93.9022 50.8165C96.0716 54.303 87.9363 57.0147 82.3701 58.2663C79.2872 58.9219 75.034 59.7265 73.6354 59.9649C70.0102 60.5906 68.8113 60.9184 66.2993 61.6932C65.0434 61.1866 63.7874 60.6204 62.6456 60.0245C63.8159 59.5179 65.0719 59.1007 66.2708 58.7729ZM57.7644 59.9351C57.5075 60.1437 57.1935 60.382 56.9652 60.6204C56.4228 60.2926 55.8519 59.5775 56.1374 58.8921C56.6797 59.2795 57.1079 59.5775 57.7644 59.9351ZM60.3049 61.3058C61.3611 61.8124 62.4458 62.2892 63.4448 62.766C62.7598 63.0342 62.1032 63.362 61.5038 63.7494C60.676 63.2726 59.8482 62.7958 59.0204 62.2892C59.3629 61.9614 59.8196 61.6336 60.3049 61.3058ZM59.9053 65.1201C59.6484 65.4777 59.4771 65.7757 59.3915 66.1333C58.5066 65.3585 58.107 64.7327 58.1355 64.0473C58.7064 64.4645 59.3058 64.7923 59.9053 65.1201Z" fill="#476BF0"/>
</svg>
