<svg width="70" height="70" viewBox="0 0 70 70" fill="none" xmlns="http://www.w3.org/2000/svg">
<circle cx="35" cy="35" r="35" fill="#D9D9D9"/>
<path d="M22.4632 52V18.4H37.0072C41.4872 18.4 45.0392 19.344 47.6632 21.232C50.2872 23.12 51.5992 25.952 51.5992 29.728C51.5992 33.472 50.2872 36.288 47.6632 38.176C45.0392 40.064 41.4872 41.008 37.0072 41.008H26.7832L30.2872 37.552V52H22.4632ZM30.2872 38.368L26.7832 34.912H36.9592C39.1032 34.912 40.7672 34.48 41.9512 33.616C43.1352 32.72 43.7272 31.44 43.7272 29.776C43.7272 28.144 43.1352 26.896 41.9512 26.032C40.7672 25.168 39.1032 24.736 36.9592 24.736H26.7832L30.2872 21.04V38.368ZM17.8072 47.68V43.696H40.6552V47.68H17.8072Z" fill="#4E2473"/>
</svg>
