<svg width="70" height="70" viewBox="0 0 70 70" fill="none" xmlns="http://www.w3.org/2000/svg">
<circle cx="35" cy="35" r="35" fill="#D9D9D9"/>
<path d="M20.6731 52L43.6171 18.4H49.3291L26.3851 52H20.6731ZM23.6011 36.544C21.9691 36.544 20.5291 36.176 19.2811 35.44C18.0331 34.672 17.0411 33.6 16.3051 32.224C15.6011 30.816 15.2491 29.168 15.2491 27.28C15.2491 25.392 15.6011 23.76 16.3051 22.384C17.0411 21.008 18.0331 19.936 19.2811 19.168C20.5291 18.4 21.9691 18.016 23.6011 18.016C25.2331 18.016 26.6731 18.4 27.9211 19.168C29.1691 19.936 30.1451 21.008 30.8491 22.384C31.5531 23.76 31.9051 25.392 31.9051 27.28C31.9051 29.168 31.5531 30.816 30.8491 32.224C30.1451 33.6 29.1691 34.672 27.9211 35.44C26.6731 36.176 25.2331 36.544 23.6011 36.544ZM23.6011 32.608C24.6571 32.608 25.5051 32.176 26.1451 31.312C26.7851 30.416 27.1051 29.072 27.1051 27.28C27.1051 25.488 26.7851 24.16 26.1451 23.296C25.5051 22.4 24.6571 21.952 23.6011 21.952C22.5771 21.952 21.7291 22.4 21.0571 23.296C20.4171 24.16 20.0971 25.488 20.0971 27.28C20.0971 29.04 20.4171 30.368 21.0571 31.264C21.7291 32.16 22.5771 32.608 23.6011 32.608ZM46.4011 52.384C44.8011 52.384 43.3611 52.016 42.0811 51.28C40.8331 50.512 39.8571 49.44 39.1531 48.064C38.4491 46.656 38.0971 45.008 38.0971 43.12C38.0971 41.232 38.4491 39.6 39.1531 38.224C39.8571 36.848 40.8331 35.776 42.0811 35.008C43.3611 34.24 44.8011 33.856 46.4011 33.856C48.0651 33.856 49.5211 34.24 50.7691 35.008C52.0171 35.776 52.9931 36.848 53.6971 38.224C54.4011 39.6 54.7531 41.232 54.7531 43.12C54.7531 45.008 54.4011 46.656 53.6971 48.064C52.9931 49.44 52.0171 50.512 50.7691 51.28C49.5211 52.016 48.0651 52.384 46.4011 52.384ZM46.4011 48.448C47.4571 48.448 48.3051 48.016 48.9451 47.152C49.5851 46.256 49.9051 44.912 49.9051 43.12C49.9051 41.36 49.5851 40.032 48.9451 39.136C48.3051 38.24 47.4571 37.792 46.4011 37.792C45.3771 37.792 44.5291 38.24 43.8571 39.136C43.2171 40 42.8971 41.328 42.8971 43.12C42.8971 44.912 43.2171 46.256 43.8571 47.152C44.5291 48.016 45.3771 48.448 46.4011 48.448Z" fill="#4E2473"/>
</svg>
