<svg width="70" height="70" viewBox="0 0 70 70" fill="none" xmlns="http://www.w3.org/2000/svg">
<circle cx="35" cy="35" r="35" fill="#D9D9D9"/>
<path fill-rule="evenodd" clip-rule="evenodd" d="M24.5834 12.0833C23.4328 12.0833 22.5 13.016 22.5 14.1666V16.2499H20.4167C16.9649 16.2499 14.1667 19.0481 14.1667 22.4999V51.6666C14.1667 55.1185 16.9649 57.9166 20.4167 57.9166H37.2938C36.0731 56.7205 35.0619 55.3116 34.32 53.7499H20.4167C19.2661 53.7499 18.3334 52.8172 18.3334 51.6666V32.9166H51.6667V33.5205C53.1717 33.9685 54.575 34.6528 55.8334 35.5305V22.4999C55.8334 19.0481 53.0352 16.2499 49.5834 16.2499H47.5V14.1666C47.5 13.016 46.5673 12.0833 45.4167 12.0833C44.2661 12.0833 43.3334 13.016 43.3334 14.1666V16.2499H26.6667V14.1666C26.6667 13.016 25.7339 12.0833 24.5834 12.0833ZM43.3334 22.4999V20.4166H26.6667V22.4999C26.6667 23.6505 25.7339 24.5833 24.5834 24.5833C23.4328 24.5833 22.5 23.6505 22.5 22.4999V20.4166H20.4167C19.2661 20.4166 18.3334 21.3493 18.3334 22.4999V28.7499H51.6667V22.4999C51.6667 21.3493 50.734 20.4166 49.5834 20.4166H47.5V22.4999C47.5 23.6505 46.5673 24.5833 45.4167 24.5833C44.2661 24.5833 43.3334 23.6505 43.3334 22.4999Z" fill="#4E2473"/>
<path d="M45.4167 43.3333C45.4167 42.1827 46.3494 41.25 47.5 41.25C48.6506 41.25 49.5834 42.1827 49.5834 43.3333V46.8812L51.4169 48.7146C52.2304 49.5283 52.2304 50.8473 51.4169 51.661C50.6034 52.4746 49.2842 52.4746 48.4706 51.661L46.0269 49.2173C45.5892 48.7796 45.3869 48.1954 45.4202 47.6225C45.4179 47.5819 45.4167 47.541 45.4167 47.5V43.3333Z" fill="#4E2473"/>
<path fill-rule="evenodd" clip-rule="evenodd" d="M60 47.5C60 54.4035 54.4035 60 47.5 60C40.5965 60 35 54.4035 35 47.5C35 40.5965 40.5965 35 47.5 35C54.4035 35 60 40.5965 60 47.5ZM39.129 47.5C39.129 52.1231 42.8769 55.871 47.5 55.871C52.1231 55.871 55.871 52.1231 55.871 47.5C55.871 42.8769 52.1231 39.129 47.5 39.129C42.8769 39.129 39.129 42.8769 39.129 47.5Z" fill="#4E2473"/>
</svg>
