<svg width="77" height="28" viewBox="0 0 77 28" fill="none" xmlns="http://www.w3.org/2000/svg">
<path d="M14.7617 21.8125V28H0.154297V21.8125H2.9668V6.2207H0.154297V0.0332031H14.7617V6.2207H11.9668V21.8125H14.7617ZM28.5781 21.707V28H17.3809V21.707H20.2285V6.18555H17.4512V-0.00195312H30.3711L39.125 16.627V6.2207H36.3125V0.0332031H47.5098V6.2207H44.7324V28H34.0801L25.7656 12.5488V21.707H28.5781ZM65.3867 28H49.6191V21.8125H53.0117V6.2207H50.0938V-0.00195312H64.3848C66.7051 -0.00195312 68.6855 0.185547 70.3262 0.560547C71.9316 0.947266 73.209 1.68555 74.1582 2.77539C75.1074 3.85352 75.582 5.38281 75.582 7.36328C75.582 8.75781 75.1777 9.9707 74.3691 11.002C73.5605 12.0332 72.5352 12.7773 71.293 13.2344C72.9219 13.9375 74.123 14.8457 74.8965 15.959C75.6816 17.0723 76.0742 18.6016 76.0742 20.5469C76.0742 22.9258 75.1426 24.7656 73.2793 26.0664C71.4277 27.3555 68.7969 28 65.3867 28ZM62.0117 6.2207V11.3008H62.9785C64.3145 11.3008 65.2988 11.1133 65.9316 10.7383C66.5762 10.3633 66.8984 9.66016 66.8984 8.62891C66.8984 7.91406 66.6758 7.33398 66.2305 6.88867C65.7852 6.44336 65.2051 6.2207 64.4902 6.2207H62.0117ZM62.0117 15.9062V21.8125H62.6445C64.0625 21.8125 65.1523 21.6133 65.9141 21.2148C66.6875 20.8164 67.0742 19.9961 67.0742 18.7539C67.0742 16.832 65.9023 15.8711 63.5586 15.8711C63.3008 15.8711 63.043 15.877 62.7852 15.8887C62.5273 15.8887 62.2695 15.8945 62.0117 15.9062Z" fill="white"/>
</svg>
