<svg width="254" height="254" viewBox="0 0 254 254" fill="none" xmlns="http://www.w3.org/2000/svg">
<rect width="254" height="254" rx="48" fill="url(#paint0_linear_27_739)"/>
<path d="M66.0472 147.764V164.264H27.0941V147.764H34.5941V106.186H27.0941V89.6855H66.0472V106.186H58.5941V147.764H66.0472ZM102.891 147.482V164.264H73.0316V147.482H80.6254V106.092H73.2191V89.5918H107.672L131.016 133.936V106.186H123.516V89.6855H153.375V106.186H145.969V164.264H117.563L95.391 123.061V147.482H102.891ZM201.047 164.264H159V147.764H168.047V106.186H160.266V89.5918H198.375C204.563 89.5918 209.844 90.0918 214.219 91.0918C218.5 92.123 221.907 94.0918 224.438 96.998C226.969 99.873 228.235 103.951 228.235 109.232C228.235 112.951 227.157 116.186 225 118.936C222.844 121.686 220.11 123.67 216.797 124.889C221.141 126.764 224.344 129.186 226.407 132.154C228.5 135.123 229.547 139.201 229.547 144.389C229.547 150.732 227.063 155.639 222.094 159.107C217.157 162.545 210.141 164.264 201.047 164.264ZM192.047 106.186V119.732H194.625C198.188 119.732 200.813 119.232 202.5 118.232C204.219 117.232 205.078 115.357 205.078 112.607C205.078 110.701 204.485 109.154 203.297 107.967C202.11 106.779 200.563 106.186 198.657 106.186H192.047ZM192.047 132.014V147.764H193.735C197.516 147.764 200.422 147.232 202.453 146.17C204.516 145.107 205.547 142.92 205.547 139.607C205.547 134.482 202.422 131.92 196.172 131.92C195.485 131.92 194.797 131.936 194.11 131.967C193.422 131.967 192.735 131.982 192.047 132.014Z" fill="white"/>
<defs>
<linearGradient id="paint0_linear_27_739" x1="254" y1="254" x2="30.4293" y2="-24.4335" gradientUnits="userSpaceOnUse">
<stop/>
<stop offset="0.25" stop-color="#251730"/>
<stop offset="0.5" stop-color="#232146" stop-opacity="0.96"/>
<stop offset="0.75" stop-color="#111123"/>
<stop offset="1"/>
</linearGradient>
</defs>
</svg>
