<svg width="204" height="75" viewBox="0 0 204 75" fill="none" xmlns="http://www.w3.org/2000/svg">
<path d="M39.5312 58.5V75H0.578125V58.5H8.07812V16.9219H0.578125V0.421875H39.5312V16.9219H32.0781V58.5H39.5312ZM76.375 58.2188V75H46.5156V58.2188H54.1094V16.8281H46.7031V0.328125H81.1562L104.5 44.6719V16.9219H97V0.421875H126.859V16.9219H119.453V75H91.0469L68.875 33.7969V58.2188H76.375ZM174.531 75H132.484V58.5H141.531V16.9219H133.75V0.328125H171.859C178.047 0.328125 183.328 0.828125 187.703 1.82812C191.984 2.85938 195.391 4.82812 197.922 7.73438C200.453 10.6094 201.719 14.6875 201.719 19.9688C201.719 23.6875 200.641 26.9219 198.484 29.6719C196.328 32.4219 193.594 34.4062 190.281 35.625C194.625 37.5 197.828 39.9219 199.891 42.8906C201.984 45.8594 203.031 49.9375 203.031 55.125C203.031 61.4688 200.547 66.375 195.578 69.8438C190.641 73.2812 183.625 75 174.531 75ZM165.531 16.9219V30.4688H168.109C171.672 30.4688 174.297 29.9688 175.984 28.9688C177.703 27.9688 178.562 26.0938 178.562 23.3438C178.562 21.4375 177.969 19.8906 176.781 18.7031C175.594 17.5156 174.047 16.9219 172.141 16.9219H165.531ZM165.531 42.75V58.5H167.219C171 58.5 173.906 57.9688 175.938 56.9062C178 55.8438 179.031 53.6562 179.031 50.3438C179.031 45.2188 175.906 42.6562 169.656 42.6562C168.969 42.6562 168.281 42.6719 167.594 42.7031C166.906 42.7031 166.219 42.7188 165.531 42.75Z" fill="white"/>
</svg>
