<svg width="270" height="100" viewBox="0 0 270 100" fill="none" xmlns="http://www.w3.org/2000/svg">
<path d="M51.9375 77.5625V99.5625H0V77.5625H10V22.125H0V0.125H51.9375V22.125H42V77.5625H51.9375ZM101.062 77.1875V99.5625H61.25V77.1875H71.375V22H61.5V0H107.438L138.562 59.125V22.125H128.562V0.125H168.375V22.125H158.5V99.5625H120.625L91.0625 44.625V77.1875H101.062ZM231.938 99.5625H175.875V77.5625H187.938V22.125H177.562V0H228.375C236.625 0 243.667 0.666667 249.5 2C255.208 3.375 259.75 6 263.125 9.875C266.5 13.7083 268.188 19.1458 268.188 26.1875C268.188 31.1458 266.75 35.4583 263.875 39.125C261 42.7917 257.354 45.4375 252.938 47.0625C258.729 49.5625 263 52.7917 265.75 56.75C268.542 60.7083 269.938 66.1458 269.938 73.0625C269.938 81.5208 266.625 88.0625 260 92.6875C253.417 97.2708 244.062 99.5625 231.938 99.5625ZM219.938 22.125V40.1875H223.375C228.125 40.1875 231.625 39.5208 233.875 38.1875C236.167 36.8542 237.312 34.3542 237.312 30.6875C237.312 28.1458 236.521 26.0833 234.938 24.5C233.354 22.9167 231.292 22.125 228.75 22.125H219.938ZM219.938 56.5625V77.5625H222.188C227.229 77.5625 231.104 76.8542 233.812 75.4375C236.562 74.0208 237.938 71.1042 237.938 66.6875C237.938 59.8542 233.771 56.4375 225.438 56.4375C224.521 56.4375 223.604 56.4583 222.688 56.5C221.771 56.5 220.854 56.5208 219.938 56.5625Z" fill="white"/>
</svg>
