<svg width="47" height="58" viewBox="0 0 47 58" fill="none" xmlns="http://www.w3.org/2000/svg">
<g filter="url(#filter0_d_273_115)">
<path d="M38.88 28.8698C36.9573 25.7527 31.9648 23.6013 25.5268 23.1128C25.2369 23.0886 24.9605 23.1885 24.751 23.3815C24.6109 23.5113 24.4519 23.6914 24.2753 23.8953C23.9834 24.2356 23.6812 24.5877 23.3816 24.6752C23.083 24.5882 22.7798 24.2356 22.4689 23.8737C22.3067 23.6863 22.1492 23.5071 22.0081 23.3784C21.7986 23.1864 21.5181 23.0886 21.2359 23.1108C14.801 23.5931 9.80286 25.7558 7.84509 28.931C7.54085 29.4695 0.461901 42.2009 6.30122 49.6073C6.49633 49.8554 6.7944 50.0001 7.10945 50.0001H39.6522C39.9673 50.0001 40.2654 49.8559 40.4605 49.6073C46.3724 42.1098 38.9717 29.0288 38.88 28.8698ZM25.2678 42.1582C25.2642 42.2781 25.2338 42.3965 25.1757 42.5031L24.0539 44.5896C23.9191 44.8397 23.657 44.9968 23.3739 44.9968C23.0908 44.9968 22.8282 44.8397 22.6944 44.5896L21.5721 42.5031C21.5155 42.3965 21.4836 42.2781 21.4805 42.1582L21.0831 27.1951C21.0758 26.9413 21.1953 26.7004 21.3991 26.5506L22.9178 25.4423C23.1891 25.2441 23.5566 25.2441 23.8285 25.4423L25.3481 26.5506C25.553 26.7004 25.6719 26.9413 25.6647 27.1951L25.2678 42.1582Z" fill="#4E2473"/>
</g>
<g filter="url(#filter1_d_273_115)">
<path d="M23.1947 21.8263C29.2116 21.8263 34.1073 16.9301 34.1073 10.9126C34.1073 4.8957 29.2111 0 23.1947 0C17.1772 0 12.281 4.8957 12.281 10.9126C12.281 16.9301 17.1767 21.8263 23.1947 21.8263Z" fill="#4E2473"/>
</g>
<defs>
<filter id="filter0_d_273_115" x="0" y="23.1077" width="46.7485" height="34.8923" filterUnits="userSpaceOnUse" color-interpolation-filters="sRGB">
<feFlood flood-opacity="0" result="BackgroundImageFix"/>
<feColorMatrix in="SourceAlpha" type="matrix" values="0 0 0 0 0 0 0 0 0 0 0 0 0 0 0 0 0 0 127 0" result="hardAlpha"/>
<feOffset dy="4"/>
<feGaussianBlur stdDeviation="2"/>
<feComposite in2="hardAlpha" operator="out"/>
<feColorMatrix type="matrix" values="0 0 0 0 0 0 0 0 0 0 0 0 0 0 0 0 0 0 0.5 0"/>
<feBlend mode="normal" in2="BackgroundImageFix" result="effect1_dropShadow_273_115"/>
<feBlend mode="normal" in="SourceGraphic" in2="effect1_dropShadow_273_115" result="shape"/>
</filter>
<filter id="filter1_d_273_115" x="8.28101" y="0" width="29.8262" height="29.8262" filterUnits="userSpaceOnUse" color-interpolation-filters="sRGB">
<feFlood flood-opacity="0" result="BackgroundImageFix"/>
<feColorMatrix in="SourceAlpha" type="matrix" values="0 0 0 0 0 0 0 0 0 0 0 0 0 0 0 0 0 0 127 0" result="hardAlpha"/>
<feOffset dy="4"/>
<feGaussianBlur stdDeviation="2"/>
<feComposite in2="hardAlpha" operator="out"/>
<feColorMatrix type="matrix" values="0 0 0 0 0 0 0 0 0 0 0 0 0 0 0 0 0 0 0.5 0"/>
<feBlend mode="normal" in2="BackgroundImageFix" result="effect1_dropShadow_273_115"/>
<feBlend mode="normal" in="SourceGraphic" in2="effect1_dropShadow_273_115" result="shape"/>
</filter>
</defs>
</svg>
