<svg width="87" height="59" viewBox="0 0 87 59" fill="none" xmlns="http://www.w3.org/2000/svg">
<g filter="url(#filter0_d_272_97)">
<rect x="4" y="17.9243" width="30" height="41" transform="rotate(-36.455 4 17.9243)" fill="#4E2473"/>
<rect x="4.69926" y="18.0294" width="29" height="40" transform="rotate(-36.455 4.69926 18.0294)" stroke="#4E2473"/>
</g>
<line x1="9.89114" y1="19.1669" x2="27.5863" y2="6.09471" stroke="white"/>
<line x1="28.9053" y1="44.9055" x2="46.6004" y2="31.8332" stroke="white"/>
<line x1="21.7749" y1="35.2534" x2="27.4052" y2="31.094" stroke="white"/>
<line x1="34.6441" y1="25.7465" x2="39.47" y2="22.1814" stroke="white"/>
<line x1="28.2095" y1="30.4999" x2="33.8398" y2="26.3406" stroke="white"/>
<line x1="27.1228" y1="42.4924" x2="32.7531" y2="38.333" stroke="white"/>
<line x1="39.992" y1="32.9853" x2="44.8179" y2="29.4201" stroke="white"/>
<line x1="33.5574" y1="37.739" x2="39.1877" y2="33.5796" stroke="white"/>
<line x1="25.3401" y1="40.0795" x2="30.9704" y2="35.9202" stroke="white"/>
<line x1="38.2093" y1="30.5724" x2="43.0352" y2="27.0073" stroke="white"/>
<line x1="31.7747" y1="35.3259" x2="37.4049" y2="31.1665" stroke="white"/>
<line x1="23.5576" y1="37.6664" x2="29.1879" y2="33.5071" stroke="white"/>
<line x1="36.4268" y1="28.1594" x2="41.2527" y2="24.5942" stroke="white"/>
<line x1="29.9922" y1="32.913" x2="35.6225" y2="28.7537" stroke="white"/>
<line x1="18.2097" y1="30.4274" x2="31.0789" y2="20.9204" stroke="white"/>
<line x1="16.4273" y1="28.0146" x2="29.2964" y2="18.5075" stroke="white"/>
<line x1="19.9925" y1="32.8405" x2="35.2746" y2="21.5509" stroke="white"/>
<line x1="14.0506" y1="24.7973" x2="22.8981" y2="18.2612" stroke="white"/>
<line x1="12.2678" y1="22.3842" x2="28.3543" y2="10.5004" stroke="white"/>
<g filter="url(#filter1_d_272_97)">
<rect x="58.6106" width="30" height="41" transform="rotate(36.46 58.6106 0)" fill="#4E2473"/>
<rect x="58.7156" y="0.699267" width="29" height="40" transform="rotate(36.46 58.7156 0.699267)" stroke="#4E2473"/>
</g>
<line x1="59.1536" y1="5.9963" x2="76.8476" y2="19.0701" stroke="white"/>
<line x1="40.1372" y1="31.7329" x2="57.8312" y2="44.8066" stroke="white"/>
<line x1="47.2683" y1="22.0818" x2="52.8982" y2="26.2416" stroke="white"/>
<line x1="60.1367" y1="31.5898" x2="64.9624" y2="35.1554" stroke="white"/>
<line x1="53.7024" y1="26.8359" x2="59.3323" y2="30.9957" stroke="white"/>
<line x1="41.9199" y1="29.3203" x2="47.5498" y2="33.4801" stroke="white"/>
<line x1="54.7883" y1="38.8283" x2="59.614" y2="42.3939" stroke="white"/>
<line x1="48.354" y1="34.0742" x2="53.9839" y2="38.234" stroke="white"/>
<line x1="43.7026" y1="26.9074" x2="49.3326" y2="31.0673" stroke="white"/>
<line x1="56.5711" y1="36.4155" x2="61.3967" y2="39.9811" stroke="white"/>
<line x1="50.137" y1="31.6613" x2="55.7669" y2="35.8212" stroke="white"/>
<line x1="45.4856" y1="24.4946" x2="51.1155" y2="28.6544" stroke="white"/>
<line x1="58.3538" y1="34.0026" x2="63.1794" y2="37.5682" stroke="white"/>
<line x1="51.9197" y1="29.2485" x2="57.5496" y2="33.4083" stroke="white"/>
<line x1="50.8338" y1="17.2561" x2="63.7021" y2="26.7642" stroke="white"/>
<line x1="52.6167" y1="14.8432" x2="65.4851" y2="24.3514" stroke="white"/>
<line x1="49.051" y1="19.6689" x2="64.3322" y2="30.9599" stroke="white"/>
<line x1="54.9937" y1="11.6262" x2="63.8407" y2="18.1631" stroke="white"/>
<line x1="56.7764" y1="9.21334" x2="72.8618" y2="21.0986" stroke="white"/>
<g filter="url(#filter2_d_272_97)">
<rect x="28.2458" width="30" height="45" fill="#4E2473"/>
<rect x="28.7458" y="0.5" width="29" height="44" stroke="#4E2473"/>
</g>
<line x1="32.2458" y1="4.98779" x2="54.2458" y2="4.98779" stroke="white"/>
<line x1="32.2458" y1="40.1099" x2="54.2458" y2="40.1099" stroke="white"/>
<line x1="32.2458" y1="26.939" x2="39.2458" y2="26.939" stroke="white"/>
<line x1="48.2458" y1="26.939" x2="54.2458" y2="26.939" stroke="white"/>
<line x1="40.2458" y1="26.939" x2="47.2458" y2="26.939" stroke="white"/>
<line x1="32.2458" y1="36.8171" x2="39.2458" y2="36.8171" stroke="white"/>
<line x1="48.2458" y1="36.8171" x2="54.2458" y2="36.8171" stroke="white"/>
<line x1="40.2458" y1="36.8171" x2="47.2458" y2="36.8171" stroke="white"/>
<line x1="32.2458" y1="33.5244" x2="39.2458" y2="33.5244" stroke="white"/>
<line x1="48.2458" y1="33.5244" x2="54.2458" y2="33.5244" stroke="white"/>
<line x1="40.2458" y1="33.5244" x2="47.2458" y2="33.5244" stroke="white"/>
<line x1="32.2458" y1="30.2317" x2="39.2458" y2="30.2317" stroke="white"/>
<line x1="48.2458" y1="30.2317" x2="54.2458" y2="30.2317" stroke="white"/>
<line x1="40.2458" y1="30.2317" x2="47.2458" y2="30.2317" stroke="white"/>
<line x1="32.2458" y1="20.3538" x2="48.2458" y2="20.3538" stroke="white"/>
<line x1="32.2458" y1="17.061" x2="48.2458" y2="17.061" stroke="white"/>
<line x1="32.2458" y1="23.6462" x2="51.2458" y2="23.6462" stroke="white"/>
<line x1="32.2458" y1="12.6707" x2="43.2458" y2="12.6707" stroke="white"/>
<line x1="32.2458" y1="9.37793" x2="52.2458" y2="9.37793" stroke="white"/>
<circle cx="43.2458" cy="31" r="25" fill="white"/>
<mask id="path-65-inside-1_272_97" fill="white">
<path d="M62.353 47.1217C62.3642 47.1049 62.3809 47.0882 62.3921 47.0714C66.0472 42.7243 68.2458 37.1217 68.2458 31C68.2458 24.8783 66.0472 19.2757 62.3976 14.9286C62.3865 14.9118 62.3697 14.9007 62.3586 14.8839C62.2972 14.8114 62.2414 14.7444 62.18 14.6775C62.1577 14.6496 62.1354 14.6272 62.113 14.5993L61.8842 14.3371L61.8787 14.3315C61.795 14.2366 61.7057 14.1417 61.622 14.0469L61.6164 14.0413C61.4378 13.8516 61.2592 13.6618 61.0751 13.4777L61.0695 13.4721L60.8017 13.2042L60.7849 13.1875C60.7012 13.1038 60.6175 13.0257 60.5338 12.9475C60.5059 12.9196 60.478 12.8917 60.4445 12.8638C60.3887 12.808 60.3329 12.7578 60.2771 12.7076C60.2604 12.6908 60.238 12.6741 60.2213 12.6518C55.7682 8.52232 49.8028 6 43.2458 6C36.6889 6 30.7235 8.52232 26.2648 12.6518C26.2481 12.6685 26.2258 12.6853 26.209 12.7076C26.1532 12.7578 26.0974 12.8136 26.0416 12.8694C26.0137 12.8973 25.9858 12.9252 25.9523 12.9531C25.8686 13.0313 25.7849 13.115 25.7012 13.1931L25.6845 13.2098L25.4166 13.4777L25.411 13.4833C25.2269 13.6674 25.0483 13.8571 24.8697 14.0469L24.8642 14.0525C24.7749 14.1473 24.6912 14.2422 24.6075 14.3371L24.6019 14.3426C24.5238 14.4263 24.4456 14.5156 24.3731 14.6049C24.3508 14.6328 24.3284 14.6551 24.3061 14.683C24.2447 14.75 24.1889 14.8225 24.1275 14.8895C24.1164 14.9063 24.0996 14.9174 24.0885 14.9342C20.4445 19.2757 18.2458 24.8783 18.2458 31C18.2458 37.1217 20.4445 42.7243 24.0941 47.0714C24.1052 47.0882 24.122 47.1049 24.1331 47.1217L24.3061 47.3281C24.3284 47.356 24.3508 47.3783 24.3731 47.4062L24.6019 47.6685C24.6019 47.6741 24.6075 47.6741 24.6075 47.6797C24.6912 47.7746 24.7749 47.8694 24.8642 47.9587L24.8697 47.9643C25.0483 48.154 25.2269 48.3437 25.4054 48.5279L25.411 48.5335C25.5003 48.6228 25.584 48.7121 25.6733 48.7958L25.69 48.8125C25.8742 48.9967 26.0639 49.1752 26.2537 49.3482C30.7235 53.4777 36.6889 56 43.2458 56C49.8028 56 55.7682 53.4777 60.2269 49.3482C60.417 49.174 60.6031 48.9953 60.7849 48.8125L60.8017 48.7958C60.8909 48.7065 60.9802 48.6228 61.0639 48.5335L61.0695 48.5279C61.2537 48.3437 61.4322 48.154 61.6052 47.9643L61.6108 47.9587C61.6945 47.8638 61.7838 47.7746 61.8675 47.6797C61.8675 47.6741 61.8731 47.6741 61.8731 47.6685C61.9512 47.5848 62.0293 47.4955 62.1019 47.4062C62.1242 47.3783 62.1465 47.356 62.1688 47.3281C62.2319 47.2608 62.2933 47.192 62.353 47.1217ZM62.5818 39.1641C61.8117 40.9833 60.7961 42.6685 59.5572 44.1975C58.162 42.9918 56.6366 41.9455 55.0092 41.0781C55.6566 38.4609 56.0583 35.5871 56.1644 32.5625H64.1722C64.0048 34.8449 63.4691 37.0603 62.5818 39.1641ZM64.1722 29.4375H56.1644C56.0583 26.4129 55.6566 23.5391 55.0092 20.9219C56.6443 20.0513 58.1677 19.0022 59.5572 17.8025C62.2501 21.117 63.861 25.1782 64.1722 29.4375ZM51.4099 11.6641C53.6253 12.6016 55.6398 13.8962 57.4144 15.5257C56.3835 16.4034 55.2739 17.1843 54.0996 17.8583C53.2235 15.3471 52.1019 13.1652 50.7961 11.4185C51.0025 11.4967 51.209 11.5804 51.4099 11.6641ZM46.3541 50.76C45.8407 51.1618 45.3273 51.4687 44.8083 51.6752V41.3237C47.0226 41.4781 49.2 41.9712 51.2648 42.7857C50.8017 44.1585 50.2659 45.4252 49.6465 46.5692C48.6755 48.3772 47.5371 49.8225 46.3541 50.76ZM49.6465 15.4308C50.2604 16.5804 50.8017 17.8471 51.2648 19.2143C49.2 20.0288 47.0226 20.5219 44.8083 20.6763V10.3304C45.3217 10.5368 45.8407 10.8382 46.3541 11.2455C47.5371 12.1775 48.6755 13.6228 49.6465 15.4308ZM44.8083 38.1931V32.5625H53.0394C52.9501 35.029 52.6432 37.423 52.1298 39.6942L52.113 39.7612C49.7711 38.8731 47.3084 38.3444 44.8083 38.1931ZM44.8083 29.4375V23.8069C47.3642 23.6507 49.8195 23.1094 52.113 22.2388L52.1298 22.3058C52.6432 24.577 52.9501 26.9654 53.0394 29.4375H44.8083ZM41.6833 32.5625V38.1931C39.1275 38.3493 36.6722 38.8906 34.3787 39.7612L34.3619 39.6942C33.8485 37.423 33.5416 35.0346 33.4523 32.5625H41.6833ZM33.4523 29.4375C33.5416 26.971 33.8485 24.577 34.3619 22.3058L34.3787 22.2388C36.6722 23.1094 39.122 23.6507 41.6833 23.8069V29.4375H33.4523ZM41.6833 41.3237V51.6696C41.17 51.4632 40.651 51.1618 40.1376 50.7545C38.9546 49.8225 37.8106 48.3717 36.8396 46.5636C36.2258 45.4141 35.6845 44.1473 35.2213 42.7801C37.2972 41.9654 39.4568 41.4799 41.6833 41.3237ZM41.6833 20.6763C39.4691 20.5219 37.2917 20.0288 35.2269 19.2143C35.69 17.8415 36.2258 16.5748 36.8452 15.4308C37.8162 13.6228 38.9546 12.1719 40.1432 11.24C40.6566 10.8382 41.17 10.5312 41.6889 10.3248V20.6763H41.6833ZM35.0818 11.6641C35.2883 11.5804 35.4892 11.4967 35.6956 11.4185C34.3898 13.1652 33.2682 15.3471 32.3921 17.8583C31.2202 17.1886 30.1097 16.4074 29.0773 15.5257C30.8519 13.8962 32.8664 12.6016 35.0818 11.6641ZM23.9099 22.8359C24.68 21.0167 25.6956 19.3315 26.9345 17.8025C28.324 19.0022 29.8474 20.0513 31.4825 20.9219C30.8351 23.5391 30.4333 26.4129 30.3273 29.4375H22.3195C22.4869 27.1551 23.0226 24.9397 23.9099 22.8359ZM22.3195 32.5625H30.3273C30.4333 35.5871 30.8351 38.4609 31.4825 41.0781C29.8551 41.9455 28.3297 42.9918 26.9345 44.1975C24.2415 40.883 22.6307 36.8218 22.3195 32.5625ZM35.0818 50.3359C32.8664 49.3984 30.8519 48.1038 29.0773 46.4743C30.1097 45.5926 31.2202 44.817 32.3921 44.1417C33.2682 46.6529 34.3898 48.8348 35.6956 50.5815C35.4892 50.5033 35.2827 50.4196 35.0818 50.3359ZM51.4099 50.3359C51.2034 50.4196 51.0025 50.5033 50.7961 50.5815C52.1019 48.8348 53.2235 46.6529 54.0996 44.1417C55.2715 44.8114 56.382 45.5926 57.4144 46.4743C55.6497 48.097 53.6184 49.4033 51.4099 50.3359Z"/>
</mask>
<path d="M62.353 47.1217C62.3642 47.1049 62.3809 47.0882 62.3921 47.0714C66.0472 42.7243 68.2458 37.1217 68.2458 31C68.2458 24.8783 66.0472 19.2757 62.3976 14.9286C62.3865 14.9118 62.3697 14.9007 62.3586 14.8839C62.2972 14.8114 62.2414 14.7444 62.18 14.6775C62.1577 14.6496 62.1354 14.6272 62.113 14.5993L61.8842 14.3371L61.8787 14.3315C61.795 14.2366 61.7057 14.1417 61.622 14.0469L61.6164 14.0413C61.4378 13.8516 61.2592 13.6618 61.0751 13.4777L61.0695 13.4721L60.8017 13.2042L60.7849 13.1875C60.7012 13.1038 60.6175 13.0257 60.5338 12.9475C60.5059 12.9196 60.478 12.8917 60.4445 12.8638C60.3887 12.808 60.3329 12.7578 60.2771 12.7076C60.2604 12.6908 60.238 12.6741 60.2213 12.6518C55.7682 8.52232 49.8028 6 43.2458 6C36.6889 6 30.7235 8.52232 26.2648 12.6518C26.2481 12.6685 26.2258 12.6853 26.209 12.7076C26.1532 12.7578 26.0974 12.8136 26.0416 12.8694C26.0137 12.8973 25.9858 12.9252 25.9523 12.9531C25.8686 13.0313 25.7849 13.115 25.7012 13.1931L25.6845 13.2098L25.4166 13.4777L25.411 13.4833C25.2269 13.6674 25.0483 13.8571 24.8697 14.0469L24.8642 14.0525C24.7749 14.1473 24.6912 14.2422 24.6075 14.3371L24.6019 14.3426C24.5238 14.4263 24.4456 14.5156 24.3731 14.6049C24.3508 14.6328 24.3284 14.6551 24.3061 14.683C24.2447 14.75 24.1889 14.8225 24.1275 14.8895C24.1164 14.9063 24.0996 14.9174 24.0885 14.9342C20.4445 19.2757 18.2458 24.8783 18.2458 31C18.2458 37.1217 20.4445 42.7243 24.0941 47.0714C24.1052 47.0882 24.122 47.1049 24.1331 47.1217L24.3061 47.3281C24.3284 47.356 24.3508 47.3783 24.3731 47.4062L24.6019 47.6685C24.6019 47.6741 24.6075 47.6741 24.6075 47.6797C24.6912 47.7746 24.7749 47.8694 24.8642 47.9587L24.8697 47.9643C25.0483 48.154 25.2269 48.3437 25.4054 48.5279L25.411 48.5335C25.5003 48.6228 25.584 48.7121 25.6733 48.7958L25.69 48.8125C25.8742 48.9967 26.0639 49.1752 26.2537 49.3482C30.7235 53.4777 36.6889 56 43.2458 56C49.8028 56 55.7682 53.4777 60.2269 49.3482C60.417 49.174 60.6031 48.9953 60.7849 48.8125L60.8017 48.7958C60.8909 48.7065 60.9802 48.6228 61.0639 48.5335L61.0695 48.5279C61.2537 48.3437 61.4322 48.154 61.6052 47.9643L61.6108 47.9587C61.6945 47.8638 61.7838 47.7746 61.8675 47.6797C61.8675 47.6741 61.8731 47.6741 61.8731 47.6685C61.9512 47.5848 62.0293 47.4955 62.1019 47.4062C62.1242 47.3783 62.1465 47.356 62.1688 47.3281C62.2319 47.2608 62.2933 47.192 62.353 47.1217ZM62.5818 39.1641C61.8117 40.9833 60.7961 42.6685 59.5572 44.1975C58.162 42.9918 56.6366 41.9455 55.0092 41.0781C55.6566 38.4609 56.0583 35.5871 56.1644 32.5625H64.1722C64.0048 34.8449 63.4691 37.0603 62.5818 39.1641ZM64.1722 29.4375H56.1644C56.0583 26.4129 55.6566 23.5391 55.0092 20.9219C56.6443 20.0513 58.1677 19.0022 59.5572 17.8025C62.2501 21.117 63.861 25.1782 64.1722 29.4375ZM51.4099 11.6641C53.6253 12.6016 55.6398 13.8962 57.4144 15.5257C56.3835 16.4034 55.2739 17.1843 54.0996 17.8583C53.2235 15.3471 52.1019 13.1652 50.7961 11.4185C51.0025 11.4967 51.209 11.5804 51.4099 11.6641ZM46.3541 50.76C45.8407 51.1618 45.3273 51.4687 44.8083 51.6752V41.3237C47.0226 41.4781 49.2 41.9712 51.2648 42.7857C50.8017 44.1585 50.2659 45.4252 49.6465 46.5692C48.6755 48.3772 47.5371 49.8225 46.3541 50.76ZM49.6465 15.4308C50.2604 16.5804 50.8017 17.8471 51.2648 19.2143C49.2 20.0288 47.0226 20.5219 44.8083 20.6763V10.3304C45.3217 10.5368 45.8407 10.8382 46.3541 11.2455C47.5371 12.1775 48.6755 13.6228 49.6465 15.4308ZM44.8083 38.1931V32.5625H53.0394C52.9501 35.029 52.6432 37.423 52.1298 39.6942L52.113 39.7612C49.7711 38.8731 47.3084 38.3444 44.8083 38.1931ZM44.8083 29.4375V23.8069C47.3642 23.6507 49.8195 23.1094 52.113 22.2388L52.1298 22.3058C52.6432 24.577 52.9501 26.9654 53.0394 29.4375H44.8083ZM41.6833 32.5625V38.1931C39.1275 38.3493 36.6722 38.8906 34.3787 39.7612L34.3619 39.6942C33.8485 37.423 33.5416 35.0346 33.4523 32.5625H41.6833ZM33.4523 29.4375C33.5416 26.971 33.8485 24.577 34.3619 22.3058L34.3787 22.2388C36.6722 23.1094 39.122 23.6507 41.6833 23.8069V29.4375H33.4523ZM41.6833 41.3237V51.6696C41.17 51.4632 40.651 51.1618 40.1376 50.7545C38.9546 49.8225 37.8106 48.3717 36.8396 46.5636C36.2258 45.4141 35.6845 44.1473 35.2213 42.7801C37.2972 41.9654 39.4568 41.4799 41.6833 41.3237ZM41.6833 20.6763C39.4691 20.5219 37.2917 20.0288 35.2269 19.2143C35.69 17.8415 36.2258 16.5748 36.8452 15.4308C37.8162 13.6228 38.9546 12.1719 40.1432 11.24C40.6566 10.8382 41.17 10.5312 41.6889 10.3248V20.6763H41.6833ZM35.0818 11.6641C35.2883 11.5804 35.4892 11.4967 35.6956 11.4185C34.3898 13.1652 33.2682 15.3471 32.3921 17.8583C31.2202 17.1886 30.1097 16.4074 29.0773 15.5257C30.8519 13.8962 32.8664 12.6016 35.0818 11.6641ZM23.9099 22.8359C24.68 21.0167 25.6956 19.3315 26.9345 17.8025C28.324 19.0022 29.8474 20.0513 31.4825 20.9219C30.8351 23.5391 30.4333 26.4129 30.3273 29.4375H22.3195C22.4869 27.1551 23.0226 24.9397 23.9099 22.8359ZM22.3195 32.5625H30.3273C30.4333 35.5871 30.8351 38.4609 31.4825 41.0781C29.8551 41.9455 28.3297 42.9918 26.9345 44.1975C24.2415 40.883 22.6307 36.8218 22.3195 32.5625ZM35.0818 50.3359C32.8664 49.3984 30.8519 48.1038 29.0773 46.4743C30.1097 45.5926 31.2202 44.817 32.3921 44.1417C33.2682 46.6529 34.3898 48.8348 35.6956 50.5815C35.4892 50.5033 35.2827 50.4196 35.0818 50.3359ZM51.4099 50.3359C51.2034 50.4196 51.0025 50.5033 50.7961 50.5815C52.1019 48.8348 53.2235 46.6529 54.0996 44.1417C55.2715 44.8114 56.382 45.5926 57.4144 46.4743C55.6497 48.097 53.6184 49.4033 51.4099 50.3359Z" stroke="#4E2473" stroke-width="2" mask="url(#path-65-inside-1_272_97)"/>
<defs>
<filter id="filter0_d_272_97" x="0" y="0.0986328" width="56.4915" height="58.803" filterUnits="userSpaceOnUse" color-interpolation-filters="sRGB">
<feFlood flood-opacity="0" result="BackgroundImageFix"/>
<feColorMatrix in="SourceAlpha" type="matrix" values="0 0 0 0 0 0 0 0 0 0 0 0 0 0 0 0 0 0 127 0" result="hardAlpha"/>
<feOffset dy="4"/>
<feGaussianBlur stdDeviation="2"/>
<feComposite in2="hardAlpha" operator="out"/>
<feColorMatrix type="matrix" values="0 0 0 0 0 0 0 0 0 0 0 0 0 0 0 0 0 0 0.5 0"/>
<feBlend mode="normal" in2="BackgroundImageFix" result="effect1_dropShadow_272_97"/>
<feBlend mode="normal" in="SourceGraphic" in2="effect1_dropShadow_272_97" result="shape"/>
</filter>
<filter id="filter1_d_272_97" x="30.2458" y="0" width="56.4929" height="58.803" filterUnits="userSpaceOnUse" color-interpolation-filters="sRGB">
<feFlood flood-opacity="0" result="BackgroundImageFix"/>
<feColorMatrix in="SourceAlpha" type="matrix" values="0 0 0 0 0 0 0 0 0 0 0 0 0 0 0 0 0 0 127 0" result="hardAlpha"/>
<feOffset dy="4"/>
<feGaussianBlur stdDeviation="2"/>
<feComposite in2="hardAlpha" operator="out"/>
<feColorMatrix type="matrix" values="0 0 0 0 0 0 0 0 0 0 0 0 0 0 0 0 0 0 0.5 0"/>
<feBlend mode="normal" in2="BackgroundImageFix" result="effect1_dropShadow_272_97"/>
<feBlend mode="normal" in="SourceGraphic" in2="effect1_dropShadow_272_97" result="shape"/>
</filter>
<filter id="filter2_d_272_97" x="24.2458" y="0" width="38" height="53" filterUnits="userSpaceOnUse" color-interpolation-filters="sRGB">
<feFlood flood-opacity="0" result="BackgroundImageFix"/>
<feColorMatrix in="SourceAlpha" type="matrix" values="0 0 0 0 0 0 0 0 0 0 0 0 0 0 0 0 0 0 127 0" result="hardAlpha"/>
<feOffset dy="4"/>
<feGaussianBlur stdDeviation="2"/>
<feComposite in2="hardAlpha" operator="out"/>
<feColorMatrix type="matrix" values="0 0 0 0 0 0 0 0 0 0 0 0 0 0 0 0 0 0 1 0"/>
<feBlend mode="normal" in2="BackgroundImageFix" result="effect1_dropShadow_272_97"/>
<feBlend mode="normal" in="SourceGraphic" in2="effect1_dropShadow_272_97" result="shape"/>
</filter>
</defs>
</svg>
