<svg width="50" height="50" viewBox="0 0 50 50" fill="none" xmlns="http://www.w3.org/2000/svg">
<g filter="url(#filter0_d_274_123)">
<path d="M24.8333 0C13.3458 0 4 9.34583 4 20.8333V29.4646C4 31.5979 5.86875 33.3333 8.16667 33.3333H10.25C10.8025 33.3333 11.3324 33.1138 11.7231 32.7231C12.1138 32.3324 12.3333 31.8025 12.3333 31.25V20.5354C12.3333 19.9829 12.1138 19.453 11.7231 19.0623C11.3324 18.6716 10.8025 18.4521 10.25 18.4521H8.35833C9.51667 10.3896 16.4542 4.16667 24.8333 4.16667C33.2125 4.16667 40.15 10.3896 41.3083 18.4521H39.4167C38.8641 18.4521 38.3342 18.6716 37.9435 19.0623C37.5528 19.453 37.3333 19.9829 37.3333 20.5354V33.3333C37.3333 35.6312 35.4646 37.5 33.1667 37.5H29V35.4167H20.6667V41.6667H33.1667C37.7625 41.6667 41.5 37.9292 41.5 33.3333C43.7979 33.3333 45.6667 31.5979 45.6667 29.4646V20.8333C45.6667 9.34583 36.3208 0 24.8333 0Z" fill="#4E2473"/>
</g>
<defs>
<filter id="filter0_d_274_123" x="0" y="0" width="49.6667" height="49.6667" filterUnits="userSpaceOnUse" color-interpolation-filters="sRGB">
<feFlood flood-opacity="0" result="BackgroundImageFix"/>
<feColorMatrix in="SourceAlpha" type="matrix" values="0 0 0 0 0 0 0 0 0 0 0 0 0 0 0 0 0 0 127 0" result="hardAlpha"/>
<feOffset dy="4"/>
<feGaussianBlur stdDeviation="2"/>
<feComposite in2="hardAlpha" operator="out"/>
<feColorMatrix type="matrix" values="0 0 0 0 0 0 0 0 0 0 0 0 0 0 0 0 0 0 0.5 0"/>
<feBlend mode="normal" in2="BackgroundImageFix" result="effect1_dropShadow_274_123"/>
<feBlend mode="normal" in="SourceGraphic" in2="effect1_dropShadow_274_123" result="shape"/>
</filter>
</defs>
</svg>
