<svg width="163" height="60" viewBox="0 0 163 60" fill="none" xmlns="http://www.w3.org/2000/svg">
<rect width="163" height="60" rx="30" fill="black"/>
<path d="M99.0811 25.28V36H97.3211V25.28H99.0811ZM98.2211 21.26C98.4878 21.26 98.7211 21.3533 98.9211 21.54C99.1344 21.7133 99.2411 21.9933 99.2411 22.38C99.2411 22.7533 99.1344 23.0333 98.9211 23.22C98.7211 23.4067 98.4878 23.5 98.2211 23.5C97.9278 23.5 97.6811 23.4067 97.4811 23.22C97.2811 23.0333 97.1811 22.7533 97.1811 22.38C97.1811 21.9933 97.2811 21.7133 97.4811 21.54C97.6811 21.3533 97.9278 21.26 98.2211 21.26ZM115.177 28.84C115.177 29.9467 115.037 30.9533 114.757 31.86C114.477 32.7533 114.057 33.5267 113.497 34.18C112.951 34.8333 112.264 35.3333 111.437 35.68C110.624 36.0267 109.677 36.2 108.597 36.2C107.477 36.2 106.504 36.0267 105.677 35.68C104.851 35.32 104.164 34.82 103.617 34.18C103.071 33.5267 102.664 32.7467 102.397 31.84C102.131 30.9333 101.997 29.9267 101.997 28.82C101.997 27.3533 102.237 26.0733 102.717 24.98C103.197 23.8867 103.924 23.0333 104.897 22.42C105.884 21.8067 107.124 21.5 108.617 21.5C110.044 21.5 111.244 21.8067 112.217 22.42C113.191 23.02 113.924 23.8733 114.417 24.98C114.924 26.0733 115.177 27.36 115.177 28.84ZM103.897 28.84C103.897 30.04 104.064 31.0733 104.397 31.94C104.731 32.8067 105.244 33.4733 105.937 33.94C106.644 34.4067 107.531 34.64 108.597 34.64C109.677 34.64 110.557 34.4067 111.237 33.94C111.931 33.4733 112.444 32.8067 112.777 31.94C113.111 31.0733 113.277 30.04 113.277 28.84C113.277 27.04 112.904 25.6333 112.157 24.62C111.411 23.5933 110.231 23.08 108.617 23.08C107.537 23.08 106.644 23.3133 105.937 23.78C105.244 24.2333 104.731 24.8933 104.397 25.76C104.064 26.6133 103.897 27.64 103.897 28.84ZM126.442 32.18C126.442 33.0333 126.236 33.76 125.822 34.36C125.409 34.9467 124.816 35.4 124.042 35.72C123.282 36.04 122.382 36.2 121.342 36.2C120.809 36.2 120.296 36.1733 119.802 36.12C119.322 36.0667 118.882 35.9933 118.482 35.9C118.082 35.7933 117.729 35.6667 117.422 35.52V33.8C117.902 34.0133 118.496 34.2067 119.202 34.38C119.922 34.5533 120.662 34.64 121.422 34.64C122.129 34.64 122.722 34.5467 123.202 34.36C123.682 34.1733 124.042 33.9067 124.282 33.56C124.522 33.2133 124.642 32.8067 124.642 32.34C124.642 31.8733 124.542 31.48 124.342 31.16C124.142 30.84 123.796 30.5467 123.302 30.28C122.822 30 122.149 29.7067 121.282 29.4C120.669 29.1733 120.129 28.9333 119.662 28.68C119.209 28.4133 118.829 28.1133 118.522 27.78C118.216 27.4467 117.982 27.0667 117.822 26.64C117.676 26.2133 117.602 25.72 117.602 25.16C117.602 24.4 117.796 23.7533 118.182 23.22C118.569 22.6733 119.102 22.2533 119.782 21.96C120.476 21.6667 121.269 21.52 122.162 21.52C122.949 21.52 123.669 21.5933 124.322 21.74C124.976 21.8867 125.569 22.08 126.102 22.32L125.542 23.86C125.049 23.6467 124.509 23.4667 123.922 23.32C123.349 23.1733 122.749 23.1 122.122 23.1C121.522 23.1 121.022 23.1867 120.622 23.36C120.222 23.5333 119.922 23.78 119.722 24.1C119.522 24.4067 119.422 24.7667 119.422 25.18C119.422 25.66 119.522 26.06 119.722 26.38C119.922 26.7 120.249 26.9867 120.702 27.24C121.156 27.4933 121.769 27.7667 122.542 28.06C123.382 28.3667 124.089 28.7 124.662 29.06C125.249 29.4067 125.689 29.8267 125.982 30.32C126.289 30.8133 126.442 31.4333 126.442 32.18Z" fill="white"/>
<path d="M54.0866 23.0466C53.9226 23.1493 50.0186 25.3159 50.0186 30.1199C50.2026 35.5986 54.9453 37.5199 55.0266 37.5199C54.9453 37.6226 54.3106 40.1373 52.4306 42.7733C50.9386 45.0439 49.2826 47.3333 46.768 47.3333C44.376 47.3333 43.5173 45.8199 40.7573 45.8199C37.7933 45.8199 36.9546 47.3333 34.6853 47.3333C32.1706 47.3333 30.392 44.9213 28.8186 42.6719C26.7746 39.7279 25.0373 35.1079 24.976 30.6719C24.9346 28.3213 25.3853 26.0106 26.5293 24.0479C28.144 21.3079 31.0266 19.4479 34.1746 19.3866C36.5866 19.3053 38.7333 21.0426 40.2053 21.0426C41.616 21.0426 44.2533 19.3866 47.2373 19.3866C48.5253 19.3879 51.96 19.7759 54.0866 23.0466ZM40.0013 18.9173C39.572 16.7706 40.7573 14.6239 41.8613 13.2546C43.272 11.5986 45.5 10.4746 47.4213 10.4746C47.544 12.6213 46.7666 14.7266 45.3773 16.2599C44.1306 17.9159 41.984 19.1626 40.0013 18.9173Z" fill="white"/>
</svg>
