<svg width="150" height="150" viewBox="0 0 150 150" fill="none" xmlns="http://www.w3.org/2000/svg">
<rect width="150" height="150" rx="32" fill="#F63D37"/>
<path d="M118.457 38.7354L104.768 60.9831C103.259 63.5029 103.498 65.4486 104.181 67.3465L125 120.837H38.7843C31.0346 120.837 25.0635 114.601 25.0635 107.153L25 35.9764C25.1906 26.7902 38.5303 26.6307 38.7843 35.9445V102.656C38.7526 104.761 40.6106 107.153 43.0245 107.089H106.182L89.8563 68.4628C89.3957 66.9797 89.1417 65.5124 89.1417 64.0292C89.1417 62.3866 89.8563 59.803 90.9044 57.6659L105.896 32.8505C107.007 30.6178 109.262 29.1027 111.914 29.007C115.678 28.8475 118.87 31.4311 119.013 35.4022C119.045 36.2156 118.838 37.9539 118.457 38.7354Z" fill="white"/>
<path d="M70.8103 83.6425V35.9945C70.8103 26.7004 84.0286 26.6367 84.1838 35.9945V84.1677C84.1838 95.1646 76.1318 102.469 66.3421 102.469C56.506 102.469 48.4695 95.0055 48.4695 84.1677V35.9945C48.4695 26.7004 61.8119 26.7004 61.8119 35.9945V83.6425C61.8119 90.0242 70.8103 90.4221 70.8103 83.6425Z" fill="white"/>
</svg>
