<svg width="40" height="21" viewBox="0 0 40 21" fill="none" xmlns="http://www.w3.org/2000/svg">
<path d="M38.8281 20C39.1041 20.0002 39.3281 20.224 39.3281 20.5C39.3281 20.776 39.1041 20.9998 38.8281 21H0.5C0.223858 21 0 20.7761 0 20.5C0 20.2239 0.223858 20 0.5 20H38.8281ZM38.8281 10C39.1041 10.0002 39.3281 10.224 39.3281 10.5C39.3281 10.776 39.1041 10.9998 38.8281 11H0.5C0.223858 11 0 10.7761 0 10.5C0 10.2239 0.223858 10 0.5 10H38.8281ZM38.8281 0C39.1041 0.000214171 39.3281 0.22399 39.3281 0.5C39.3281 0.77601 39.1041 0.999786 38.8281 1H0.5C0.223858 1 0 0.776142 0 0.5C0 0.223858 0.223858 4.10011e-09 0.5 0H38.8281Z" fill="#D9D9D9"/>
</svg>
