<svg width="40" height="35" viewBox="0 0 40 35" fill="none" xmlns="http://www.w3.org/2000/svg">
<path d="M5.424 33.9839L28.368 0.383884H34.08L11.136 33.9839H5.424ZM8.352 18.5279C6.72 18.5279 5.28 18.1599 4.032 17.4239C2.784 16.6559 1.792 15.5839 1.056 14.2079C0.352002 12.7999 2.41399e-06 11.1519 2.41399e-06 9.26388C2.41399e-06 7.37589 0.352002 5.74389 1.056 4.36788C1.792 2.99189 2.784 1.91989 4.032 1.15189C5.28 0.383886 6.72 -0.000113487 8.352 -0.000113487C9.984 -0.000113487 11.424 0.383886 12.672 1.15189C13.92 1.91989 14.896 2.99189 15.6 4.36788C16.304 5.74389 16.656 7.37589 16.656 9.26388C16.656 11.1519 16.304 12.7999 15.6 14.2079C14.896 15.5839 13.92 16.6559 12.672 17.4239C11.424 18.1599 9.984 18.5279 8.352 18.5279ZM8.352 14.5919C9.408 14.5919 10.256 14.1599 10.896 13.2959C11.536 12.3999 11.856 11.0559 11.856 9.26388C11.856 7.47188 11.536 6.14388 10.896 5.27988C10.256 4.38388 9.408 3.93588 8.352 3.93588C7.328 3.93588 6.48 4.38388 5.808 5.27988C5.168 6.14388 4.848 7.47188 4.848 9.26388C4.848 11.0239 5.168 12.3519 5.808 13.2479C6.48 14.1439 7.328 14.5919 8.352 14.5919ZM31.152 34.3679C29.552 34.3679 28.112 33.9999 26.832 33.2639C25.584 32.4959 24.608 31.4239 23.904 30.0479C23.2 28.6399 22.848 26.9919 22.848 25.1039C22.848 23.2159 23.2 21.5839 23.904 20.2079C24.608 18.8319 25.584 17.7599 26.832 16.9919C28.112 16.2239 29.552 15.8399 31.152 15.8399C32.816 15.8399 34.272 16.2239 35.52 16.9919C36.768 17.7599 37.744 18.8319 38.448 20.2079C39.152 21.5839 39.504 23.2159 39.504 25.1039C39.504 26.9919 39.152 28.6399 38.448 30.0479C37.744 31.4239 36.768 32.4959 35.52 33.2639C34.272 33.9999 32.816 34.3679 31.152 34.3679ZM31.152 30.4319C32.208 30.4319 33.056 29.9999 33.696 29.1359C34.336 28.2399 34.656 26.8959 34.656 25.1039C34.656 23.3439 34.336 22.0159 33.696 21.1199C33.056 20.2239 32.208 19.7759 31.152 19.7759C30.128 19.7759 29.28 20.2239 28.608 21.1199C27.968 21.9839 27.648 23.3119 27.648 25.1039C27.648 26.8959 27.968 28.2399 28.608 29.1359C29.28 29.9999 30.128 30.4319 31.152 30.4319Z" fill="#4E2473"/>
</svg>
