<svg width="102" height="102" viewBox="0 0 102 102" fill="none" xmlns="http://www.w3.org/2000/svg">
<g clip-path="url(#clip0_156_11)">
<path d="M51 102C79.1665 102 102 79.2774 102 51.2476C102 23.2178 79.1665 0.495148 51 0.495148C22.8335 0.495148 0 23.2178 0 51.2476C0 79.2774 22.8335 102 51 102Z" fill="#6C6C9F"/>
<path fill-rule="evenodd" clip-rule="evenodd" d="M51 10.1505C43.8639 10.1491 36.8522 12.0105 30.6649 15.5486C24.4775 19.0868 19.3309 24.178 15.7387 30.3141C12.1465 36.4503 10.2344 43.4167 10.1933 50.5182C10.1521 57.6196 11.9833 64.6071 15.5041 70.7845C17.8838 67.7067 20.9428 65.2146 24.4448 63.5014C27.9467 61.7877 31.7977 60.8989 35.7 60.9029H66.3C70.2025 60.8989 74.0535 61.7877 77.5552 63.5014C81.0574 65.2146 84.1163 67.7067 86.496 70.7845C90.0165 64.6071 91.8479 57.6196 91.8066 50.5182C91.7653 43.4167 89.8533 36.4503 86.2614 30.3141C82.669 24.178 77.5225 19.0868 71.3352 15.5486C65.1479 12.0105 58.1359 10.1491 51 10.1505ZM91.5093 81.5896C98.328 72.7433 102.016 61.9016 102 50.7524C102 22.7218 79.1673 0 51 0C22.8328 0 5.73915e-05 22.7218 5.73915e-05 50.7524C-0.0167799 61.9016 3.67157 72.7433 10.4908 81.5896L10.4653 81.6807L12.2758 83.7772C17.0589 89.3421 22.9979 93.8088 29.6832 96.8693C36.3685 99.9298 43.6412 101.511 51 101.505C61.3392 101.524 71.4377 98.3983 79.9425 92.5467C83.5681 90.0541 86.8561 87.1065 89.7243 83.7772L91.5348 81.6807L91.5093 81.5896ZM51 20.3009C46.9422 20.3009 43.0506 21.9051 40.1813 24.7604C37.312 27.6158 35.7 31.4885 35.7 35.5266C35.7 39.5648 37.312 43.4375 40.1813 46.2928C43.0506 49.1482 46.9422 50.7524 51 50.7524C55.0576 50.7524 58.9494 49.1482 61.8186 46.2928C64.6879 43.4375 66.3 39.5648 66.3 35.5266C66.3 31.4885 64.6879 27.6158 61.8186 24.7604C58.9494 21.9051 55.0576 20.3009 51 20.3009Z" fill="black"/>
</g>
<defs>
<clipPath id="clip0_156_11">
<rect width="102" height="102" fill="white"/>
</clipPath>
</defs>
</svg>
