<svg width="150" height="150" viewBox="0 0 150 150" fill="none" xmlns="http://www.w3.org/2000/svg">
<circle cx="75" cy="75" r="75" fill="#D9D9D9"/>
<path d="M71.8218 104.68V44.52H78.2218V104.68H71.8218ZM74.1258 97.768C70.5418 97.768 67.1071 97.2987 63.8218 96.36C60.5364 95.3787 57.8911 94.12 55.8858 92.584L59.4058 84.776C61.3258 86.1413 63.5871 87.272 66.1898 88.168C68.8351 89.0213 71.5018 89.448 74.1898 89.448C76.2378 89.448 77.8804 89.256 79.1178 88.872C80.3978 88.4453 81.3364 87.8693 81.9338 87.144C82.5311 86.4187 82.8298 85.5867 82.8298 84.648C82.8298 83.4533 82.3604 82.5147 81.4218 81.832C80.4831 81.1067 79.2458 80.5307 77.7098 80.104C76.1738 79.6347 74.4671 79.208 72.5898 78.824C70.7551 78.3973 68.8991 77.8853 67.0218 77.288C65.1871 76.6907 63.5018 75.9227 61.9658 74.984C60.4298 74.0453 59.1711 72.808 58.1898 71.272C57.2511 69.736 56.7818 67.7733 56.7818 65.384C56.7818 62.824 57.4644 60.4987 58.8298 58.408C60.2378 56.2747 62.3284 54.5893 65.1018 53.352C67.9178 52.072 71.4378 51.432 75.6618 51.432C78.4778 51.432 81.2511 51.7733 83.9818 52.456C86.7124 53.096 89.1231 54.0773 91.2138 55.4L88.0138 63.272C85.9231 62.0773 83.8324 61.2027 81.7418 60.648C79.6511 60.0507 77.6031 59.752 75.5978 59.752C73.5924 59.752 71.9498 59.9867 70.6698 60.456C69.3898 60.9253 68.4724 61.544 67.9178 62.312C67.3631 63.0373 67.0858 63.8907 67.0858 64.872C67.0858 66.024 67.5551 66.9627 68.4938 67.688C69.4324 68.3707 70.6698 68.9253 72.2058 69.352C73.7418 69.7787 75.4271 70.2053 77.2618 70.632C79.1391 71.0587 80.9951 71.5493 82.8298 72.104C84.7071 72.6587 86.4138 73.4053 87.9498 74.344C89.4858 75.2827 90.7231 76.52 91.6618 78.056C92.6431 79.592 93.1338 81.5333 93.1338 83.88C93.1338 86.3973 92.4298 88.7013 91.0218 90.792C89.6138 92.8827 87.5018 94.568 84.6858 95.848C81.9124 97.128 78.3924 97.768 74.1258 97.768Z" fill="black"/>
</svg>
