<svg width="150" height="150" viewBox="0 0 150 150" fill="none" xmlns="http://www.w3.org/2000/svg">
<circle cx="75" cy="75" r="75" fill="#D9D9D9"/>
<path d="M50.17 81.704V76.328H84.666V81.704H50.17ZM50.17 72.872V67.496H84.666V72.872H50.17ZM80.634 97.768C77.1353 97.768 73.8927 97.2133 70.906 96.104C67.962 94.952 65.402 93.3307 63.226 91.24C61.05 89.1493 59.3647 86.696 58.17 83.88C56.9753 81.064 56.378 77.9707 56.378 74.6C56.378 71.2293 56.9753 68.136 58.17 65.32C59.3647 62.504 61.05 60.0507 63.226 57.96C65.402 55.8693 67.962 54.2693 70.906 53.16C73.8927 52.008 77.1353 51.432 80.634 51.432C84.5167 51.432 88.0367 52.1147 91.194 53.48C94.3513 54.8027 96.9753 56.7653 99.066 59.368L92.474 65.512C90.938 63.7627 89.2313 62.4613 87.354 61.608C85.4767 60.712 83.4073 60.264 81.146 60.264C79.0553 60.264 77.1353 60.6053 75.386 61.288C73.6367 61.9707 72.122 62.952 70.842 64.232C69.562 65.512 68.5593 67.0267 67.834 68.776C67.1513 70.5253 66.81 72.4667 66.81 74.6C66.81 76.7333 67.1513 78.6747 67.834 80.424C68.5593 82.1733 69.562 83.688 70.842 84.968C72.122 86.248 73.6367 87.2293 75.386 87.912C77.1353 88.5947 79.0553 88.936 81.146 88.936C83.4073 88.936 85.4767 88.5093 87.354 87.656C89.2313 86.76 90.938 85.416 92.474 83.624L99.066 89.768C96.9753 92.3707 94.3513 94.3547 91.194 95.72C88.0367 97.0853 84.5167 97.768 80.634 97.768Z" fill="black"/>
</svg>
