<svg width="150" height="150" viewBox="0 0 150 150" fill="none" xmlns="http://www.w3.org/2000/svg">
<rect width="150" height="150" rx="32" fill="#E2BA05"/>
<path d="M65.1213 25V32.9031H56.7962V40.8225H48.39V48.9204H40V75.8592C40 75.8592 54.8001 89.3773 56.9098 91.3085V120H93.2286V91.4708C95.322 89.5234 110.025 75.8268 110.025 75.8268V48.9042H101.683V40.8712H93.2286V32.9194H84.7737V25H65.1213Z" fill="white"/>
<path d="M70.071 78.2286H62.9468V113.72H70.071V78.2286Z" fill="#FFD100"/>
<path d="M78.5097 70.9097H71.3855V113.72H78.5097V70.9097Z" fill="#FFD100"/>
<path d="M86.9319 78.2286H79.824V113.72H86.9319V78.2286Z" fill="#FFD100"/>
<path d="M53.1937 79.6242L46.0857 73.2952V55.1033H53.1937V79.6242Z" fill="#1D1D1B"/>
<path d="M61.6324 87.5274L54.5244 80.5492V47.0542H61.6324V87.5274Z" fill="#1D1D1B"/>
<path d="M70.071 39.151H62.9468V77.1088H70.071V39.151Z" fill="#1D1D1B"/>
<path d="M78.5097 31.2316H71.3855V69.3355H78.5097V31.2316Z" fill="#1D1D1B"/>
<path d="M96.7014 79.6242L103.809 73.2952V55.1033H96.7014V79.6242Z" fill="#1D1D1B"/>
<path d="M88.2627 87.5274L95.3707 80.5492V47.0542H88.2627V87.5274Z" fill="#1D1D1B"/>
<path d="M86.9319 39.151H79.824V77.1088H86.9319V39.151Z" fill="#1D1D1B"/>
</svg>
