<svg width="34" height="34" viewBox="0 0 34 34" fill="none" xmlns="http://www.w3.org/2000/svg">
<path d="M4.656 33.6001V9.53674e-05H19.2C23.68 9.53674e-05 27.232 0.944096 29.856 2.8321C32.48 4.7201 33.792 7.5521 33.792 11.3281C33.792 15.0721 32.48 17.8881 29.856 19.7761C27.232 21.6641 23.68 22.6081 19.2 22.6081H8.976L12.48 19.1521V33.6001H4.656ZM12.48 19.9681L8.976 16.5121H19.152C21.296 16.5121 22.96 16.0801 24.144 15.2161C25.328 14.3201 25.92 13.0401 25.92 11.3761C25.92 9.7441 25.328 8.4961 24.144 7.6321C22.96 6.7681 21.296 6.3361 19.152 6.3361H8.976L12.48 2.6401V19.9681ZM-2.38419e-06 29.2801V25.2961H22.848V29.2801H-2.38419e-06Z" fill="#4E2473"/>
</svg>
