<svg viewBox="0 0 48 48" fill="none" xmlns="http://www.w3.org/2000/svg">
    <path d="M29.218 42.5C36.5534 42.5 42.5 36.5535 42.5 29.218C42.5 21.8826 36.5534 15.936 29.218 15.936C21.8825 15.936 15.936 21.8826 15.936 29.218C15.936 36.5535 21.8825 42.5 29.218 42.5Z" stroke="black" stroke-linecap="round" stroke-linejoin="round"/>
    <path d="M16.495 24.692C16.0471 24.2721 15.6904 23.7644 15.4473 23.2006C15.2042 22.6368 15.0799 22.029 15.082 21.415V17.098C15.0796 16.5087 15.194 15.9247 15.4184 15.3798C15.6429 14.8349 15.973 14.3398 16.3898 13.9231C16.8066 13.5064 17.3017 13.1764 17.8467 12.952C18.3917 12.7277 18.9757 12.6135 19.565 12.616C20.231 12.628 20.8867 12.7824 21.4882 13.0687C22.0896 13.355 22.6228 13.7666 23.052 14.276M13.09 17.43H18.735M13.09 20.75H18.735" stroke="black" stroke-linecap="round" stroke-linejoin="round"/>
    <path d="M16.02 31.7741C13.6819 31.277 11.5212 30.158 9.76592 28.5353C8.01065 26.9126 6.72585 24.8462 6.04703 22.5542C5.36822 20.2622 5.32054 17.8294 5.90904 15.5126C6.49755 13.1957 7.70041 11.0806 9.39075 9.3904C11.0811 7.70016 13.1963 6.49743 15.5132 5.90908C17.8301 5.32073 20.2628 5.36855 22.5548 6.04752C24.8468 6.72648 26.913 8.01141 28.5356 9.76678C30.1582 11.5221 31.277 13.6829 31.774 16.0211" stroke="black" stroke-linecap="round" stroke-linejoin="round"/>
    <path d="M25.2459 35V23.8H29.4379C30.8566 23.8 31.9713 24.12 32.7819 24.76C33.6033 25.4 34.0139 26.3173 34.0139 27.512C34.0139 28.7173 33.6033 29.64 32.7819 30.28C31.9713 30.92 30.8566 31.24 29.4379 31.24H25.9019L26.4299 30.68V35H25.2459ZM26.4299 30.776L25.9019 30.232H29.4539C30.5419 30.232 31.3739 29.9973 31.9499 29.528C32.5366 29.0587 32.8299 28.392 32.8299 27.528C32.8299 26.664 32.5366 25.9973 31.9499 25.528C31.3739 25.0587 30.5419 24.824 29.4539 24.824H25.9019L26.4299 24.264V30.776ZM23.5659 32.92V32.216H30.0299V32.92H23.5659Z" fill="black"/>
</svg>
