<svg width="150" height="150" viewBox="0 0 150 150" fill="none" xmlns="http://www.w3.org/2000/svg">
<rect width="150" height="150" rx="32" fill="#FC3F1D"/>
<path d="M75 25C102.612 25 125 47.3885 125 75C125 102.612 102.612 125 75 125C47.3885 125 25 102.612 25 75C25 47.3885 47.3885 25 75 25Z" fill="#FC3F1D"/>
<path d="M83.4766 108H95V42H78.2345C61.3772 41.9848 52.513 50.6273 52.513 63.3547C52.513 73.5215 57.373 79.4965 66.0386 85.6698L51 107.985H63.471L80.2213 83.0023L74.4137 79.1155C67.3682 74.3751 63.9448 70.6711 63.9448 62.6841C63.9448 55.6573 68.8965 50.9016 78.3262 50.9016H83.4613L83.4766 108Z" fill="white"/>
</svg>
